<svg xmlns="http://www.w3.org/2000/svg" width="682.7" height="682.7">
  <g data-name="samarbeid-logo">
    <path fill="#6abd88" fill-rule="evenodd" d="m227.6 341.4.1-.1a161 161 0 0 1 0-227.3L113.7 0a322 322 0 0 0 0 455.1 161 161 0 0 0 227.6 0Z" data-name="Pfad 5963"/>
    <path fill="#f8ca58" fill-rule="evenodd" d="M568.9 227.6a161 161 0 0 0-227.6 0l113.8 113.7-.1.1a161 161 0 0 1 0 227.3l113.9 114a322 322 0 0 0 0-455.1" data-name="Pfad 5964"/>
    <path fill="#b986cc" fill-rule="evenodd" d="M455.1 341.4 341.4 455l-.1-.1a161 161 0 0 1-227.3 0L0 568.9a322 322 0 0 0 455.1 0 161 161 0 0 0 0-227.5" data-name="Pfad 5965"/>
    <path fill="#ef8450" d="M227.6 113.8a161 161 0 0 0 0 227.6l113.7-113.8.2.1a161 161 0 0 1 227.3 0l113.9-113.9a322 322 0 0 0-455.1 0" data-name="Pfad 5966"/>
  </g>
</svg>
