<?xml version="1.0" encoding="UTF-8" standalone="no"?>
<svg
   version="1.1"
   id="Layer_1"
   x="0px"
   y="0px"
   viewBox="0 0 1150 1450"
   style="enable-background:new 0 0 1150 1450;"
   xml:space="preserve"
   sodipodi:docname="DDC_logo_final.svg"
   inkscape:version="1.2.2 (b0a8486541, 2022-12-01)"
   xmlns:inkscape="http://www.inkscape.org/namespaces/inkscape"
   xmlns:sodipodi="http://sodipodi.sourceforge.net/DTD/sodipodi-0.dtd"
   xmlns="http://www.w3.org/2000/svg"
   xmlns:svg="http://www.w3.org/2000/svg"><sodipodi:namedview
   id="namedview70"
   pagecolor="#ffffff"
   bordercolor="#000000"
   borderopacity="0.25"
   inkscape:showpageshadow="2"
   inkscape:pageopacity="0.0"
   inkscape:pagecheckerboard="0"
   inkscape:deskcolor="#d1d1d1"
   showgrid="false"
   inkscape:zoom="0.4603509"
   inkscape:cx="94.493136"
   inkscape:cy="797.21795"
   inkscape:window-width="2256"
   inkscape:window-height="1373"
   inkscape:window-x="0"
   inkscape:window-y="40"
   inkscape:window-maximized="1"
   inkscape:current-layer="g38" />
    <style
   type="text/css"
   id="style2">
        .st0{fill:#D1D3D4;}
        .st1{filter:url(#filter-3);}
        .st2{fill-rule:evenodd;clip-rule:evenodd;}
        .st3{fill-rule:evenodd;clip-rule:evenodd;fill:url(#path-2_00000090995507327034007410000000414460788678118283_);}
        .st4{fill:#16A649;}
        .st5{fill-rule:evenodd;clip-rule:evenodd;fill:#D1D3D4;}
        .st6{fill-rule:evenodd;clip-rule:evenodd;fill:url(#Combined-Shape_00000038414333652618959120000003945422266557693886_);}
    </style>
    <defs
   id="defs11">
        <filter
   filterUnits="objectBoundingBox"
   height="1.0762473"
   id="filter-3"
   width="1.0701413"
   x="-0.035070628"
   y="-0.029835903">
            <feOffset
   dx="0"
   dy="20"
   in="SourceAlpha"
   result="shadowOffsetOuter1"
   id="feOffset4" />
            <feGaussianBlur
   in="shadowOffsetOuter1"
   result="shadowBlurOuter1"
   stdDeviation="15"
   id="feGaussianBlur6" />
            <feColorMatrix
   in="shadowBlurOuter1"
   type="matrix"
   values="0 0 0 0 0   0 0 0 0 0   0 0 0 0 0  0 0 0 0.2 0"
   id="feColorMatrix8" />
        </filter>
    </defs>
    
    <g
   id="Logo-2_00000139294259798876540780000014702816247298430350_">
        <g
   id="Domibus_logo_icon_2_00000163792379194473392450000012194212458687173786_">
            <g
   id="Group-2_00000142881346159597235920000015977444324486069433_"
   transform="translate(94.000000, 111.000000)">
                <g
   id="D_00000062901120920470764530000009793373610955990433_">
                    <g
   class="st1"
   id="g30"
   transform="matrix(1.0592909,0,0,1.0769374,5.1405233,9.3863633)">
                        <path
   id="path-2_00000096054840819273184880000011341841330119748754_"
   class="st2"
   d="m -50.7,1090.6 c 0,16.6 13.4,30 30,30 h 381.3 c 372.2,0 615.2,-224.3 615.2,-605 C 975.8,134.9 732.7,-86 360.5,-86 H -20.7 c -16.6,0 -30,13.4 -30,30 z" />
                    </g>
                    <g
   id="g38">

                        <linearGradient
   id="path-2_00000114058876892928042420000014911247890883673774_"
   gradientUnits="userSpaceOnUse"
   x1="-1482.1952"
   y1="1274.5826"
   x2="-1482.1952"
   y2="1273.5826"
   gradientTransform="matrix(1087.2816,0,0,-1299.3874,1612058.5,1656093.5)"><stop
   offset="0.02508262"
   style="stop-color:#a71616;stop-opacity:1;"
   id="stop974" /><stop
   offset="0.30000001"
   style="stop-color:#a71616;stop-opacity:1;"
   id="stop1573" />
                            <stop
   offset="0.33000001"
   style="stop-color:#16a748;stop-opacity:1;"
   id="stop32" />
                            <stop
   offset="0.66000003"
   style="stop-color:#16A649"
   id="stop34" /><stop
   offset="0.69999999"
   style="stop-color:#009ff0;stop-opacity:1;"
   id="stop2195" /><stop
   offset="0.97056544"
   style="stop-color:#0077b2;stop-opacity:1;"
   id="stop976" />
                        </linearGradient>

                        <path
   id="path-2_00000027562528893828484510000011407111472533212078_"
   style="clip-rule:evenodd;fill:url(#path-2_00000114058876892928042420000014911247890883673774_);fill-rule:evenodd;stroke-width:1.06808"
   d="m -48.565527,1183.8943 c 0,17.8772 14.194499,32.3081 31.778728,32.3081 H 387.12083 c 394.26808,0 651.67577,-241.55704 651.67577,-651.54711 0,-409.99007 -257.51361,-647.885543 -651.7817,-647.885543 H -16.786799 c -17.584229,0 -31.778728,14.430961 -31.778728,32.308122 z" />
                    </g>
                </g>
            </g>
        </g>
    </g>
    
    <g
   id="Group-7_00000067929487017280736170000015420606275253407386_"
   transform="matrix(1.0592909,0,0,1.0769374,267.33869,379.00994)">
        <path
   id="Combined-Shape_00000020387801657406628370000008839165578523035278_"
   class="st5"
   d="m 526.4,420.7 v 188.8 c 0,5.5 -3.7,7.5 -8.2,4.3 L 357.5,503.3 H 50.3 c -5.5,0 -10,-4.5 -10,-10 V 41 c 0,-5.5 4.5,-10 10,-10 h 466.1 c 5.5,0 10,4.5 10,10 z M 343.6,228.1 c 0,-33.5 -27.1,-60.7 -60.7,-60.7 -33.6,0 -60.7,27.1 -60.7,60.7 0,22.2 12.6,40.8 30.3,51.4 v 100.3 c 0,16.8 13.6,30.3 30.3,30.3 16.7,0 30.3,-13.6 30.3,-30.3 V 279.5 C 331,269 343.6,250.4 343.6,228.1 Z" />
    </g>
    <g
   id="Group-7_00000013884621388168510600000012836380883070142374_"
   transform="matrix(1.0592909,0,0,1.0769374,267.33869,379.00994)">

        <linearGradient
   id="Combined-Shape_00000170275789378055809300000014917459379918601917_"
   gradientUnits="userSpaceOnUse"
   x1="-1207.4255"
   y1="901.28522"
   x2="-1207.4255"
   y2="900.28522"
   gradientTransform="matrix(486.1128,0,0,-584.2837,587228.38,526631.25)">
            <stop
   offset="0"
   style="stop-color:#FFFFFF"
   id="stop62" />
            <stop
   offset="1"
   style="stop-color:#E8E8E8"
   id="stop64" />
        </linearGradient>

        <path
   id="Combined-Shape_00000178192248165113663240000001698648611011453618_"
   style="clip-rule:evenodd;fill:url(#Combined-Shape_00000170275789378055809300000014917459379918601917_);fill-rule:evenodd"
   d="m 343.6,222.1 c 0,-33.5 -27.1,-60.7 -60.7,-60.7 -33.6,0 -60.7,27.1 -60.7,60.7 0,22.2 12.6,40.8 30.3,51.4 v 100.3 c 0,16.8 13.6,30.3 30.3,30.3 16.7,0 30.3,-13.6 30.3,-30.3 V 273.5 C 331,263 343.6,244.4 343.6,222.1 Z m 182.8,192.6 v 188.8 c 0,5.5 -3.7,7.5 -8.2,4.3 L 357.5,497.3 H 50.3 c -5.5,0 -10,-4.5 -10,-10 V 35 c 0,-5.5 4.5,-10 10,-10 h 466.1 c 5.5,0 10,4.5 10,10 z" />
    </g>
</svg>
