
        <svg xmlns="http://www.w3.org/2000/svg" xmlns:xlink="http://www.w3.org/1999/xlink" version="1.1" width="3159.985654232786" 
        height="605.8263764291752" viewBox="0 0 3159.985654232786 605.8263764291752">
			
			<g transform="scale(7.999282711639306) translate(10, 10)">
				<defs id="SvgjsDefs1094"></defs><g id="SvgjsG1095" featureKey="monogramFeature-0" transform="matrix(5.016704082489014,0,0,5.016704082489014,0,-45.36771004697486)" fill="#3a8500"><path d="M2 10.04 l0 7.98 l1.98 0 l0 2 l-3.98 0 l0 -9.98 l2 0 z M9.96 10.04 l0 9.98 l-3.98 0 l0 -2 l1.98 0 l0 -7.98 l2 0 z M5.98 14.02 l0 4 l-2 0 l0 -4 l2 0 z"></path></g><g id="SvgjsG1096" featureKey="Q4qmbg-0" transform="matrix(3.5578601360321045,0,0,3.5578601360321045,74.28842693823927,-16.347161315462536)" fill="#3a8500"><path d="M17.4 6 l2.28 0 l-4.34 14 l-2.28 0 l-3.12 -10.4 l-3.14 10.4 l-2.28 0 l-4.32 -14 l2.28 0 l3.24 10.98 l3.24 -10.98 l1.96 0 l3.24 10.96 z M31.041958333333334 20 l-1.34 -3.4 l-6.66 0 l-1.34 3.4 l-2.26 0 l5.54 -14 l2.78 0 l5.54 14 l-2.26 0 z M23.781958333333332 14.68 l5.18 0 l-2.58 -6.62 z M36.44391666666667 18 l7.36 0 l0 2 l-9.54 0 l0 -14 l2.18 0 l0 12 z M50.805875 6 c4.2 0 6.8 2.94 6.8 7 c0 4.04 -2.56 7 -6.8 7 l-5.7 0 l0 -14 l5.7 0 z M50.765875 18.04 c2.9 0 4.66 -2.14 4.66 -5.08 c0 -2.88 -1.76 -5 -4.66 -5 l-3.5 0 l0 10.08 l3.5 0 z M68.66783333333333 6 l2.2 0 l0 8.34 c0 3.52 -2.14 5.92 -5.92 5.92 s-5.9 -2.4 -5.9 -5.92 l0 -8.34 l2.18 0 l0 8.3 c0 2.32 1.26 3.96 3.72 3.96 s3.72 -1.64 3.72 -3.96 l0 -8.3 z M82.02979166666667 20 l-3.42 -5.2 l-3.54 0 l0 5.2 l-2.16 0 l0 -14 l6.66 0 c2.96 0 4.6 2.28 4.6 4.42 c0 1.84 -1.14 3.64 -3.26 4.2 l3.62 5.38 l-2.5 0 z M75.06979166666667 7.9399999999999995 l0 4.94 l4.38 0 c1.64 0 2.62 -1.16 2.62 -2.46 s-1 -2.48 -2.56 -2.48 l-4.44 0 z"></path></g><g id="SvgjsG1097" featureKey="Q4qmbg-1" transform="matrix(1.100000023841858,0,0,1.100000023841858,75,66)" fill="#3a8500"><path d=""></path></g>
			</g>
		</svg>
	