<svg width="120" height="120" viewBox="0 0 120 120" fill="none" xmlns="http://www.w3.org/2000/svg">
<mask id="mask0_247_22124" style="mask-type:alpha" maskUnits="userSpaceOnUse" x="0" y="0" width="30" height="120">
<path d="M0 0.999999C0 0.447714 0.447715 0 1 0H15C23.2843 0 30 6.71573 30 15V119C30 119.552 29.5523 120 29 120H15C6.71573 120 0 113.284 0 105V0.999999Z" fill="#41B25F"/>
</mask>
<g mask="url(#mask0_247_22124)">
<rect x="-8" y="-4" width="52" height="129" fill="#0D212E"/>
</g>
<mask id="mask1_247_22124" style="mask-type:alpha" maskUnits="userSpaceOnUse" x="90" y="0" width="30" height="120">
<path d="M90 15C90 6.71573 96.7157 0 105 0H119C119.552 0 120 0.447715 120 1V105C120 113.284 113.284 120 105 120H91C90.4477 120 90 119.552 90 119V15Z" fill="#27376A"/>
</mask>
<g mask="url(#mask1_247_22124)">
<rect x="75" y="-1" width="52" height="132" fill="#0D212E"/>
<path d="M197 118.5C197 108.323 194.724 98.2448 190.301 88.842C185.879 79.4393 179.397 70.8958 171.225 63.6992C163.054 56.5027 153.353 50.7941 142.676 46.8993C131.999 43.0046 120.556 41 109 41C97.4437 41 86.0005 43.0046 75.3239 46.8993C64.6472 50.7941 54.9462 56.5027 46.7746 63.6992C38.603 70.8958 32.121 79.4393 27.6986 88.842C23.2762 98.2448 21 108.323 21 118.5L109 118.5H197Z" fill="#41B25F"/>
<path d="M200 120.5C200 110.323 197.827 100.245 193.606 90.842C189.384 81.4393 183.197 72.8958 175.397 65.6992C167.597 58.5027 158.337 52.7941 148.145 48.8993C137.954 45.0046 127.031 43 116 43C104.969 43 94.0459 45.0046 83.8546 48.8993C73.6632 52.7941 64.4031 58.5027 56.603 65.6992C48.8029 72.8958 42.6155 81.4393 38.3941 90.842C34.1727 100.245 32 110.323 32 120.5L116 120.5H200Z" fill="#41B298"/>
<path d="M216 120.5C216 110.323 213.827 100.245 209.606 90.842C205.384 81.4393 199.197 72.8958 191.397 65.6992C183.597 58.5027 174.337 52.7941 164.145 48.8993C153.954 45.0046 143.031 43 132 43C120.969 43 110.046 45.0046 99.8546 48.8993C89.6632 52.7941 80.4031 58.5027 72.603 65.6992C64.8029 72.8958 58.6155 81.4393 54.3941 90.842C50.1727 100.245 48 110.323 48 120.5L132 120.5H216Z" fill="#4194B2"/>
<path d="M235 120.5C235 110.323 232.827 100.245 228.606 90.842C224.384 81.4393 218.197 72.8958 210.397 65.6992C202.597 58.5027 193.337 52.7941 183.145 48.8993C172.954 45.0046 162.031 43 151 43C139.969 43 129.046 45.0046 118.855 48.8993C108.663 52.7941 99.4031 58.5027 91.603 65.6992C83.8029 72.8958 77.6155 81.4393 73.3941 90.842C69.1727 100.245 67 110.323 67 120.5L151 120.5H235Z" fill="#415CB2"/>
<path d="M249.5 120.5C249.5 110.323 247.327 100.245 243.106 90.842C238.884 81.4393 232.697 72.8958 224.897 65.6992C217.097 58.5027 207.837 52.7941 197.645 48.8993C187.454 45.0046 176.531 43 165.5 43C154.469 43 143.546 45.0046 133.355 48.8993C123.163 52.7941 113.903 58.5027 106.103 65.6992C98.3029 72.8958 92.1155 81.4393 87.8941 90.842C83.6727 100.245 81.5 110.323 81.5 120.5L165.5 120.5H249.5Z" fill="#0D212E"/>
</g>
<mask id="mask2_247_22124" style="mask-type:alpha" maskUnits="userSpaceOnUse" x="15" y="75" width="90" height="45">
<path d="M105 120C105 114.091 103.836 108.239 101.575 102.779C99.3131 97.3196 95.9984 92.3588 91.8198 88.1802C87.6412 84.0016 82.6804 80.6869 77.2208 78.4254C71.7611 76.164 65.9095 75 60 75C54.0905 75 48.2389 76.164 42.7792 78.4254C37.3196 80.6869 32.3588 84.0016 28.1802 88.1802C24.0016 92.3588 20.6869 97.3196 18.4254 102.779C16.164 108.239 15 114.091 15 120H35.9501C36.5024 120 36.9478 119.552 36.9718 119C37.0884 116.315 37.674 113.667 38.7047 111.179C39.863 108.383 41.5609 105.842 43.7012 103.701C45.8416 101.561 48.3826 99.863 51.1792 98.7047C53.9757 97.5463 56.973 96.9501 60 96.9501C63.027 96.9501 66.0243 97.5463 68.8208 98.7047C71.6174 99.863 74.1584 101.561 76.2988 103.701C78.4391 105.842 80.137 108.383 81.2953 111.179C82.326 113.667 82.9116 116.315 83.0282 119C83.0522 119.552 83.4976 120 84.0499 120H105Z" fill="#0D212E"/>
</mask>
<g mask="url(#mask2_247_22124)">
<path d="M189 120.5C189 110.323 186.724 100.245 182.301 90.842C177.879 81.4393 171.397 72.8958 163.225 65.6992C155.054 58.5027 145.353 52.7941 134.676 48.8993C123.999 45.0046 112.556 43 101 43C89.4437 43 78.0005 45.0046 67.3239 48.8993C56.6472 52.7941 46.9462 58.5027 38.7746 65.6992C30.603 72.8958 24.121 81.4393 19.6986 90.842C15.2762 100.245 13 110.323 13 120.5L101 120.5H189Z" fill="#41B25F"/>
<path d="M200 120.5C200 110.323 197.827 100.245 193.606 90.842C189.384 81.4393 183.197 72.8958 175.397 65.6992C167.597 58.5027 158.337 52.7941 148.145 48.8993C137.954 45.0046 127.031 43 116 43C104.969 43 94.0459 45.0046 83.8546 48.8993C73.6632 52.7941 64.4031 58.5027 56.603 65.6992C48.8029 72.8958 42.6155 81.4393 38.3941 90.842C34.1727 100.245 32 110.323 32 120.5L116 120.5H200Z" fill="#41B298"/>
<path d="M216 120.5C216 110.323 213.827 100.245 209.606 90.842C205.384 81.4393 199.197 72.8958 191.397 65.6992C183.597 58.5027 174.337 52.7941 164.145 48.8993C153.954 45.0046 143.031 43 132 43C120.969 43 110.046 45.0046 99.8546 48.8993C89.6632 52.7941 80.4031 58.5027 72.603 65.6992C64.8029 72.8958 58.6155 81.4393 54.3941 90.842C50.1727 100.245 48 110.323 48 120.5L132 120.5H216Z" fill="#4194B2"/>
<path d="M235 120.5C235 110.323 232.827 100.245 228.606 90.842C224.384 81.4393 218.197 72.8958 210.397 65.6992C202.597 58.5027 193.337 52.7941 183.145 48.8993C172.954 45.0046 162.031 43 151 43C139.969 43 129.046 45.0046 118.855 48.8993C108.663 52.7941 99.4031 58.5027 91.603 65.6992C83.8029 72.8958 77.6155 81.4393 73.3941 90.842C69.1727 100.245 67 110.323 67 120.5L151 120.5H235Z" fill="#415CB2"/>
<path d="M249.5 120.5C249.5 110.323 247.327 100.245 243.106 90.842C238.884 81.4393 232.697 72.8958 224.897 65.6992C217.097 58.5027 207.837 52.7941 197.645 48.8993C187.454 45.0046 176.531 43 165.5 43C154.469 43 143.546 45.0046 133.355 48.8993C123.163 52.7941 113.903 58.5027 106.103 65.6992C98.3029 72.8958 92.1155 81.4393 87.8941 90.842C83.6727 100.245 81.5 110.323 81.5 120.5L165.5 120.5H249.5Z" fill="#0D212E"/>
</g>
</svg>
