<?xml version="1.0" encoding="UTF-8" standalone="no"?>
<!-- Created with Inkscape (http://www.inkscape.org/) -->

<svg
   width="60mm"
   height="60mm"
   viewBox="0 0 60 60"
   version="1.1"
   id="svg1"
   inkscape:version="1.4.2 (f4327f4, 2025-05-13)"
   sodipodi:docname="xmas-plugin.svg"
   inkscape:export-filename="xmas-plugin.png"
   inkscape:export-xdpi="81.279999"
   inkscape:export-ydpi="81.279999"
   xmlns:inkscape="http://www.inkscape.org/namespaces/inkscape"
   xmlns:sodipodi="http://sodipodi.sourceforge.net/DTD/sodipodi-0.dtd"
   xmlns:xlink="http://www.w3.org/1999/xlink"
   xmlns="http://www.w3.org/2000/svg"
   xmlns:svg="http://www.w3.org/2000/svg">
  <sodipodi:namedview
     id="namedview1"
     pagecolor="#ffffff"
     bordercolor="#000000"
     borderopacity="0.25"
     inkscape:showpageshadow="2"
     inkscape:pageopacity="0.0"
     inkscape:pagecheckerboard="0"
     inkscape:deskcolor="#d1d1d1"
     inkscape:document-units="mm"
     inkscape:zoom="2.0792508"
     inkscape:cx="73.343726"
     inkscape:cy="67.572416"
     inkscape:window-width="3440"
     inkscape:window-height="1369"
     inkscape:window-x="-8"
     inkscape:window-y="-8"
     inkscape:window-maximized="1"
     inkscape:current-layer="layer1" />
  <defs
     id="defs1">
    <linearGradient
       id="linearGradient1"
       inkscape:collect="always">
      <stop
         style="stop-color:#93b023;stop-opacity:1;"
         offset="0"
         id="stop1" />
      <stop
         style="stop-color:#589632;stop-opacity:1;"
         offset="1"
         id="stop2" />
    </linearGradient>
    <clipPath
       clipPathUnits="userSpaceOnUse"
       id="clipPath8">
      <path
         d="M 0,189.205 H 616.5 V 0 H 0 Z"
         transform="translate(-175.314,-94.601405)"
         id="path8" />
    </clipPath>
    <clipPath
       clipPathUnits="userSpaceOnUse"
       id="clipPath10">
      <path
         d="M 0,189.205 H 616.5 V 0 H 0 Z"
         transform="translate(-105.2752,-132.3243)"
         id="path10" />
    </clipPath>
    <clipPath
       clipPathUnits="userSpaceOnUse"
       id="clipPath12">
      <path
         d="M 0,189.205 H 616.5 V 0 H 0 Z"
         transform="translate(-84.260402,-95.3537)"
         id="path12" />
    </clipPath>
    <clipPath
       clipPathUnits="userSpaceOnUse"
       id="clipPath14">
      <path
         d="M 0,189.205 H 616.5 V 0 H 0 Z"
         transform="translate(-89.142505,-96.3395)"
         id="path14" />
    </clipPath>
    <clipPath
       clipPathUnits="userSpaceOnUse"
       id="clipPath16">
      <path
         d="M 0,189.205 H 616.5 V 0 H 0 Z"
         transform="translate(-136.2484,-100.70251)"
         id="path16" />
    </clipPath>
    <linearGradient
       inkscape:collect="always"
       xlink:href="#linearGradient1"
       id="linearGradient2"
       x1="-83.071503"
       y1="83.0755"
       x2="-83.071503"
       y2="-83.067505"
       gradientUnits="userSpaceOnUse" />
  </defs>
  <g
     inkscape:label="Ebene 1"
     inkscape:groupmode="layer"
     id="layer1"
     transform="translate(-115.35834,-174.88958)">
    <path
       id="path7"
       d="m 0,0 c 0,-45.879 -37.194,-83.065 -83.073,-83.065 -45.881,0 -83.07,37.186 -83.07,83.065 0,45.884 37.189,83.073 83.07,83.073 C -37.194,83.073 0,45.884 0,0"
       style="fill:url(#linearGradient2);fill-opacity:1;fill-rule:nonzero;stroke:none"
       transform="matrix(0.35277776,0,0,-0.35277776,174.73339,204.95939)"
       clip-path="url(#clipPath8)" />
    <path
       id="path9"
       d="m 0,0 -21.015,-30.683 -40.828,46.834 h 48.131 z"
       style="fill:#ffffff;fill-opacity:1;fill-rule:nonzero;stroke:none"
       transform="matrix(0.35277776,0,0,-0.35277776,150.02526,191.65159)"
       clip-path="url(#clipPath10)" />
    <path
       id="path11"
       d="m 0,0 -38.045,-56.46 h 46.51 l 17.992,25.803 z"
       style="fill:#ffffff;fill-opacity:1;fill-rule:nonzero;stroke:none"
       transform="matrix(0.35277776,0,0,-0.35277776,142.61171,204.69399)"
       clip-path="url(#clipPath12)" />
    <path
       id="path13"
       d="m 0,0 51.102,-59.109 c 9.539,7.993 17.051,18.317 21.676,30.085 L 47.589,0.337 Z"
       style="fill:#ffffff;fill-opacity:1;fill-rule:nonzero;stroke:none"
       transform="matrix(0.35277776,0,0,-0.35277776,144.334,204.34623)"
       clip-path="url(#clipPath14)" />
    <path
       id="path15"
       d="M 0,0 21.061,30.825 C 14.324,42.648 4.467,52.463 -7.391,59.144 L -47.098,0 Z"
       style="fill:#ffffff;fill-opacity:1;fill-rule:nonzero;stroke:none"
       transform="matrix(0.35277776,0,0,-0.35277776,160.95192,202.80705)"
       clip-path="url(#clipPath16)" />
  </g>
</svg>
