<svg width="137" height="137" viewBox="0 0 137 137" fill="none" xmlns="http://www.w3.org/2000/svg">
<path d="M43.7345 72.8535C43.7345 72.8535 42.0857 75.3545 38.4525 76.0158C34.8189 76.6775 31.8019 76.3919 30.9549 76.3467C30.108 76.3015 29.3963 77.9054 30.0578 78.6568C30.7194 79.4086 33.9419 83.5032 36.2824 84.0796C40.1013 85.0219 43.454 85.2123 45.4789 84.691C47.5034 84.1697 50.5705 82.4761 50.5705 82.4761L44.4363 72.8535H43.7297H43.7345Z" fill="white"/>
<path d="M43.2431 72.0715C43.2431 72.0715 39.329 57.9437 39.5143 51.8144C39.6999 45.6853 39.7749 42.1922 39.9154 41.6959C40.0558 41.1996 38.3919 38.2277 39.5095 37.3109C40.6271 36.3936 43.4537 36.7444 44.4459 37.7366C44.4459 37.7366 53.0057 35.8271 57.1102 35.6871C61.2147 35.5466 70.5516 36.9598 70.5516 36.9598C70.5516 36.9598 74.937 35.7569 76.0697 35.9676C77.202 36.1782 78.475 38.799 78.6155 39.3655C78.7559 39.9317 81.3017 54.7212 81.4469 57.6882C81.5925 60.655 85.1956 77.6645 85.1956 77.6645L93.8961 83.9593C93.8961 83.9593 97.7852 86.9062 98.5668 87.5426C99.3487 88.1789 101.819 89.8079 101.328 91.2912C100.837 92.775 98.9928 93.2709 98.9928 93.2709C98.9928 93.2709 102.741 95.5362 103.594 96.4534C104.445 97.3706 104.796 98.7187 103.594 99.2146C102.391 99.7109 93.6855 101.535 91.1397 101.43C88.5935 101.325 56.3286 88.3194 56.3286 88.3194L43.2379 72.0715H43.2431Z" fill="#F47B8A"/>
<path d="M60.6031 101.541C60.6031 101.541 60.4476 104.552 60.6328 108.036C60.7383 109.99 60.9486 112.095 61.3545 113.904" stroke="#8F0026" stroke-width="1.46326" stroke-miterlimit="10"/>
<path d="M60.633 108.036C59.4603 109.174 53.5967 113.033 53.5967 113.033" stroke="#8F0026" stroke-width="1.46326" stroke-miterlimit="10"/>
<path d="M66.9428 111.964C66.9428 111.964 61.3597 109.043 60.6631 108.241" stroke="#8F0026" stroke-width="1.46326" stroke-miterlimit="10"/>
<path d="M78.8301 105.906C78.8301 105.906 79.8223 112.842 80.1532 114.205C80.484 115.569 80.9101 117.132 80.9101 117.132" stroke="#8F0026" stroke-width="1.46326" stroke-miterlimit="10"/>
<path d="M73.5938 115.057C73.5938 115.057 78.9614 112.18 79.6728 111.519" stroke="#8F0026" stroke-width="1.46326" stroke-miterlimit="10"/>
<path d="M85.0104 114.48C85.0104 114.48 79.6729 112.02 79.6729 111.579" stroke="#8F0026" stroke-width="1.46326" stroke-miterlimit="10"/>
<path d="M43.2434 72.0714C43.1581 71.8759 45.7892 71.2244 47.5582 72.0714C49.3276 72.9184 52.3697 79.7143 53.006 81.0573C53.006 81.0573 61.9919 80.7014 65.46 80.3507C68.9282 80 71.8298 78.7218 71.8298 78.7218C71.8298 78.7218 70.9078 70.7984 70.7674 69.5253C70.627 68.2526 70.978 64.2881 71.8298 63.9374C72.682 63.5867 74.5161 63.0154 75.5083 63.301C76.5009 63.5867 78.3401 78.3008 78.3401 78.3008C78.3401 78.3008 84.7099 77.8748 85.201 77.6645C85.6922 77.4538 92.984 83.3976 93.9012 83.9589C93.9012 83.9589 90.5735 91.0357 91.14 101.435C91.14 101.435 84.3489 101.079 83.853 101.435C83.3567 101.791 83.7125 105.609 83.4269 105.965C83.1412 106.321 78.2599 106.321 77.6232 106.321C76.9869 106.321 73.6591 106.747 73.2382 106.321C72.8173 105.895 72.0353 100.026 72.0353 100.026L66.8684 98.047C66.8684 98.047 67.1489 101.375 66.7982 101.515C66.4475 101.655 55.9731 101.445 55.1963 101.585C54.4195 101.725 54.4894 88.1439 54.4894 88.1439C54.4894 88.1439 45.5738 77.5292 43.2383 72.0814L43.2434 72.0714Z" fill="#04954D"/>
<path d="M72.1299 67.191C72.185 65.7625 75.7131 61.9086 77.9784 61.1517C80.2437 60.3951 84.7695 59.9239 88.8288 61.7182C92.8881 63.5122 97.0378 70.303 98.5466 72.0021C100.055 73.7009 102.511 76.9084 103.638 77.6602C104.766 78.412 107.222 79.2641 107.317 80.0207C107.412 80.7777 108.164 81.5294 106.28 82.3812C104.395 83.2334 100.18 84.2958 96.0908 83.4187C92.001 82.5415 88.1671 81.5342 86.1878 80.4016C84.2081 79.2689 76.0943 73.7362 74.2047 72.1172C72.3155 70.4985 72.0799 68.5292 72.1299 67.1958V67.191Z" fill="white"/>
<path d="M59.2443 42.2273C60.0211 41.8714 63.4191 39.8219 68.3706 40.1024C73.3221 40.3829 76.72 43.7106 77.2865 48.3817C77.8527 53.0527 77.8527 57.6483 74.2445 60.4798C70.6359 63.3116 66.5313 65.5015 59.2443 65.4313C51.9576 65.3611 49.3413 63.8726 45.4474 60.1239C41.5532 56.3753 41.483 48.8728 44.1743 45.6201C46.8657 42.3677 49.4817 39.7668 54.0072 40.0723C58.5326 40.3781 59.2443 42.2225 59.2443 42.2225V42.2273Z" fill="white"/>
<path d="M62.3936 47.2891C62.3936 47.2891 63.5611 50.6521 64.0225 50.5065C64.4835 50.3613 65.6511 47.2891 65.6511 47.2891" stroke="#E11537" stroke-width="1.46326" stroke-miterlimit="10"/>
<path d="M52.7754 47.9858C52.7754 47.9858 53.943 51.3488 54.404 51.2036C54.8653 51.0581 56.0329 47.9858 56.0329 47.9858" stroke="#E11537" stroke-width="1.46326" stroke-miterlimit="10"/>
<path d="M58.8188 51.9201C59.8062 51.8749 60.7282 52.5564 60.5878 54.2905C60.4477 56.0246 60.2823 58.781 59.9415 59.2068C59.6007 59.6328 59.3151 59.7733 58.8239 59.6328C58.3328 59.4924 57.6913 54.8919 57.6211 54.3607C57.5508 53.8295 57.3405 51.9899 58.8239 51.9201H58.8188Z" fill="#E11537"/>
<path d="M39.6797 80.236C39.6797 80.236 41.4737 81.4639 42.0851 80.9676C42.6964 80.4716 41.4939 78.3516 41.4939 78.3516" stroke="#E11537" stroke-width="1.46326" stroke-miterlimit="10"/>
<path d="M79.0059 68.5581C79.0059 68.5581 80.5293 70.4727 81.2712 70.2922C82.0127 70.112 81.8024 68.5581 81.8024 68.5581" stroke="#E11537" stroke-width="1.46326" stroke-miterlimit="10"/>
<path d="M85.1963 65.7678C85.1963 65.7678 86.0084 67.4316 87.0355 67.2511C88.063 67.0706 87.7774 65.2715 87.7774 65.2715" stroke="#E11537" stroke-width="1.46326" stroke-miterlimit="10"/>
<path d="M88.5586 73.019C88.5586 73.019 90.1526 75.8156 90.6085 75.4946C91.0647 75.1741 91.1047 73.019 91.1047 73.019" stroke="#E11537" stroke-width="1.46326" stroke-miterlimit="10"/>
<path d="M56.3544 35.6724C56.3544 35.6724 54.4449 30.1046 57.1311 28.125C59.8174 26.1454 60.8798 26.4962 60.8798 26.4962" stroke="#04954D" stroke-width="1.46326" stroke-miterlimit="10"/>
<path d="M63.6401 19.9562C64.6326 20.3421 65.4444 21.2642 64.5624 22.7176C63.6805 24.171 62.653 25.3688 62.653 25.3688C62.653 25.3688 66.0509 25.2836 67.1435 26.4764C68.2361 27.6691 68.8074 29.1526 67.3891 29.6487C65.9708 30.1449 63.3897 28.446 62.6479 28.1252C61.9063 27.8044 60.1973 26.5265 60.1973 26.5265C60.1973 26.5265 60.3123 22.888 60.8788 21.5098C61.445 20.1316 62.8684 19.6505 63.6401 19.9512V19.9562Z" fill="#04954D"/>
<path d="M54.4893 88.1343C54.4893 88.1343 65.5047 98.8895 72.0352 100.022V96.4838" stroke="#005C3E" stroke-width="1.46326" stroke-miterlimit="10"/>
<path d="M63.69 82.8973C65.113 82.5867 66.1655 83.4285 66.271 84.17C66.271 84.17 67.7945 82.8973 69.4532 84.17C71.1123 85.4431 70.6913 87.919 69.4532 88.1345C69.4532 88.1345 71.0821 90.47 69.4885 91.5674C67.8948 92.6651 66.9074 92.2041 66.4464 91.7427C66.4464 91.7427 65.7045 93.086 63.0132 92.5195C60.3222 91.9534 61.986 89.5476 61.986 89.5476C61.986 89.5476 60.5376 89.2271 60.0064 88.4852C59.4751 87.7437 60.0766 86.6809 60.6427 86.185C61.2092 85.6887 62.4117 85.8641 62.4117 85.8641C62.4117 85.8641 61.7404 84.8718 62.0562 84.2002C62.3717 83.5289 62.868 83.0675 63.6848 82.8922L63.69 82.8973Z" fill="#FBDAE5"/>
<path d="M64.8184 87.5225L66.2819 89.1963" stroke="#E11537" stroke-width="1.90224" stroke-miterlimit="10"/>
<path d="M66.2817 87.5225L64.7031 89.4319" stroke="#E11537" stroke-width="1.90224" stroke-miterlimit="10"/>
<path d="M64.3018 88.5851C64.397 88.5851 66.7325 88.3594 66.7325 88.3594" stroke="#E11537" stroke-width="1.90224" stroke-miterlimit="10"/>
</svg>
