<?xml version="1.0" encoding="utf-8"?>
<!-- Generator: Adobe Illustrator 22.0.1, SVG Export Plug-In . SVG Version: 6.00 Build 0)  -->
<svg version="1.1" id="Ebene_1" xmlns="http://www.w3.org/2000/svg" xmlns:xlink="http://www.w3.org/1999/xlink" x="0px" y="0px"
	 viewBox="0 0 135.5 45.1" style="enable-background:new 0 0 135.5 45.1;" xml:space="preserve">
<style type="text/css">
	.st0{fill:#575756;stroke:#575756;stroke-miterlimit:10;}
	.st1{fill:#88BCE7;}
	.st2{fill:#F6F6F6;}
	.st3{fill:#2581C4;}
	.st4{fill:#9D9D9C;}
	.st5{fill:#575756;}
</style>
<g>
	<path class="st0" d="M34.6,8.5h13.2v3.4h-8.5v5.3h8v3.4h-8v9.5h-4.8V8.5z"/>
	<path class="st0" d="M52.7,8.5h4.7c1.7,0,3,0,4.1,0.1c1.1,0.1,2.1,0.3,3,0.7c0.9,0.4,1.7,1,2.2,1.8c0.5,0.8,0.8,1.9,0.8,3.3
		c0,1.3-0.4,2.4-1.2,3.3c-0.8,0.9-1.9,1.5-3.3,1.7v0.1c0.5,0,1,0.3,1.3,0.7c0.4,0.4,0.7,0.9,1,1.6l3.5,8.5h-4.8l-2.6-6.8
		c-0.3-0.8-0.7-1.4-1.1-1.8c-0.4-0.3-1-0.5-1.9-0.5h-1.4v9h-4.3V8.5z M57.1,17.7h1.4c0.6,0,1.2,0,1.7-0.1c0.5-0.1,1-0.2,1.4-0.4
		s0.8-0.5,1.1-0.9c0.3-0.4,0.4-0.9,0.4-1.6c0-0.6-0.1-1.1-0.4-1.5c-0.3-0.4-0.6-0.7-1-0.9s-0.9-0.3-1.4-0.4
		c-0.5-0.1-1.1-0.1-1.8-0.1h-1.4V17.7z"/>
	<path class="st0" d="M75.3,11.1c1.8-2,4.5-3,7.8-3c1.7,0,3.2,0.3,4.5,0.8c1.3,0.5,2.4,1.3,3.3,2.3c0.9,1,1.6,2.2,2.1,3.5
		c0.5,1.4,0.7,2.9,0.7,4.5c0,1.7-0.2,3.2-0.7,4.5c-0.5,1.4-1.1,2.6-2,3.6c-0.9,1-2,1.8-3.3,2.3c-1.3,0.5-2.8,0.8-4.5,0.8
		c-3.4,0-6-1-7.8-3.1s-2.8-4.8-2.8-8.2C72.5,15.9,73.5,13.2,75.3,11.1z M77.4,22.2c0.2,0.9,0.6,1.8,1.1,2.5c0.5,0.7,1.1,1.3,1.9,1.8
		c0.8,0.4,1.7,0.7,2.8,0.7c1.1,0,2-0.2,2.8-0.7s1.4-1,1.9-1.8c0.5-0.7,0.8-1.6,1.1-2.5c0.2-0.9,0.3-1.9,0.3-2.9c0-1-0.1-1.9-0.4-2.9
		c-0.2-0.9-0.6-1.7-1.1-2.5c-0.5-0.7-1.1-1.3-1.9-1.7c-0.8-0.4-1.7-0.6-2.7-0.6c-1,0-1.9,0.2-2.7,0.6c-0.8,0.4-1.4,1-1.9,1.8
		c-0.5,0.7-0.9,1.6-1.1,2.5c-0.2,0.9-0.4,1.9-0.4,2.9C77.1,20.3,77.2,21.2,77.4,22.2z"/>
	<path class="st0" d="M112.3,12.5c-1.6-0.6-3.2-0.9-4.8-0.9c-0.5,0-0.9,0.1-1.3,0.2c-0.4,0.1-0.8,0.3-1.2,0.5
		c-0.4,0.2-0.7,0.5-0.9,0.9c-0.2,0.4-0.3,0.9-0.3,1.4c0,0.7,0.3,1.3,1,1.6c0.6,0.4,1.6,0.8,3,1.3c1,0.4,1.8,0.7,2.5,1
		c0.7,0.3,1.3,0.7,1.9,1.1c0.6,0.5,1.1,1.1,1.5,1.8c0.4,0.7,0.6,1.6,0.6,2.6c0,1.1-0.2,2.1-0.7,3c-0.5,0.8-1.1,1.5-1.9,2
		s-1.8,0.9-2.8,1.1c-1.1,0.2-2.2,0.4-3.5,0.4c-1.1,0-2-0.1-2.7-0.2c-0.7-0.1-1.7-0.3-2.9-0.5l-0.5-0.1l0.4-3.9
		c0.8,0.4,1.7,0.7,2.6,1c0.9,0.2,1.8,0.4,2.7,0.4c1,0,2-0.2,2.9-0.7c0.9-0.5,1.3-1.2,1.3-2.1c0-0.8-0.3-1.4-1-1.9s-1.7-0.9-3.2-1.4
		c-1-0.4-1.8-0.7-2.4-1c-0.7-0.3-1.3-0.7-1.9-1.1c-0.6-0.5-1.1-1-1.4-1.7c-0.4-0.7-0.5-1.5-0.5-2.5c0-1.2,0.2-2.2,0.7-3
		c0.5-0.8,1.1-1.5,1.9-2.1c0.8-0.5,1.7-0.9,2.6-1.2c1-0.2,2-0.4,3.1-0.4c2.1,0,4,0.3,5.7,0.8L112.3,12.5z"/>
	<path class="st0" d="M123.9,11.9h-6.2V8.5h16.7v3.4h-6.2v18.2h-4.3V11.9z"/>
</g>
<g>
	<path class="st1" d="M15.8,18.5c0,0.6-0.5,0.9-1,0.7l-13-5.1c-0.6-0.2-1-0.9-1-1.5V6.2c0-0.6,0.5-0.9,1-0.7l13,5.1
		c0.6,0.2,1,0.9,1,1.5V18.5z"/>
</g>
<polygon class="st2" points="14.5,17.9 8.6,15.6 8.6,14.2 14.5,16.4 "/>
<g>
	<path class="st1" d="M15.8,38.3c0,0.6-0.5,0.9-1,0.7l-13-5.1c-0.6-0.2-1-0.9-1-1.5V16.2c0-0.6,0.5-0.9,1-0.7l13,5.1
		c0.6,0.2,1,0.9,1,1.5V38.3z"/>
</g>
<g>
	<path class="st3" d="M28.3,32.9c0,0.6-0.4,1.3-1,1.6l-9.6,4.5c-0.5,0.3-1,0-1-0.6V12c0-0.6,0.5-1.3,1-1.5l9.6-4.2
		c0.6-0.2,1,0.1,1,0.7V32.9z"/>
</g>
<g>
	<path class="st4" d="M26,5.8c0.5-0.2,0.5-0.6,0-0.8l-11-3.8c-0.5-0.2-1.4-0.2-2,0L3.3,4.4c-0.5,0.2-0.6,0.5,0,0.7l12.1,4.7
		c0.5,0.2,1.4,0.2,1.9-0.1L26,5.8z"/>
</g>
<polygon class="st2" points="14.5,23.3 8.6,21.1 8.6,19.6 14.5,21.9 "/>
<g>
	<path class="st5" d="M93.2,35.7c-0.5-0.2-0.8-0.3-1.1-0.3c-0.3-0.1-0.6-0.1-1-0.1c-0.2,0-0.5,0-0.7,0.1c-0.2,0-0.5,0.1-0.7,0.2
		c-0.2,0.1-0.4,0.3-0.5,0.4S89,36.4,89,36.6c0,0.4,0.2,0.7,0.5,0.9c0.3,0.2,0.8,0.5,1.5,0.8l0.1,0.1c0.4,0.2,0.8,0.4,1.1,0.5
		c0.3,0.2,0.6,0.4,0.8,0.6c0.3,0.2,0.5,0.5,0.6,0.9c0.2,0.3,0.2,0.7,0.2,1.2c0,0.5-0.1,1-0.3,1.4s-0.5,0.7-0.9,1
		c-0.4,0.3-0.8,0.4-1.3,0.5c-0.5,0.1-1.1,0.2-1.7,0.2c-0.4,0-0.7,0-1.1-0.1c-0.4-0.1-0.8-0.2-1.3-0.3l0.2-1.4
		c0.4,0.1,0.7,0.2,1.2,0.4c0.4,0.1,0.8,0.2,1.2,0.2c0.3,0,0.5,0,0.8-0.1c0.3-0.1,0.5-0.2,0.7-0.3s0.4-0.3,0.5-0.5
		c0.1-0.2,0.2-0.5,0.2-0.8c0-0.5-0.2-0.9-0.6-1.2c-0.2-0.1-0.4-0.3-0.6-0.4c-0.2-0.1-0.5-0.3-0.9-0.4l-0.1-0.1
		c-0.4-0.2-0.8-0.3-1-0.5c-0.3-0.1-0.5-0.3-0.8-0.5c-0.3-0.2-0.5-0.5-0.6-0.8c-0.1-0.3-0.2-0.7-0.2-1.1c0-0.9,0.3-1.6,1-2.1
		s1.6-0.8,2.7-0.8c0.4,0,0.8,0,1.2,0.1s0.8,0.2,1.2,0.3L93.2,35.7z"/>
	<path class="st5" d="M102.8,44.3c-0.1,0-0.1,0-0.2,0.1c-0.4,0.1-0.7,0.2-1.1,0.3c-0.4,0.1-0.8,0.1-1.3,0.1c-1.5,0-2.5-0.4-3.3-1.1
		c-0.7-0.7-1.1-1.7-1.1-3c0-0.6,0.1-1.1,0.3-1.6c0.2-0.5,0.5-0.9,0.8-1.2c0.3-0.3,0.8-0.6,1.3-0.8c0.5-0.2,1-0.3,1.6-0.3
		c0.7,0,1.3,0.1,1.7,0.3c0.5,0.2,0.9,0.5,1.2,0.9s0.5,0.8,0.6,1.4s0.2,1.1,0.2,1.7h-6c0,0.4,0.1,0.7,0.2,1c0.1,0.3,0.4,0.6,0.6,0.8
		s0.6,0.4,0.9,0.5c0.3,0.1,0.7,0.2,1,0.2c0.2,0,0.5,0,0.8-0.1c0.3,0,0.5-0.1,0.8-0.2c0.2-0.1,0.5-0.2,0.6-0.3
		c0.2-0.1,0.3-0.2,0.4-0.2V44.3z M101.7,40c0-0.6-0.2-1.1-0.6-1.5c-0.4-0.4-0.9-0.6-1.5-0.6c-0.4,0-0.7,0.1-1,0.2
		c-0.3,0.1-0.5,0.3-0.7,0.5s-0.3,0.4-0.4,0.7s-0.2,0.5-0.2,0.8H101.7z"/>
	<path class="st5" d="M105.7,36.9h1.5v1.2h0c0.2-0.4,0.5-0.7,0.9-1c0.4-0.3,0.8-0.4,1.3-0.4c0.2,0,0.4,0,0.5,0c0.1,0,0.3,0,0.5,0.1
		h0v1.3c-0.2-0.1-0.5-0.1-0.9-0.1c-0.7,0-1.2,0.3-1.7,0.8c-0.4,0.6-0.6,1.3-0.6,2.3v3.5h-1.6V36.9z"/>
	<path class="st5" d="M116.1,44.6h-1.8l-3-7.6h1.7l2.3,6.2h0l2.3-6.2h1.6L116.1,44.6z"/>
	<path class="st5" d="M127.3,44.3c-0.1,0-0.1,0-0.2,0.1c-0.4,0.1-0.7,0.2-1.1,0.3c-0.4,0.1-0.8,0.1-1.3,0.1c-1.5,0-2.5-0.4-3.3-1.1
		c-0.7-0.7-1.1-1.7-1.1-3c0-0.6,0.1-1.1,0.3-1.6c0.2-0.5,0.5-0.9,0.8-1.2c0.3-0.3,0.8-0.6,1.3-0.8c0.5-0.2,1-0.3,1.6-0.3
		c0.7,0,1.3,0.1,1.7,0.3c0.5,0.2,0.9,0.5,1.2,0.9s0.5,0.8,0.6,1.4s0.2,1.1,0.2,1.7h-6c0,0.4,0.1,0.7,0.2,1c0.1,0.3,0.4,0.6,0.6,0.8
		s0.6,0.4,0.9,0.5c0.3,0.1,0.7,0.2,1,0.2c0.2,0,0.5,0,0.8-0.1c0.3,0,0.5-0.1,0.8-0.2c0.2-0.1,0.5-0.2,0.6-0.3
		c0.2-0.1,0.3-0.2,0.4-0.2V44.3z M126.3,40c0-0.6-0.2-1.1-0.6-1.5c-0.4-0.4-0.9-0.6-1.5-0.6c-0.4,0-0.7,0.1-1,0.2
		c-0.3,0.1-0.5,0.3-0.7,0.5s-0.3,0.4-0.4,0.7S122,39.8,122,40H126.3z"/>
	<path class="st5" d="M130.3,36.9h1.5v1.2h0c0.2-0.4,0.5-0.7,0.9-1c0.4-0.3,0.8-0.4,1.3-0.4c0.2,0,0.4,0,0.5,0c0.1,0,0.3,0,0.5,0.1
		h0v1.3c-0.2-0.1-0.5-0.1-0.9-0.1c-0.7,0-1.2,0.3-1.7,0.8c-0.4,0.6-0.6,1.3-0.6,2.3v3.5h-1.6V36.9z"/>
</g>
</svg>
