<svg width="106" height="30" fill="none" xmlns="http://www.w3.org/2000/svg"><mask id="prefix__a" style="mask-type:luminance" maskUnits="userSpaceOnUse" x="0" y="0" width="106" height="30"><path d="M106 0H0v29.993h106V0z" fill="#fff"/></mask><g mask="url(#prefix__a)"><path d="M40.434 21.384a1.491 1.491 0 112.983.001 1.491 1.491 0 01-2.983-.001z" fill="#000"/><path d="M58.315 21.384a1.491 1.491 0 112.983.001 1.491 1.491 0 01-2.983-.001zM76.197 21.384a1.491 1.491 0 112.983.001 1.491 1.491 0 01-2.983-.001zM94.08 21.384a1.491 1.491 0 112.982.001 1.491 1.491 0 01-2.983-.001z" fill="#BCBCBC"/><path d="M44.906 21.384a1.491 1.491 0 112.983.001 1.491 1.491 0 01-2.983-.001z" fill="#E30613"/><path d="M62.788 21.384a1.491 1.491 0 112.983.001 1.491 1.491 0 01-2.983-.001zM80.667 21.384a1.491 1.491 0 112.983.001 1.491 1.491 0 01-2.983-.001zM98.549 21.384a1.491 1.491 0 112.983.001 1.491 1.491 0 01-2.983-.001z" fill="#BCBCBC"/><path d="M49.376 21.384a1.491 1.491 0 112.983.001 1.491 1.491 0 01-2.983-.001z" fill="#F8D200"/><path d="M67.258 21.384a1.491 1.491 0 112.983.001 1.491 1.491 0 01-2.983-.001zM85.14 21.384a1.491 1.491 0 112.982.001 1.491 1.491 0 01-2.982-.001zM103.019 21.384a1.49 1.49 0 112.981 0 1.49 1.49 0 01-2.981 0zM35.964 21.384a1.491 1.491 0 112.983.001 1.491 1.491 0 01-2.983-.001zM53.846 21.384a1.491 1.491 0 112.982.001 1.491 1.491 0 01-2.982-.001zM71.728 21.384a1.491 1.491 0 112.982.001 1.491 1.491 0 01-2.982-.001zM89.61 21.384a1.491 1.491 0 112.982.001 1.491 1.491 0 01-2.983-.001z" fill="#BCBCBC"/><path d="M105.944 29.033c0-1.018-1.409-1.635-1.43-2.308a.448.448 0 01.45-.468c.256 0 .406.193.454.455.011.053.033.069.092.069h.218c.064 0 .076-.044.069-.097-.038-.43-.353-.797-.846-.797a.82.82 0 00-.846.845c0 .96 1.448 1.496 1.43 2.327-.005.332-.231.569-.541.569-.327 0-.541-.262-.579-.557-.005-.053-.038-.076-.096-.076h-.214c-.063 0-.068.048-.068.097.02.497.419.901.955.901a.945.945 0 00.955-.96m-2.619-3.103h-1.521c-.081 0-.112.033-.112.111v.135c0 .081.033.112.112.112h.455c.081 0 .101.023.101.101v3.447c0 .081.033.112.112.112h.183c.081 0 .112-.034.112-.112v-3.447c0-.08.02-.101.101-.101h.455c.081 0 .111-.033.111-.112v-.134c0-.082-.033-.112-.111-.112m-3.315 2.63l.333-1.718c.005-.039.053-.039.064 0l.332 1.719c.005.043-.01.058-.043.058h-.642c-.028 0-.054-.015-.044-.058zm-.655 1.28c-.015.082.023.108.082.108h.198c.068 0 .101-.029.116-.107l.166-.788c.01-.063.038-.076.106-.076h.696c.069 0 .091.01.107.076l.165.788c.015.081.048.107.117.107h.198c.058 0 .096-.029.081-.107l-.803-3.805c-.02-.091-.053-.106-.139-.106h-.15c-.086 0-.122.015-.14.106l-.805 3.805h.005zm-2.075-1.993V26.39c0-.08.02-.101.102-.101h.294c.247 0 .493.188.493.632v.401c0 .445-.246.628-.493.628h-.294c-.081 0-.102-.02-.102-.102zm1.44 1.994l-.632-1.603c.294-.145.483-.454.483-.927v-.376c0-.652-.364-1.008-.874-1.008h-.714c-.081 0-.112.033-.112.112v3.794c0 .082.034.112.112.112h.183c.081 0 .112-.033.112-.112V28.42c0-.082.02-.102.101-.102h.328l.6 1.554c.02.054.058.077.124.077h.23c.06 0 .087-.044.06-.107zm-2.605-.808c0-1.018-1.41-1.635-1.43-2.308a.448.448 0 01.45-.468c.256 0 .406.193.454.455.01.053.033.069.091.069h.219c.063 0 .076-.044.068-.097-.038-.43-.353-.797-.845-.797a.82.82 0 00-.846.845c0 .96 1.448 1.496 1.43 2.327-.005.332-.231.569-.541.569-.328 0-.541-.262-.58-.557-.004-.053-.037-.076-.096-.076h-.213c-.064 0-.069.048-.069.097.02.497.42.901.955.901a.945.945 0 00.955-.96m-2.76-1.336h-.676c-.081 0-.107.028-.107.107v.125c0 .08.026.106.107.106h.28c.101 0 .106.005.106.107v.846c0 .429-.231.622-.483.622-.266 0-.492-.214-.492-.666V26.93c0-.45.218-.665.492-.665.247 0 .42.188.463.45.01.058.038.076.096.076h.231c.064 0 .069-.049.069-.097-.043-.477-.353-.81-.864-.81-.55 0-.894.37-.894 1.044v2.014c0 .675.343 1.044.894 1.044.552 0 .884-.358.884-.99v-1.197c0-.081-.028-.107-.106-.107M90.79 25.93h-.183c-.081 0-.112.033-.112.111v2.733c0 .038-.043.048-.058.005l-1.056-2.738c-.034-.086-.064-.111-.15-.111h-.14c-.081 0-.112.033-.112.111v3.795c0 .081.033.112.112.112h.183c.081 0 .111-.034.111-.112v-2.733c0-.038.044-.048.059-.005l1.056 2.738c.034.086.069.112.15.112h.14c.081 0 .112-.034.112-.112v-3.794c0-.082-.033-.112-.112-.112zm-2.712 0H87.9c-.081 0-.112.033-.112.111v2.906c0 .45-.218.665-.487.665-.27 0-.488-.213-.488-.665v-2.905c0-.082-.033-.112-.112-.112h-.183c-.081 0-.112.033-.112.111v2.906c0 .675.343 1.044.894 1.044.552 0 .89-.371.89-1.044v-2.905c0-.082-.034-.112-.112-.112zm-2.573 0h-.183c-.081 0-.112.033-.112.111v2.733c0 .038-.043.048-.058.005l-1.056-2.738c-.034-.086-.064-.111-.15-.111h-.14c-.081 0-.112.033-.112.111v3.795c0 .081.033.112.112.112h.183c.081 0 .111-.034.111-.112v-2.733c0-.038.044-.048.059-.005l1.056 2.738c.033.086.072.112.15.112h.14c.081 0 .112-.034.112-.112v-3.794c0-.082-.033-.112-.112-.112zm-3.911 2.63l.333-1.718c.005-.039.053-.039.063 0l.333 1.719c.005.043-.01.058-.043.058h-.643c-.028 0-.053-.015-.043-.058zm-.653 1.28c-.015.082.02.108.081.108h.199c.068 0 .101-.029.116-.107l.165-.788c.01-.063.039-.076.107-.076h.696c.069 0 .091.01.107.076l.165.788c.015.081.048.107.117.107h.198c.058 0 .096-.029.08-.107l-.802-3.805c-.02-.091-.053-.106-.14-.106h-.15c-.085 0-.124.015-.139.106l-.805 3.805h.005zm-.721-.25h-.803c-.08 0-.101-.023-.101-.102V26.04c0-.08-.033-.111-.112-.111h-.183c-.081 0-.112.033-.112.111v3.795c0 .081.033.112.112.112h1.201c.082 0 .112-.034.112-.112V29.7c0-.081-.033-.112-.112-.112M77 28.053c-.082 0-.102-.02-.102-.102v-1.559c0-.081.023-.102.102-.102h.294c.247 0 .493.188.493.633v.498c0 .444-.246.632-.493.632H77zm-.397 1.897h.183c.082 0 .112-.033.112-.112v-1.313c0-.081.023-.101.102-.101h.315c.51 0 .873-.358.873-1.014v-.472c0-.653-.363-1.008-.873-1.008H76.6c-.081 0-.112.033-.112.111v3.795c0 .081.033.112.112.112m-.986-1.715h-1.104c-.081 0-.112.033-.112.112v.107c0 .08.033.111.112.111h1.105c.08 0 .111-.033.111-.111v-.107c0-.081-.033-.112-.112-.112zm-1.673-2.303H72.42c-.082 0-.112.033-.112.111v.135c0 .081.033.112.112.112h.454c.082 0 .102.023.102.101v3.447c0 .081.033.112.112.112h.182c.082 0 .112-.034.112-.112v-3.447c0-.08.02-.101.102-.101h.454c.082 0 .112-.033.112-.112v-.134c0-.082-.033-.112-.112-.112m-2.75 3.906c0 .081.033.112.112.112h.183c.08 0 .111-.034.111-.112v-3.794c0-.082-.033-.112-.111-.112H71.3c-.082 0-.112.033-.112.111v3.795zm-2.187-.803c0-1.018-1.41-1.635-1.43-2.308a.448.448 0 01.45-.468c.256 0 .406.193.455.455.01.053.033.069.091.069h.221c.064 0 .076-.044.069-.097-.039-.43-.354-.797-.846-.797a.82.82 0 00-.846.845c0 .96 1.448 1.496 1.43 2.327-.005.332-.231.569-.541.569-.328 0-.54-.262-.579-.557-.005-.053-.038-.076-.097-.076h-.213c-.063 0-.068.048-.068.097.02.497.419.901.954.901a.945.945 0 00.955-.96m-3.586-2.641c0-.081.02-.102.102-.102h.787c.081 0 .112-.033.112-.111v-.135c0-.081-.033-.112-.112-.112h-1.183c-.081 0-.112.033-.112.112v3.794c0 .081.033.112.112.112h1.183c.081 0 .112-.033.112-.112v-.134c0-.082-.033-.112-.112-.112h-.787c-.081 0-.102-.023-.102-.102v-1.34c0-.082.02-.102.102-.102h.787c.081 0 .112-.033.112-.112v-.134c0-.082-.033-.112-.112-.112h-.787c-.081 0-.102-.02-.102-.102v-1.196zm-1.597 2.491c0 .493-.221.709-.6.709h-.294c-.081 0-.102-.023-.102-.102v-3.098c0-.081.023-.102.102-.102h.295c.38 0 .599.214.599.706v1.887zm-.584-2.953h-.706c-.081 0-.112.033-.112.111v3.795c0 .081.033.112.112.112h.706c.642 0 .985-.369.985-1.093v-1.833c0-.724-.343-1.092-.985-1.092zm-3.038 0h-1.52c-.082 0-.113.033-.113.111v.135c0 .081.033.112.112.112h.455c.081 0 .101.023.101.101v3.447c0 .081.033.112.112.112h.183c.081 0 .112-.034.112-.112v-3.447c0-.08.02-.101.101-.101h.455c.081 0 .112-.033.112-.112v-.134c0-.082-.033-.112-.112-.112m-3.093 1.838c-.016-.043-.02-.08 0-.116l.82-1.628c.028-.049.015-.092-.043-.092h-.252c-.058 0-.096.016-.124.064l-.907 1.773c-.015.033-.058.02-.058-.01v-1.715c0-.081-.033-.112-.112-.112h-.183c-.081 0-.112.033-.112.112v3.794c0 .081.033.112.112.112h.183c.081 0 .112-.033.112-.112V28.67c0-.081.01-.122.058-.208l.15-.295c.02-.043.058-.038.076 0l.724 1.714c.02.049.063.069.122.069h.256c.054 0 .064-.043.044-.091l-.869-2.09h.003zm-1.87-1.838h-.177c-.082 0-.112.033-.112.111v2.906c0 .45-.221.665-.488.665-.266 0-.487-.213-.487-.665v-2.905c0-.082-.033-.112-.112-.112h-.183c-.081 0-.112.033-.112.111v2.906c0 .675.343 1.044.894 1.044.551 0 .89-.371.89-1.044v-2.905c0-.082-.034-.112-.113-.112zm-2.842 2.953c0 .493-.22.709-.599.709h-.294c-.082 0-.102-.023-.102-.102v-3.098c0-.081.02-.102.102-.102h.294c.381 0 .6.214.6.706v1.887zm-.584-2.953h-.708c-.081 0-.112.033-.112.111v3.795c0 .081.033.112.112.112h.708c.643 0 .986-.369.986-1.093v-1.833c0-.724-.343-1.092-.986-1.092zm-2.493 3.682c-.27 0-.488-.213-.488-.665v-2.014c0-.45.22-.666.488-.666.266 0 .487.214.487.666v2.014c0 .45-.22.665-.487.665zm0 .379c.546 0 .888-.371.888-1.044v-2.014c0-.676-.343-1.044-.889-1.044s-.894.37-.894 1.044v2.014c0 .675.343 1.044.895 1.044zm-2.95-2.144V26.39c0-.08.021-.101.102-.101h.295c.246 0 .493.188.493.632v.401c0 .445-.247.628-.493.628h-.294c-.082 0-.102-.02-.102-.102zm1.44 1.994l-.632-1.603c.295-.145.483-.454.483-.927v-.376c0-.652-.363-1.008-.874-1.008h-.713c-.082 0-.112.033-.112.112v3.794c0 .082.033.112.112.112h.183c.08 0 .111-.033.111-.112V28.42c0-.082.02-.102.102-.102h.328l.599 1.554c.02.054.058.077.124.077h.232c.058 0 .086-.044.058-.107zm-3.755-1.788c-.081 0-.102-.02-.102-.102v-1.559c0-.081.02-.102.102-.102h.294c.247 0 .493.188.493.633v.498c0 .444-.246.632-.493.632h-.294zm-.396 1.897h.182c.082 0 .112-.033.112-.112v-1.313c0-.081.02-.101.102-.101h.315c.51 0 .873-.358.873-1.014v-.472c0-.653-.363-1.008-.873-1.008h-.714c-.081 0-.112.033-.112.111v3.795c0 .081.033.112.112.112m-2.479-4.018h-.182c-.082 0-.112.033-.112.111v2.733c0 .038-.043.048-.059.005l-1.056-2.738c-.033-.086-.064-.111-.15-.111h-.14c-.081 0-.111.033-.111.111v3.795c0 .081.033.112.111.112h.183c.081 0 .112-.034.112-.112v-2.733c0-.038.043-.048.058-.005l1.057 2.738c.033.086.068.112.15.112h.14c.08 0 .111-.034.111-.112v-3.794c0-.082-.033-.112-.112-.112zm-3.017 3.906c0 .081.033.112.112.112h.183c.081 0 .112-.034.112-.112v-3.794c0-.082-.033-.112-.112-.112h-.183c-.081 0-.112.033-.112.111v3.795zm-1.778-3.444c0-.081.02-.102.102-.102h.787c.082 0 .112-.033.112-.111v-.135c0-.081-.033-.112-.112-.112h-1.183c-.081 0-.112.033-.112.112v3.794c0 .081.033.112.112.112h1.183c.082 0 .112-.033.112-.112v-.134c0-.082-.033-.112-.112-.112h-.787c-.081 0-.102-.023-.102-.102v-1.34c0-.082.02-.102.102-.102h.787c.082 0 .112-.033.112-.112v-.134c0-.082-.033-.112-.112-.112h-.787c-.081 0-.102-.02-.102-.102v-1.196z" fill="#000"/><path d="M4.907.025a4.91 4.91 0 00-4.91 4.91V29.17a.7.7 0 00.702.701h28.609a.7.7 0 00.7-.7V4.934A4.91 4.91 0 0025.1.025H4.904h.003z" fill="#BCBCBC"/><path d="M13.443 10.542c-5.339 0-9.664 4.328-9.664 9.663v9.664h22.453v-9.664c0-5.338-4.327-9.663-9.663-9.663h-3.126z" fill="#fff"/><path d="M21.877 26.425H8.132c-.387 0-.7.314-.7.701v2.103c0 .387.313.7.7.7h13.745c.387 0 .7-.313.7-.7v-2.103a.701.701 0 00-.7-.701z" fill="#000"/><path d="M19.985 21.166h-9.958c-.387 0-.701.313-.701.7v2.106a.7.7 0 00.7.7h9.959a.7.7 0 00.7-.7v-2.106a.701.701 0 00-.7-.7z" fill="#E30613"/><path d="M18.565 15.906h-7.119a.7.7 0 00-.7.7v2.106a.7.7 0 00.7.701h7.119a.701.701 0 00.7-.7v-2.106c0-.387-.313-.701-.7-.701z" fill="#F8D200"/><path d="M98.049 10.2h-.943c-.116 0-.195.045-.23.177l-.676 2.098a.056.056 0 01-.107 0l-.675-2.098c-.044-.135-.115-.178-.232-.178h-.95c-.098 0-.152.064-.106.178l1.369 3.855v2.443c0 .133.053.188.188.188h.914c.135 0 .186-.053.186-.188v-2.443l1.368-3.855c.046-.117-.007-.178-.106-.178zm-6.682 4.362l.363-1.83c.008-.064.089-.064.107 0l.363 1.83c.007.061-.028.097-.071.097h-.694c-.053 0-.088-.036-.07-.097m-1.687 2.124c-.036.132.036.177.132.177h.932c.114 0 .178-.035.213-.177l.168-.765c.028-.106.064-.124.178-.124h.95c.114 0 .152.018.177.124l.17.765c.036.142.097.177.214.177h.932c.099 0 .17-.045.132-.177l-1.5-6.309c-.036-.152-.1-.178-.242-.178h-.719c-.142 0-.203.028-.241.178l-1.501 6.309h.005zm-5.036.177h.604c.142 0 .196-.035.231-.177l.747-3.546c.008-.063.089-.063.107 0l.746 3.546c.026.142.09.177.231.177h.595c.152 0 .203-.025.23-.177l1.217-6.309c.028-.142-.025-.178-.124-.178h-.942c-.117 0-.196.036-.214.178l-.55 3.304c-.008.061-.09.071-.107.008l-.683-3.315c-.036-.152-.09-.177-.232-.177h-.444c-.142 0-.203.028-.231.178l-.694 3.314c-.017.06-.096.053-.106-.008l-.541-3.304c-.028-.142-.1-.178-.213-.178h-.943c-.106 0-.15.036-.124.178l1.209 6.309c.028.152.081.177.23.177zm-4.104-5.358c0-.132.035-.168.167-.168h1.28c.133 0 .186-.053.186-.185v-.765c0-.134-.053-.188-.186-.188h-2.542c-.132 0-.185.054-.185.188v6.29c0 .133.053.189.185.189h2.542c.133 0 .186-.053.186-.188v-.764c0-.135-.053-.188-.186-.188h-1.28c-.132 0-.167-.036-.167-.17v-1.341c0-.133.035-.168.167-.168h1.28c.133 0 .186-.054.186-.186v-.764c0-.132-.053-.188-.186-.188h-1.28c-.132 0-.167-.036-.167-.168v-1.236zm-2.542-1.306h-3.2c-.135 0-.186.054-.186.188v.765c0 .132.054.185.186.185h.79c.132 0 .167.036.167.168v5.17c0 .133.053.188.186.188h.906c.132 0 .188-.053.188-.188v-5.17c0-.132.036-.168.168-.168h.79c.132 0 .188-.053.188-.185v-.765c0-.134-.054-.188-.189-.188m-6.25 4.363l.364-1.83c.01-.064.088-.064.106 0l.363 1.83c.008.061-.027.097-.07.097h-.694c-.053 0-.089-.036-.071-.097m-1.686 2.124c-.036.132.035.177.132.177h.932c.114 0 .177-.035.213-.177l.17-.765c.028-.106.061-.124.178-.124h.95c.114 0 .152.018.178.124l.167.765c.036.142.1.177.214.177h.931c.097 0 .168-.045.133-.177l-1.501-6.309c-.036-.152-.1-.178-.242-.178h-.718c-.142 0-.204.028-.239.178l-1.501 6.309h.003zm-1.065-3.716h-1.6c-.132 0-.177.046-.177.178v.658c0 .132.043.177.178.177h.39c.143 0 .178.036.178.178v.79c0 .48-.249.808-.657.808-.49 0-.684-.48-.684-1.103V12.4c0-.623.168-1.103.666-1.103.409 0 .576.328.622.648.018.1.061.135.16.135h.978c.106 0 .114-.072.114-.16-.025-.978-.64-1.803-1.874-1.803-1.323 0-1.946.906-1.946 2.283v2.257c0 1.377.623 2.283 1.946 2.283 1.252 0 1.884-.843 1.884-1.91v-1.884c0-.132-.043-.178-.178-.178m-4.934.874h-2.027c-.132 0-.185.054-.185.186v.533c0 .132.053.185.185.185h2.027c.132 0 .185-.053.185-.185v-.534c0-.131-.053-.185-.185-.185zm-4.922-2.336c0-.132.036-.168.17-.168h1.28c.132 0 .186-.053.186-.185v-.765c0-.134-.054-.188-.186-.188H58.04c-.132 0-.185.054-.185.188v6.29c0 .133.053.189.185.189h2.542c.132 0 .186-.053.186-.188v-.764c0-.135-.054-.188-.186-.188h-1.28c-.132 0-.17-.036-.17-.17v-1.341c0-.133.036-.168.17-.168h1.28c.132 0 .186-.054.186-.186v-.764c0-.132-.054-.188-.186-.188h-1.28c-.132 0-.17-.036-.17-.168v-1.236zm-2.705-1.306h-.914c-.132 0-.185.054-.185.188v3.287c0 .063-.071.07-.1.01l-1.482-3.297c-.054-.134-.117-.188-.257-.188h-.683c-.132 0-.186.054-.186.188v6.29c0 .133.054.189.186.189h.906c.135 0 .188-.053.188-.188v-3.289c0-.06.072-.071.097-.007l1.483 3.296c.061.132.114.188.267.188h.683c.134 0 .188-.053.188-.188v-6.29c0-.135-.053-.189-.188-.189m-6.324 6.476c0 .133.053.188.188.188h.907c.134 0 .188-.053.188-.188v-6.29c0-.135-.054-.188-.188-.188h-.907c-.132 0-.188.053-.188.188v6.29zm-1.242-.95h-1.138c-.132 0-.167-.035-.167-.17v-5.17c0-.135-.053-.188-.188-.188h-.907c-.132 0-.188.053-.188.188v6.29c0 .133.054.188.188.188h2.4c.132 0 .186-.053.186-.188v-.764c0-.135-.054-.188-.186-.188m-4.007-5.524h-.915c-.134 0-.188.054-.188.188v3.287c0 .063-.07.07-.096.01l-1.483-3.297c-.053-.134-.117-.188-.257-.188h-.683c-.135 0-.188.054-.188.188v6.29c0 .133.053.189.188.189h.907c.132 0 .188-.053.188-.188v-3.289c0-.06.07-.071.096-.007l1.483 3.296c.064.132.117.188.267.188h.683c.135 0 .188-.053.188-.188v-6.29c0-.135-.053-.189-.188-.189m-6.948 5.562c-.498 0-.666-.48-.666-1.102V12.4c0-.622.168-1.102.666-1.102s.658.48.658 1.102v2.258c0 .622-.16 1.102-.658 1.102zm0 1.181c1.315 0 1.945-.907 1.945-2.283V12.4c0-1.376-.63-2.283-1.945-2.283-1.316 0-1.946.907-1.946 2.283v2.258c0 1.376.623 2.283 1.946 2.283zM94.798 4.477c0 .648-.17 1.128-.844 1.128h-.327c-.135 0-.17-.036-.17-.17v-4.05c0-.135.035-.171.17-.171h.328c.675 0 .843.48.843 1.128v2.135zM94.015.08h-1.653c-.134 0-.185.053-.185.188v6.29c0 .135.053.188.185.188h1.653c1.43 0 2.063-.906 2.063-2.318V2.4c0-1.412-.63-2.319-2.063-2.319M90.752.08h-.914c-.135 0-.188.053-.188.188v3.286c0 .06-.071.071-.097.008L88.07.264c-.053-.134-.114-.188-.256-.188h-.684c-.132 0-.185.054-.185.188v6.29c0 .135.053.189.185.189h.907c.135 0 .188-.054.188-.188V3.269c0-.064.071-.072.097-.01l1.483 3.296c.06.134.116.188.266.188h.683c.133 0 .188-.054.188-.188V.265c0-.135-.053-.189-.188-.189M85.551.08h-.915c-.132 0-.185.053-.185.188V4.54c0 .622-.16 1.102-.658 1.102s-.665-.48-.665-1.102V.267c0-.135-.053-.188-.186-.188h-.906c-.132 0-.186.053-.186.188V4.54c0 1.376.623 2.283 1.946 2.283s1.945-.907 1.945-2.283V.267c0-.135-.053-.188-.188-.188m-7.055 5.526c-.132 0-.168-.036-.168-.17v-1.44c0-.135.036-.17.168-.17h.33c.399 0 .683.274.683.807v.16c0 .523-.292.808-.683.808h-.33v.005zm0-2.913c-.132 0-.168-.036-.168-.168V1.422c0-.17.036-.206.168-.206h.32c.328 0 .569.25.569.684v.106c0 .435-.249.683-.569.683h-.32v.003zm-1.262 4.05h1.795c1.093 0 1.76-.771 1.76-1.785v-.134c0-.701-.32-1.323-.853-1.572.363-.231.701-.737.701-1.387v-.107c0-.924-.665-1.678-1.635-1.678h-1.768c-.132 0-.188.053-.188.188v6.29c0 .135.053.188.188.188M73.35 3.083V1.387c0-.135.036-.17.17-.17h.285c.355 0 .675.274.675.87v.293c0 .596-.32.87-.675.87h-.285c-.134 0-.17-.035-.17-.17m2.66 3.485l-.996-2.46c.462-.346.746-.933.746-1.672v-.338C75.76.88 74.978.08 73.94.08h-1.68c-.131 0-.185.053-.185.188v6.29c0 .135.054.188.186.188h.906c.132 0 .186-.053.186-.188V4.62c0-.135.035-.17.17-.17h.345l.844 2.168c.035.09.099.125.213.125h.995c.1 0 .132-.071.09-.178zm-6.72-5.18c0-.135.035-.171.17-.171h1.28c.134 0 .187-.053.187-.188V.262c0-.135-.053-.188-.188-.188h-2.542c-.134 0-.188.053-.188.188v6.29c0 .135.054.188.188.188h2.543c.134 0 .187-.053.187-.188v-.764c0-.132-.053-.186-.188-.186h-1.28c-.132 0-.17-.035-.17-.17v-1.34c0-.133.036-.168.17-.168h1.28c.135 0 .188-.054.188-.188V2.97c0-.134-.053-.188-.188-.188h-1.28c-.132 0-.17-.035-.17-.17V1.38v.005zM65.677.256l-.8 3.766c-.01.063-.1.063-.107 0l-.8-3.766c-.028-.135-.099-.178-.213-.178h-.95c-.099 0-.16.043-.124.178l1.564 6.308c.036.15.089.178.231.178h.701c.142 0 .196-.028.231-.178L66.966.257C67 .122 66.938.079 66.84.079h-.95c-.114 0-.178.043-.213.178zM62.27 5.605h-1.138c-.132 0-.168-.036-.168-.17V.265c0-.135-.053-.189-.188-.189h-.906c-.132 0-.186.054-.186.188v6.29c0 .135.054.189.186.189h2.4c.132 0 .185-.054.185-.188V5.79c0-.132-.053-.185-.185-.185zm-6.156-1.163l.363-1.831c.01-.064.089-.064.107 0l.363 1.83c.01.064-.026.1-.072.1h-.693c-.053 0-.089-.036-.07-.1m-1.687 2.124c-.036.132.035.178.134.178h.932c.117 0 .178-.036.214-.178l.167-.764c.028-.107.061-.125.178-.125H57c.117 0 .152.018.178.125l.17.764c.035.142.096.178.213.178h.932c.097 0 .168-.046.132-.178l-1.5-6.308c-.036-.153-.1-.178-.242-.178h-.719c-.142 0-.203.025-.238.178l-1.501 6.308zM53.884.079h-3.2c-.132 0-.185.053-.185.188v.764c0 .135.053.188.185.188h.79c.132 0 .167.036.167.17v5.17c0 .136.054.189.188.189h.907c.135 0 .188-.053.188-.188V1.39c0-.135.035-.171.168-.171h.79c.131 0 .185-.053.185-.188V.267c0-.135-.054-.188-.186-.188m-6.773 3.004V1.387c0-.135.036-.17.168-.17h.284c.356 0 .676.274.676.87v.293c0 .596-.32.87-.676.87h-.284c-.132 0-.168-.035-.168-.17m2.657 3.485l-.996-2.46c.462-.346.747-.933.747-1.672v-.338C49.516.88 48.733.08 47.695.08h-1.679c-.135 0-.188.053-.188.188v6.29c0 .135.053.188.188.188h.907c.132 0 .188-.053.188-.188V4.62c0-.135.035-.17.167-.17h.346l.843 2.168c.035.09.096.125.213.125h.996c.096 0 .132-.071.088-.178zm-7.068-.924c-.498 0-.666-.48-.666-1.103V2.281c0-.623.168-1.103.666-1.103.497 0 .657.48.657 1.103v2.257c0 .623-.16 1.103-.657 1.103zm0 1.183c1.315 0 1.945-.907 1.945-2.283V2.283C44.642.907 44.012 0 42.697 0 41.38 0 40.75.907 40.75 2.283v2.258c0 1.376.623 2.283 1.946 2.283zm-5.24-3.52c-.134 0-.17-.035-.17-.17v-1.75c0-.134.036-.17.17-.17h.285c.355 0 .675.274.675.871v.345c0 .597-.32.872-.675.872h-.285v.002zm-1.262 3.439h.907c.132 0 .185-.054.185-.188V4.67c0-.134.036-.17.17-.17h.42c1.038 0 1.82-.79 1.82-2.009v-.398c0-1.217-.782-2.017-1.82-2.017h-1.68c-.131 0-.187.054-.187.188v6.29c0 .135.053.189.188.189" fill="#000"/></g></svg>