<svg width="887" height="371" viewBox="0 0 887 371" fill="none" xmlns="http://www.w3.org/2000/svg">
<path fill-rule="evenodd" clip-rule="evenodd" d="M559.309 241.139L563.693 225.02H563.701L589.215 129.899C589.714 128.05 591.384 126.767 593.3 126.767H620.514C621.908 126.767 622.915 128.087 622.557 129.429L592.667 240.677C592.167 242.526 590.49 243.808 588.581 243.808H561.352C559.958 243.808 558.944 242.481 559.309 241.139ZM596.066 104.303L601.927 82.4576C602.426 80.6086 604.096 79.3262 606.012 79.3262H633.248C634.643 79.3262 635.649 80.6458 635.291 81.9879L629.424 103.833C628.924 105.682 627.247 106.965 625.338 106.965H598.109C596.715 106.965 595.709 105.645 596.066 104.303ZM169.692 82.4576C170.192 80.6086 171.862 79.3262 173.778 79.3262H201.014C202.408 79.3262 203.415 80.6459 203.057 81.9879L160.432 240.669C159.933 242.519 158.255 243.801 156.346 243.801H129.118C127.724 243.801 126.71 242.474 127.075 241.132L131.459 225.02L169.692 82.4576ZM632.026 186.13C632.026 151.111 660.41 122.726 695.43 122.726C730.45 122.726 758.834 151.111 758.834 186.13C758.834 221.15 730.45 249.534 695.43 249.534C660.41 249.534 632.026 221.15 632.026 186.13ZM663.728 186.13C663.728 203.637 677.923 217.832 695.43 217.832C712.936 217.832 727.132 203.637 727.132 186.13C727.132 168.624 712.936 154.428 695.43 154.428C677.923 154.428 663.728 168.624 663.728 186.13ZM483.745 217.825C501.505 218.123 515.991 203.816 515.991 186.13H516.006V128.877C516.006 127.714 516.946 126.767 518.116 126.767H545.591C546.754 126.767 547.701 127.707 547.701 128.877V186.13C547.701 221.15 519.317 249.534 484.297 249.534C449.277 249.534 420.893 221.15 420.893 186.13V128.877C420.893 127.714 421.832 126.767 423.003 126.767H450.477C451.64 126.767 452.587 127.707 452.587 128.877V185.609C452.587 202.988 465.985 217.527 483.745 217.825ZM370.253 126.76H321.373C287.471 126.76 259.989 154.242 259.989 188.143C259.989 222.045 287.471 249.527 321.373 249.527C327.494 249.527 333.325 247.946 338.424 245.128L326.957 287.775C326.599 289.117 327.606 290.437 329 290.437H356.236C358.145 290.437 359.822 289.154 360.314 287.305L402.768 129.414C403.126 128.072 402.119 126.753 400.725 126.753H370.246L370.253 126.76ZM352.657 191.238C346.83 210.888 337.142 217.825 321.373 217.825C303.867 217.825 289.671 203.629 289.671 186.123C289.671 168.617 303.867 154.421 321.373 154.421H362.559L352.657 191.238ZM232.522 82.8007L226.662 104.646C226.304 105.988 227.311 107.308 228.705 107.308H255.933C257.842 107.308 259.52 106.026 260.019 104.176L265.887 82.331C266.245 80.989 265.238 79.6693 263.844 79.6693H236.608C234.692 79.6693 233.022 80.9517 232.522 82.8007ZM194.289 225.363L189.905 241.482C189.54 242.824 190.554 244.151 191.948 244.151H219.176C221.085 244.151 222.763 242.869 223.262 241.02L252.853 130.889C253.365 128.983 251.929 127.11 249.956 127.11H223.896C221.98 127.11 220.31 128.393 219.81 130.242L194.297 225.363H194.289Z" fill="url(#paint0_linear_609_3452)"/>
<defs>
<linearGradient id="paint0_linear_609_3452" x1="758.834" y1="86.5809" x2="675.105" y2="425.746" gradientUnits="userSpaceOnUse">
<stop stop-color="#5873FF"/>
<stop offset="1" stop-color="#C935FD"/>
</linearGradient>
</defs>
</svg>
