<?xml version="1.0" encoding="UTF-8" standalone="no"?>
<!-- Created with Inkscape (http://www.inkscape.org/) -->

<svg
   width="128.38817mm"
   height="128.38818mm"
   viewBox="0 0 128.38817 128.38818"
   version="1.1"
   id="svg1"
   xmlns="http://www.w3.org/2000/svg"
   xmlns:svg="http://www.w3.org/2000/svg">
  <defs
     id="defs1" />
  <g
     id="layer1"
     transform="translate(-40.925197,-82.785829)">
    <rect
       style="fill:#d6f5bf;fill-opacity:0.175969;fill-rule:evenodd;stroke-width:0.939667"
       id="rect2"
       width="128.38818"
       height="128.38818"
       x="40.925198"
       y="82.78582"
       ry="4.348968" />
    <g
       id="g2"
       transform="translate(0.1192884,-1.2862267)">
      <path
         id="rect1"
         style="fill:#000080;fill-rule:evenodd;stroke-width:0.878999"
         d="M 60.692329,105.11344 162.38396,90.358927 149.3153,194.45899 47.616042,206.17335 Z" />
      <path
         id="path1-6-7"
         style="fill:#008000;fill-rule:evenodd;stroke-width:1.7836"
         d="m 104.87769,99.62353 c -13.384347,0.0336 1.33108,30.98772 -7.479653,39.73895 -8.810735,8.75124 -41.085495,-11.39225 -41.271937,8.68347 -0.04852,5.22464 1.80923,11.04143 4.938001,16.79594 a 18.474804,18.474804 0 0 1 3.618369,-4.53958 l 0.65744,-0.57215 a 18.474804,18.474804 0 0 1 11.001115,-4.2434 18.474804,18.474804 0 0 1 14.874342,6.4889 18.474804,18.474804 0 0 1 -1.940038,25.90054 18.474804,18.474804 0 0 1 -4.113885,2.71145 c 6.341463,4.08072 12.914912,6.65344 18.808686,6.77772 20.07213,0.42325 1.00763,-32.14337 10.02236,-40.68431 9.01474,-8.54094 39.19819,13.49164 39.85819,-6.57409 0.21883,-6.65292 -1.89801,-14.30746 -5.80017,-21.61106 a 18.474804,18.474804 0 0 1 -4.15206,5.20909 18.474804,18.474804 0 0 1 -25.92146,-1.63458 18.474804,18.474804 0 0 1 1.32861,-25.93878 l 0.65744,-0.57267 a 18.474804,18.474804 0 0 1 2.80534,-1.92218 c -4.8472,-2.2895 -10.08564,-3.718423 -15.58476,-3.964271 z" />
      <path
         style="fill:#d35f5f;fill-rule:evenodd;stroke-width:0.588844"
         id="path1-6-3-2"
         d="m 17.283553,161.17976 a 16.136221,16.136221 0 0 1 15.364983,16.6892 16.136221,16.136221 0 0 1 -16.50679,15.56079 A 16.136221,16.136221 0 0 1 0.38732081,177.10767 16.136221,16.136221 0 0 1 16.522419,161.1618"
         transform="rotate(-42.405324)" />
      <path
         style="fill:#ffff00;fill-rule:evenodd;stroke-width:0.588844"
         id="path1-6-3-2-1"
         d="m -59.580968,164.34289 a 16.136221,16.136221 0 0 1 15.364983,16.6892 16.136221,16.136221 0 0 1 -16.50679,15.56079 16.136221,16.136221 0 0 1 -15.754425,-16.32208 16.136221,16.136221 0 0 1 16.135098,-15.94587"
         transform="rotate(-42.405324)" />
    </g>
  </g>
</svg>
