<svg width="512" height="512" viewBox="0 0 512 512" fill="none" xmlns="http://www.w3.org/2000/svg">
<rect width="512" height="512" rx="128" fill="#003064"/>
<path d="M313.486 189.915C313.032 184.339 311.271 179.304 306.402 175.863C301.951 172.715 296.165 171.644 291.033 171.117C285.545 170.553 280.279 170.843 274.878 171.944C271.068 172.721 267.414 173.838 263.819 175.326C262.377 175.922 260.954 176.54 259.592 177.315C259.61 177.224 259.558 177.171 259.522 177.104C259.358 176.799 259.127 176.566 258.89 176.328C258.324 175.757 257.703 175.262 257.066 174.776C255.877 173.868 254.726 172.963 253.309 172.386C250.882 171.4 247.938 171.084 245.391 170.954C239.944 170.675 234.646 171.191 229.291 172.039C224.577 172.785 218.102 174.164 213.577 175.776C211.018 176.687 208.591 177.762 206.295 179.248C204.556 180.373 203.026 181.591 201.8 183.316C201.51 183.724 201.252 184.143 201.045 184.602C200.975 184.758 200.906 184.913 200.864 185.081V254.503C200.864 254.881 200.939 255.233 201.044 255.59C201.28 256.393 201.611 257.009 202.321 257.507C203.221 258.137 204.466 258.522 205.485 258.819C207.707 259.469 209.942 259.827 212.245 260.001C214.183 260.148 217.152 260.214 219.09 259.719C220.243 259.425 221.227 258.999 222.117 258.162C222.738 257.578 223.153 256.945 223.412 256.128C223.516 255.803 223.597 255.484 223.597 255.137C223.626 245.009 223.653 234.882 223.681 224.753C223.695 219.689 223.708 214.625 223.722 209.562C223.728 207.028 223.735 204.494 223.742 201.962C223.747 200.278 223.752 198.596 223.755 196.913C223.755 196.682 223.754 196.451 223.773 196.22C223.799 195.905 223.852 195.598 223.93 195.291C224.005 194.996 224.091 194.709 224.229 194.433C227.886 193.075 233.098 192.038 236.997 191.907C239.27 191.831 241.235 191.87 243.207 193.382C244.854 194.647 246.034 196.973 246.173 199.029C246.091 212.912 246.028 226.794 246.033 240.678C246.034 244.149 246.038 247.621 246.067 251.093C246.081 252.676 246.07 254.259 246.156 255.843C246.186 256.396 246.321 256.841 246.685 257.276C247.54 258.295 249.12 258.794 250.282 259.097C253.352 259.897 257.458 260.082 260.579 260.076C262.117 260.073 263.613 260.113 265.126 259.626C266.113 259.308 266.922 258.857 267.644 258.09C268.115 257.59 268.454 257.05 268.695 256.405C268.792 256.147 268.876 255.891 268.907 255.613V196.783C268.907 196.578 268.898 196.375 268.94 196.17C268.998 195.887 269.11 195.638 269.252 195.391C269.421 195.098 269.613 194.832 269.853 194.591C273.519 193.1 279.023 192.161 282.918 191.937C285.158 191.808 287.359 191.933 289.196 193.604C290.779 195.043 291.68 197.582 291.64 199.663C291.52 213.547 291.409 227.431 291.333 241.315C291.314 244.784 291.297 248.253 291.293 251.722C291.291 253.319 291.267 254.916 291.315 256.513C291.329 256.977 291.498 257.267 291.855 257.548C292.356 257.939 292.912 258.148 293.497 258.347C294.304 258.622 295.128 258.814 295.961 258.981C299.38 259.663 302.802 259.91 306.271 260.016C307.147 260.043 308.02 260.082 308.897 260.038C309.575 260.002 310.223 259.905 310.867 259.679C311.815 259.345 312.492 258.876 313.022 257.991C313.386 257.38 313.553 256.762 313.604 256.06C313.627 255.75 313.633 255.447 313.583 255.137C313.651 247.942 314.077 197.13 313.486 189.915Z" fill="white"/>
<path d="M256 317.281C203.018 316.564 160.295 273.054 160.295 219.866C160.295 166.678 203.018 123.171 256 122.455C308.981 123.171 351.705 166.678 351.705 219.866C351.705 273.054 308.981 316.564 256 317.281ZM401.939 211.369C401.832 207.563 401.58 203.776 401.181 199.989C400.376 192.329 398.998 184.843 397.02 177.399C394.553 168.118 391.263 159.284 387.067 150.651C381.818 139.856 375.509 130.036 367.885 120.779C340.232 87.206 299.323 67.6748 256 67C212.698 67.6741 171.808 87.187 144.154 120.731C136.525 129.986 130.212 139.805 124.959 150.6C120.761 159.225 117.469 168.051 114.999 177.326C113.015 184.777 111.632 192.271 110.824 199.94C110.424 203.731 110.17 207.523 110.062 211.333C109.971 214.507 109.987 217.678 110.064 220.851C110.226 227.613 110.7 234.328 111.511 241.042C116.865 285.371 136.056 322.667 163.525 356.523C190.207 389.408 223.962 418.098 256 445C288.037 418.099 321.791 389.409 348.472 356.525C375.925 322.691 395.112 285.42 400.479 241.123C401.291 234.418 401.768 227.712 401.933 220.96C402.012 217.762 402.03 214.568 401.939 211.369Z" fill="white"/>
</svg>
