<?xml version="1.0" encoding="UTF-8" standalone="no"?> <svg xmlns="http://www.w3.org/2000/svg" xmlns:xlink="http://www.w3.org/1999/xlink" xmlns:serif="http://www.serif.com/" width="100%" height="100%" viewBox="0 0 1024 345" version="1.1" xml:space="preserve" style="fill-rule:evenodd;clip-rule:evenodd;stroke-linejoin:round;stroke-miterlimit:1.41421;"> <g transform="matrix(1,0,0,1,0,-557)"> <g id="icinga-logo-screen-export" transform="matrix(0.98304,0,0,0.974118,0,557)"> <rect x="0" y="0" width="1041.67" height="354.167" style="fill:none;"></rect> <clipPath id="_clip1"> <rect x="0" y="0" width="1041.67" height="354.167"></rect> </clipPath> <g clip-path="url(#_clip1)"> <g transform="matrix(1.00065,0,0,1.00981,0.00135799,-566.94)"> <g> <path d="M336.117,786.736C336.117,777.699 337.833,769.153 341.267,761.107C344.7,753.065 349.404,746.053 355.371,740.09C361.338,734.124 368.342,729.424 376.392,725.986C384.433,722.553 393.071,720.832 402.292,720.832C408.979,720.832 415.4,721.782 421.55,723.682C427.692,725.578 433.392,728.29 438.633,731.815C443.879,735.344 448.533,739.503 452.604,744.294C456.671,749.086 459.971,754.374 462.5,760.157C463.221,761.424 463.721,762.782 463.996,764.228C464.267,765.674 464.404,766.936 464.404,768.024C464.404,771.64 463.133,774.986 460.604,778.061C458.071,781.136 454.454,782.669 449.754,782.669C443.608,782.669 439.083,779.686 436.196,773.719C433.483,767.036 429.096,761.515 423.042,757.174C416.983,752.836 410.063,750.665 402.292,750.665C397.229,750.665 392.479,751.615 388.054,753.511C383.621,755.415 379.733,757.99 376.392,761.244C373.042,764.499 370.425,768.34 368.525,772.774C366.625,777.203 365.679,781.853 365.679,786.736L365.679,845.59C365.679,850.474 366.671,855.128 368.662,859.557C370.65,863.99 373.313,867.832 376.663,871.086C380.004,874.336 383.892,876.915 388.325,878.815C392.754,880.715 397.408,881.661 402.292,881.661C410.063,881.661 416.983,879.449 423.042,875.019C429.096,870.59 433.571,865.028 436.467,858.336C437.729,855.807 439.675,853.728 442.296,852.103C444.917,850.474 447.404,849.661 449.754,849.661C454.271,849.661 457.846,851.199 460.471,854.269C463.087,857.344 464.404,860.686 464.404,864.303C464.404,866.474 464.038,868.374 463.317,869.999C460.962,876.149 457.758,881.757 453.688,886.819C449.621,891.878 444.963,896.265 439.721,899.969C434.475,903.678 428.692,906.519 422.362,908.515C416.029,910.499 409.342,911.494 402.292,911.494C393.246,911.494 384.704,909.732 376.663,906.207C368.613,902.678 361.608,897.936 355.646,891.969C349.675,886.003 344.929,879.04 341.404,871.086C337.879,863.128 336.117,854.632 336.117,845.59L336.117,786.736ZM724.221,787.011C724.221,777.974 725.979,769.428 729.508,761.378C733.033,753.336 737.775,746.328 743.746,740.361C749.717,734.394 756.717,729.694 764.762,726.257C772.813,722.824 781.35,721.103 790.396,721.103C797.267,721.103 803.863,722.099 810.192,724.086C816.521,726.078 822.35,728.878 827.688,732.494C833.017,736.115 837.721,740.453 841.788,745.515C845.858,750.578 849.154,756.186 851.687,762.328C852.05,763.236 852.271,764.182 852.367,765.178C852.458,766.174 852.504,767.211 852.504,768.294C852.504,771.911 851.237,775.257 848.704,778.332C846.171,781.407 842.554,782.94 837.858,782.94C835.325,782.94 832.792,782.219 830.267,780.769C827.725,779.324 825.829,777.157 824.567,774.261C821.671,767.394 817.196,761.786 811.142,757.444C805.083,753.107 798.171,750.936 790.396,750.936C785.329,750.936 780.583,751.886 776.154,753.786C771.721,755.682 767.883,758.261 764.629,761.515C761.375,764.769 758.796,768.611 756.9,773.04C755,777.474 754.054,782.128 754.054,787.011L754.054,845.59C754.054,850.474 755,855.128 756.9,859.557C758.796,863.99 761.417,867.832 764.762,871.086C768.108,874.336 771.996,876.915 776.425,878.815C780.854,880.715 785.512,881.661 790.396,881.661C795.454,881.661 800.2,880.715 804.629,878.815C809.063,876.915 812.908,874.336 816.162,871.086C819.412,867.832 821.987,863.99 823.888,859.557C825.787,855.128 826.738,850.474 826.738,845.59L826.738,838.265L812.092,838.265C807.929,838.265 804.45,836.824 801.65,833.928C798.846,831.04 797.446,827.511 797.446,823.349C797.446,819.378 798.846,815.94 801.65,813.049C804.45,810.157 807.929,808.707 812.092,808.707L841.654,808.707C845.808,808.707 849.338,810.107 852.229,812.907C855.121,815.715 856.567,819.19 856.567,823.349L856.567,845.59C856.567,854.632 854.808,863.128 851.283,871.086C847.754,879.04 843.008,886.003 837.046,891.969C831.079,897.936 824.062,902.678 816.025,906.207C807.975,909.732 799.429,911.494 790.396,911.494C781.35,911.494 772.813,909.732 764.762,906.207C756.717,902.678 749.717,897.936 743.746,891.969C737.775,886.003 733.033,879.04 729.508,871.086C725.979,863.128 724.221,854.632 724.221,845.59L724.221,787.011ZM272.925,741.715C272.925,737.557 274.371,734.032 277.262,731.14C280.154,728.249 283.679,726.799 287.842,726.799C291.817,726.799 295.3,728.249 298.283,731.14C301.267,734.032 302.758,737.557 302.758,741.715L302.758,891.969C302.758,896.128 301.308,899.657 298.421,902.544C295.525,905.436 292,906.886 287.842,906.886C283.862,906.886 280.383,905.436 277.4,902.544C274.417,899.657 272.925,896.128 272.925,891.969L272.925,741.715ZM495.592,741.715C495.592,737.557 497.038,734.032 499.929,731.14C502.821,728.249 506.346,726.799 510.508,726.799C514.483,726.799 517.967,728.249 520.95,731.14C523.933,734.032 525.425,737.557 525.425,741.715L525.425,891.969C525.425,896.128 523.975,899.657 521.087,902.544C518.192,905.436 514.667,906.886 510.508,906.886C506.529,906.886 503.05,905.436 500.067,902.544C497.083,899.657 495.592,896.128 495.592,891.969L495.592,741.715ZM560.137,791.619C560.137,782.578 561.854,774.082 565.292,766.124C568.725,758.169 573.429,751.207 579.396,745.244C585.358,739.274 592.367,734.528 600.417,731.003C608.454,727.478 617,725.715 626.042,725.715C635.083,725.715 643.629,727.478 651.671,731.003C659.717,734.528 666.725,739.274 672.688,745.244C678.658,751.207 683.408,758.169 686.929,766.124C690.454,774.082 692.221,782.578 692.221,791.619L692.221,891.969C692.221,896.128 690.817,899.657 688.013,902.544C685.208,905.436 681.729,906.886 677.571,906.886C673.592,906.886 670.117,905.436 667.129,902.544C664.15,899.657 662.654,896.128 662.654,891.969L662.654,791.619C662.654,786.736 661.708,782.082 659.808,777.653C657.908,773.224 655.292,769.378 651.946,766.124C648.596,762.869 644.708,760.294 640.283,758.394C635.85,756.499 631.104,755.549 626.042,755.549C620.979,755.549 616.233,756.499 611.804,758.394C607.375,760.294 603.533,762.869 600.275,766.124C597.021,769.378 594.446,773.224 592.546,777.653C590.65,782.082 589.696,786.736 589.696,791.619L589.696,891.969C589.696,896.128 588.296,899.657 585.5,902.544C582.692,905.436 579.213,906.886 575.058,906.886C570.892,906.886 567.367,905.436 564.479,902.544C561.583,899.657 560.137,896.128 560.137,891.969L560.137,791.619ZM947.967,734.665C950.854,728.699 955.379,725.715 961.529,725.715C964.6,725.715 967.358,726.619 969.8,728.428C972.242,730.236 974.004,732.319 975.087,734.665L1039.64,886.54C1040.54,888.715 1040.99,890.611 1040.99,892.236C1040.99,895.678 1039.68,898.978 1037.06,902.136C1034.44,905.303 1030.86,906.886 1026.35,906.886C1019.65,906.886 1015.14,903.899 1012.78,897.936L995.971,857.799L927.35,857.799C924.458,864.486 921.617,871.178 918.812,877.865C916.008,884.557 913.25,891.244 910.538,897.936C909.092,901.011 907.196,903.269 904.842,904.715C902.492,906.161 899.871,906.886 896.979,906.886C892.454,906.886 888.883,905.303 886.263,902.136C883.642,898.978 882.333,895.678 882.333,892.236C882.333,891.336 882.421,890.34 882.604,889.257C882.779,888.169 883.054,887.265 883.417,886.54L947.967,734.665ZM168.979,615.396C165.378,613.646 162.093,611.103 159.4,607.794C149.471,595.632 151.308,577.728 163.467,567.815C175.625,557.907 193.533,559.732 203.458,571.894C213.363,584.053 211.538,601.957 199.383,611.878C191.677,618.141 181.675,619.714 172.86,616.94L146.263,672.208C152.699,675.54 158.574,680.215 163.446,686.186C169.474,693.588 173.241,702.099 174.83,710.878L265.479,688.519C264.918,686.821 264.553,685.029 264.412,683.165C263.487,670.878 272.704,660.153 285.004,659.224C297.296,658.303 308.017,667.519 308.946,679.828C309.867,692.115 300.65,702.84 288.35,703.757C279.405,704.43 271.296,699.733 267.184,692.39L175.417,715.025C177.232,732.697 170.407,750.918 155.621,762.986C154.243,764.106 152.827,765.147 151.379,766.111L170.594,798.209C171.908,797.874 173.305,797.768 174.733,797.932C181.013,798.657 185.508,804.344 184.783,810.615C184.046,816.894 178.379,821.386 172.1,820.674C165.821,819.944 161.321,814.269 162.05,807.986C162.435,804.631 164.238,801.784 166.792,799.97L147.825,768.286C131.563,777.403 111.947,777.433 95.873,769.057L62.122,817.453C68.507,823.518 72.747,831.883 73.454,841.357C74.975,861.615 59.796,879.274 39.538,880.794C19.275,882.319 1.621,867.132 0.104,846.869C-1.421,826.619 13.762,808.965 34.033,807.449C43.31,806.744 52.043,809.551 58.929,814.747L92.24,766.981C87.274,763.884 82.727,759.928 78.825,755.136C62.11,734.667 62.756,705.722 78.896,686.062L50.093,662.479C48.766,663.913 47.157,665.131 45.296,666.04C37.204,669.999 27.446,666.644 23.488,658.557C19.533,650.482 22.888,640.719 30.971,636.757C39.054,632.799 48.817,636.149 52.775,644.232C55.158,649.117 54.884,654.615 52.511,659.074L81.663,682.943C83.206,681.332 84.865,679.798 86.637,678.353C102.873,665.121 124.446,662.783 142.492,670.436L168.979,615.396ZM961.529,777.786C959.538,782.128 957.683,786.328 955.967,790.399C954.25,794.469 952.483,798.49 950.675,802.465C948.871,806.449 947.062,810.515 945.254,814.674C943.446,818.832 941.546,823.261 939.558,827.965L983.225,827.965L961.529,777.786Z" style="fill:rgb(51,41,49);"></path> </g> </g> </g> </g> </g> </svg> 