<?xml version="1.0" encoding="UTF-8" standalone="no"?>
<!-- Created with Inkscape (http://www.inkscape.org/) -->

<svg
   width="90"
   height="45"
   viewBox="0 0 23.8125 11.90625"
   version="1.1"
   id="svg5"
   xml:space="preserve"
   inkscape:version="1.2.2 (b0a8486541, 2022-12-01)"
   sodipodi:docname="dcat_check.svg"
   xmlns:inkscape="http://www.inkscape.org/namespaces/inkscape"
   xmlns:sodipodi="http://sodipodi.sourceforge.net/DTD/sodipodi-0.dtd"
   xmlns="http://www.w3.org/2000/svg"
   xmlns:svg="http://www.w3.org/2000/svg"><sodipodi:namedview
     id="namedview7"
     pagecolor="#ffffff"
     bordercolor="#666666"
     borderopacity="1.0"
     inkscape:showpageshadow="2"
     inkscape:pageopacity="0.0"
     inkscape:pagecheckerboard="0"
     inkscape:deskcolor="#d1d1d1"
     inkscape:document-units="mm"
     showgrid="false"
     inkscape:zoom="8.0424924"
     inkscape:cx="59.434312"
     inkscape:cy="30.774042"
     inkscape:window-width="1920"
     inkscape:window-height="1032"
     inkscape:window-x="0"
     inkscape:window-y="25"
     inkscape:window-maximized="1"
     inkscape:current-layer="layer1" /><defs
     id="defs2" /><g
     inkscape:label="Ebene 1"
     inkscape:groupmode="layer"
     id="layer1"
     transform="translate(-32.996736,-57.32661)"><g
       aria-label="DCAT"
       id="text790"
       style="font-weight:800;font-size:4.9389px;line-height:1.25;font-family:'Open Sans';-inkscape-font-specification:'Open Sans Ultra-Bold';letter-spacing:0px;word-spacing:0px;fill:#003064;stroke-width:0.264583"
       transform="matrix(1.2325799,0,0,1.2325799,-10.222126,-15.079652)"><path
         d="m 39.279132,62.095209 q 0,0.882635 -0.487138,1.360127 -0.484726,0.477491 -1.36495,0.477491 h -1.140673 v -3.525719 h 1.220255 q 0.848874,0 1.309484,0.434083 0.463022,0.434083 0.463022,1.254018 z m -0.988745,0.03376 q 0,-0.484726 -0.192926,-0.718649 -0.190514,-0.23392 -0.581189,-0.23392 h -0.27733 v 1.975078 h 0.212218 q 0.434083,0 0.636655,-0.250804 0.202572,-0.253215 0.202572,-0.771703 z"
         id="path6088" /><path
         d="m 41.480897,61.137815 q -0.340032,0 -0.530546,0.279742 -0.190514,0.277331 -0.190514,0.76688 0,1.017684 0.774115,1.017684 0.233922,0 0.453375,-0.06511 0.219453,-0.06511 0.441318,-0.156752 v 0.805465 q -0.441318,0.195337 -0.998391,0.195337 -0.79823,0 -1.225079,-0.463021 -0.424436,-0.463022 -0.424436,-1.338423 0,-0.547427 0.204983,-0.962217 0.207395,-0.414791 0.593247,-0.636655 0.388263,-0.224277 0.911574,-0.224277 0.571543,0 1.092443,0.248392 l -0.291801,0.749999 q -0.195337,-0.09164 -0.390674,-0.15434 -0.195338,-0.0627 -0.419614,-0.0627 z"
         id="path6090" /><path
         d="M 45.279124,63.932827 45.10549,63.272056 h -1.145497 l -0.178456,0.660771 h -1.046622 l 1.15032,-3.540188 h 1.270898 l 1.16479,3.540188 z m -0.371383,-1.44212 -0.151929,-0.578778 q -0.05305,-0.192925 -0.130225,-0.499195 -0.07476,-0.30627 -0.09887,-0.438906 -0.0217,0.12299 -0.08682,0.405144 -0.0627,0.282154 -0.282154,1.111735 z"
         id="path6092" /><path
         d="m 48.257415,63.932827 h -0.952571 v -2.746781 h -0.860931 v -0.778938 h 2.672022 v 0.778938 h -0.85852 z"
         id="path6094" /></g><path
       d="m 52.199316,59.434312 q 0.101059,0 0.154568,0.166457 0.101059,0.315081 0.14565,0.315081 0.03567,0 0.07134,-0.05351 0.731223,-1.073057 1.352467,-1.527842 0.264549,-0.193211 0.514235,-0.193211 0.329943,0 0.395336,0.02081 0.02973,0.0059 0.02973,0.06539 0,0.04458 -0.05945,0.115924 -1.673493,1.917234 -1.991545,2.496863 -0.109983,0.199155 -0.505317,0.199155 -0.130788,0 -0.273466,-0.06837 -0.05945,-0.0327 -0.208072,-0.398309 -0.187265,-0.463703 -0.187265,-0.81148 0,-0.127815 0.18132,-0.211044 0.255631,-0.115924 0.380474,-0.115924 z"
       id="path6097"
       style="font-size:4.9389px;line-height:1.25;font-family:'Liberation Mono';-inkscape-font-specification:'Liberation Mono';letter-spacing:0px;word-spacing:0px;fill:#1eae9c;stroke-width:0.32612" /><path
       id="path3058-6"
       style="color:#000000;text-indent:0;text-transform:none;fill:#a4adb6;stroke-width:0.0264399"
       d="m 49.670054,60.969057 c -0.698598,0 -1.397328,0.265113 -1.928402,0.796188 -1.062149,1.062121 -1.063364,2.795767 -0.0012,3.857861 0.931139,0.931113 2.377248,1.045916 3.435616,0.344514 l 1.610672,1.610619 c 0.212541,0.212537 0.554447,0.212537 0.766972,0 0.212543,-0.212535 0.212543,-0.554419 0,-0.766971 l -1.609456,-1.61062 c 0.700581,-1.058208 0.585038,-2.504715 -0.345757,-3.435614 -0.531045,-0.531048 -1.229802,-0.796189 -1.928373,-0.796189 z m -0.0012,0.718269 c 0.51217,2.39e-4 1.024234,0.196383 1.41708,0.589215 0.785691,0.785666 0.786907,2.049657 0.0012,2.835428 -0.78569,0.785665 -2.049708,0.785665 -2.835425,0 -0.785692,-0.785666 -0.785692,-2.04963 0,-2.835428 0.392845,-0.392845 0.90491,-0.589479 1.417079,-0.589215 z m -1.445105,2.623483 a 0.07792401,0.07792136 0 0 0 -0.06695,0.112005 c 0.271407,0.568195 0.852056,0.960513 1.522998,0.960513 0.145589,0 0.286663,-0.01894 0.421242,-0.05357 a 0.07792401,0.07792136 0 0 0 -0.0023,-0.150957 c -0.67413,-0.150572 -1.293117,-0.446361 -1.823716,-0.85219 a 0.07792401,0.07792136 0 0 0 -0.05113,-0.01583 z" /></g></svg>
