<?xml version="1.0" encoding="UTF-8"?>
<svg id="Ebene_1" data-name="Ebene 1" xmlns="http://www.w3.org/2000/svg" viewBox="0 0 1148.71 162.31">
  <defs>
    <style>
      .cls-1 {
        fill: #219572;
      }

      .cls-1, .cls-2 {
        stroke-width: 0px;
      }

      .cls-2 {
        fill: #eb5d40;
      }
    </style>
  </defs>
  <path class="cls-2" d="m841.06,32.84h-93.95c-4.05,0-9.07.79-11.94,1.87-3.16,1.19-7.19,4.11-9.17,6.64-1.84,2.37-3.93,6.73-4.36,10.49-.17,1.55-.27,5.85.57,8.53.65,2.08,2.3,5.14,3.52,6.9,1.7,2.44,3.74,4.38,6.83,6.51,2.52,1.73,5.35,2.76,8.34,3.86,1.51.55,3.07,1.12,4.72,1.82.73.31,1.53.64,2.39.99,3.86,1.59,10.33,4.25,12.77,6.54.24.23.49.44.76.63.73.54,1.26,1.2,2.28,2.81.38.6.79,2.07,1.09,3.15.1.35.19.69.29,1.01.34,1.16.5,2.32.5,3.53,0,2.22-.63,4.25-1.91,6.18-1.26,1.9-3.23,3.39-6,4.56-3.27,1.37-7.07,2.06-11.3,2.06h-29.12c-4.85,0-8.78,3.85-8.78,8.6s3.93,8.6,8.78,8.6h29.12c6.62,0,12.75-1.16,18.22-3.45,5.99-2.52,10.64-6.21,13.81-11,3.15-4.75,4.75-9.98,4.75-15.55,0-2.79-.4-5.57-1.18-8.26l-.24-.84c-.58-2.08-1.38-4.93-3.09-7.63-1.42-2.25-3.19-4.83-6.22-7.19-4.8-4.29-12.25-7.36-17.72-9.61-.8-.33-1.55-.63-2.22-.92-2.07-.88-3.93-1.55-5.57-2.15-1.74-.63-3.71-1.36-4.38-1.81-1.79-1.23-2.17-1.78-2.42-2.14-.33-.47-.83-1.39-1.11-1.99-.04-.57-.06-1.4-.03-1.8.11-.47.51-1.38.81-1.88.42-.37,1.21-.92,1.64-1.15.9-.27,3.51-.71,5.57-.71h94.04c.07,0,.14,0,.22,0,4.55-.13,12.07,1.5,12.87,4.12.11.42.21,1.04.3,1.81-.07.43-.11.86-.11,1.31,0,0-.08.21-.43.6-.35.41-.73.75-1.12,1.01-.47.32-1.09.61-1.83.89-1.21.45-2.64.92-4.26,1.41-1.54.47-3.46.93-5.72,1.39-.04,0-.07.02-.11.02-8.19,1.75-14.04,3.13-17.88,4.2-3.85,1.08-7.3,2.2-10.24,3.32-3.26,1.25-6.43,2.86-9.41,4.79-3.23,2.1-5.74,4.23-7.66,6.53-1.91,2.29-3.44,4.86-4.56,7.66-1.18,2.96-1.78,6.17-1.78,9.56,0,5.63,1.58,10.9,4.69,15.67,3.24,4.97,8.06,8.66,14.32,10.97,5.53,2.04,12.64,3.03,21.75,3.03,2.57,0,5.32-.1,8.19-.29l1.02-.06c1.46-.09,1.82-.15,3.73-.48l1.67-.28c4.78-.81,7.98-5.27,7.14-9.95-.83-4.68-5.38-7.81-10.16-7l-1.71.29c-.7.12-1.02.18-1.27.21-.13.01-.26.02-.47.03l-1.17.08c-2.46.17-4.81.25-6.98.25-8.54,0-13.17-1.05-15.55-1.92-2.68-.99-4.55-2.34-5.72-4.14-1.29-1.99-1.93-4.08-1.93-6.4,0-1.25.19-2.33.57-3.3.46-1.14,1.05-2.13,1.8-3.04.53-.64,1.62-1.69,3.76-3.08,1.94-1.26,3.99-2.31,6.1-3.11,2.43-.93,5.35-1.87,8.67-2.8,3.42-.95,9.06-2.28,16.76-3.93,2.78-.56,5.24-1.16,7.29-1.78,1.24-.37,2.39-.74,3.47-1.11.2,12.36.15,28-.1,42.59-.08,4.75,3.78,8.66,8.63,8.74h.15c4.78,0,8.69-3.75,8.78-8.45.31-18.27.76-61.67-1.78-70.07-4.96-16.35-26.93-16.54-30.03-16.47"/>
  <path class="cls-2" d="m1101.48,0c-4.95,0-8.96,3.93-8.96,8.78v31.3h0c0,.42-.07.85-.21,1.29-.15.47-.43.99-.81,1.53-.43.62-.89,1.12-1.35,1.5-.47.39-1.08.75-1.81,1.08-1.23.56-2.7,1.15-4.35,1.76-1.56.57-3.51,1.15-5.8,1.72-.04,0-.09.02-.13.03-8.53,2.24-14.62,3.99-18.59,5.35-4.02,1.38-7.62,2.81-10.7,4.25-3.42,1.6-6.72,3.66-9.8,6.11-3.24,2.58-5.84,5.28-7.72,8.03-1.84,2.7-3.31,5.72-4.37,8.98-1.09,3.34-1.65,6.99-1.65,10.83,0,6.61,1.17,11.5,4.06,16.9,3.21,6.04,8.74,11.16,15.14,14.06,6.64,3,14.33,4.53,22.87,4.53,2.71,0,5.6-.13,8.61-.38.58-.05.89-.06,1.1-.07,1.29-.06,1.86-.19,3.4-.51l1.73-.37c4.84-1.01,7.93-5.67,6.9-10.41-1.03-4.74-5.79-7.77-10.63-6.76l-1.8.38c-.3.06-.51.11-.68.14-.32.02-.78.04-1.54.11-2.5.21-4.89.31-7.09.31-5.92,0-11.09-.98-15.35-2.91-2.8-1.27-5.4-3.66-6.78-6.25-1.53-2.87-2.02-5-2.02-8.78,0-2.03.27-3.87.8-5.48.55-1.7,1.29-3.23,2.21-4.57.88-1.29,2.26-2.68,4.1-4.15,2-1.58,4.1-2.9,6.25-3.91,2.48-1.16,5.47-2.34,8.88-3.51,3.49-1.2,9.3-2.86,17.25-4.94,2.92-.72,5.5-1.49,7.66-2.29.78-.28,1.51-.57,2.23-.85v56.43c0,4.85,4.01,8.78,8.96,8.78s8.96-3.93,8.96-8.78V8.78C1110.44,3.93,1106.43,0,1101.48,0"/>
  <path class="cls-2" d="m1003.72,25.67c7.22,0,13.1-5.76,13.1-12.84s-5.88-12.83-13.1-12.83-13.1,5.76-13.1,12.83,5.88,12.84,13.1,12.84"/>
  <path class="cls-2" d="m1018.27,50.38c.11-7.36-3.4-13.39-9.39-16.12-5.72-2.61-12.67-1.55-17.7,2.71-.71.6-1.3,1.29-1.76,2.04l-47.07,65.46-48.92-68.2c-2.78-3.89-8.26-4.83-12.23-2.09-3.97,2.73-4.92,8.09-2.14,11.98l56.09,78.21c1.64,2.29,4.32,3.65,7.18,3.66h0c2.86,0,5.54-1.36,7.18-3.65l51.17-71.16c-.05,13.91.02,63.88.02,66.22,0,4.75,3.94,8.59,8.78,8.59h.01c4.85,0,8.78-3.86,8.77-8.61,0-.63-.09-63.05,0-69.03"/>
  <path class="cls-2" d="m689.09,25.67c7.22,0,13.1-5.76,13.1-12.84s-5.88-12.83-13.1-12.83-13.1,5.76-13.1,12.83,5.88,12.84,13.1,12.84"/>
  <path class="cls-2" d="m702.75,50.38c.11-7.36-3.4-13.39-9.39-16.12-5.72-2.61-12.67-1.55-17.7,2.71-.71.6-1.29,1.29-1.76,2.03l-47.07,65.47-48.92-68.2c-2.78-3.89-8.26-4.83-12.23-2.09-3.97,2.73-4.93,8.09-2.14,11.98l56.09,78.21c1.64,2.29,4.32,3.65,7.18,3.66h0c2.86,0,5.54-1.36,7.18-3.65l51.17-71.16c-.05,13.91.02,63.88.02,66.22,0,4.75,3.94,8.59,8.78,8.59h.01c4.85,0,8.78-3.86,8.77-8.61,0-.63-.09-63.05,0-69.02"/>
  <path class="cls-2" d="m1144.09,17.79c0,.11-.03.28-.06.39-.02.08-.05.19-.09.26,0,.04-.11.15-.23.25-.05.06-.31.22-.59.36-.17.1-.6.28-.96.39-.22.08-.74.2-1.16.27-.42.07-.85.1-1.3.1-.69.05-1.87-.14-2.64-.42-.72-.26-1.33-.65-1.6-.92-.13-.13-.34-.13-.47,0-.16.24-.88.65-1.6.92-.76.28-1.65.42-2.64.42-.29.01-.88-.03-1.29-.1-.26-.01-.76-.11-1.11-.23-.23-.06-.64-.23-.92-.37-.22-.11-.5-.28-.61-.39-.11-.1-.25-.23-.31-.29-.15-.11-.42-.49-.59-.84-.24-.52-.39-1.04-.39-1.67-.06-.51.1-1.32.38-1.83.13-.36.68-.91,1.21-1.24.54-.32,1.21-.57,2.01-.73.48-.13,1.73-.24,2.79-.24l.81.08c.18.02.31-.11.28-.29,0-.32-.27-.91-.59-1.34-.5-.66-1.51-.99-2.45-.99-.34-.02-.9.06-1.25.18-.24.08-.65.26-.9.4-.18.1-.47.28-.65.41-.18.12-.35.18-.52.18-.11.03-.28-.1-.38-.31-.1-.2-.15-.56-.15-1.06,0-.15,0-.4.02-.55,0-.11.03-.28.06-.39.02-.08.06-.19.1-.26.02-.04.12-.14.22-.24.04-.06.29-.21.54-.34.16-.09.54-.25.87-.35.2-.08.67-.19,1.04-.25.37-.06.75-.09,1.14-.09.8-.05,2.1.13,2.89.4.56.13,1.47.69,2.06,1.24.06.06.11.12.13.15.02.02.04.02.06,0,.02-.03.08-.09.14-.15.34-.42,1.26-.97,2.05-1.24.79-.27,1.66-.4,2.61-.4.25,0,.76.03,1.14.09.25.03.72.14,1.04.25.22.06.61.22.87.35.2.09.44.24.54.34.08.07.18.18.22.24.03.04.08.15.1.26.02.06.04.23.06.39.02.15.02.34.02.55.02.38-.05.86-.14,1.06-.1.21-.22.31-.38.31-.1.02-.34-.06-.52-.18-.11-.08-.4-.26-.65-.41-.15-.1-.55-.28-.9-.4-.35-.12-.76-.18-1.25-.18-.7-.11-1.67.33-2.17.99s-.75,1.62-.75,2.89c-.02.44.06,1.18.19,1.66.06.34.31.88.56,1.2.14.24.55.57.93.73.37.16.8.24,1.29.24.35.02.93-.07,1.29-.2.25-.08.68-.28.95-.45.19-.12.5-.32.68-.45.18-.13.34-.2.47-.2.06,0,.16.02.22.07.04.02.1.12.13.24.03.06.06.27.08.45.02.18.03.42.03.7,0,.16,0,.42-.02.57M1148.38,0h-26.38c-.19,0-.33.14-.33.32v25.84c0,.18.15.32.33.32h26.38c.18,0,.33-.15.33-.32V.33c0-.18-.15-.32-.33-.32"/>
  <path class="cls-2" d="m1130,14.27c-.26.03-.64.17-.87.31-.17.08-.39.3-.49.5-.1.12-.17.42-.15.67-.03.32.17.76.46.98.3.2.9.38,1.33.41.43.04,1.14-.13,1.58-.38.56-.32.87-.9.87-.9,0,0,.31-.4.43-1.68h-1.88c-.35-.01-.93.03-1.29.1"/>
  <path class="cls-1" d="m473.64,128.01c1.2,0,2.17-.36,2.89-1.08.73-.72,1.08-1.68,1.08-2.89v-50.37c0-9.63,2.62-17.18,7.85-22.65,5.24-5.48,12.12-8.22,20.67-8.22,9.03,0,15.89,2.74,20.58,8.22,4.69,5.48,7.04,13.03,7.04,22.65v50.37c0,1.21.36,2.17,1.09,2.89.72.72,1.68,1.08,2.89,1.08h3.07c1.2,0,2.17-.36,2.89-1.08.72-.72,1.08-1.68,1.08-2.89v-51.27c0-7.7-1.35-14.59-4.06-20.67-2.71-6.07-6.8-10.89-12.28-14.44-5.48-3.55-12.31-5.32-20.49-5.32-7.7,0-13.87,1.32-18.5,3.97-4.64,2.65-8.57,6.08-11.83,10.29v-8.48c0-1.2-.36-2.17-1.08-2.89-.72-.72-1.69-1.08-2.89-1.08h-3.07c-1.21,0-2.17.36-2.89,1.08-.72.72-1.09,1.69-1.09,2.89v85.93c0,1.21.36,2.17,1.09,2.89.72.72,1.68,1.08,2.89,1.08h3.07Zm-89.17-53.25c0-6.02,1.11-11.43,3.34-16.25,2.22-4.81,5.47-8.63,9.75-11.46,4.27-2.83,9.41-4.24,15.43-4.24s11.19,1.42,15.53,4.24c4.33,2.83,7.64,6.65,9.93,11.46,2.29,4.82,3.43,10.23,3.43,16.25v.72h-57.41v-.72Zm43.87,52.71c4.57-1.56,8.45-3.55,11.65-5.96,3.19-2.4,5.65-4.84,7.4-7.31,1.74-2.47,2.67-4.54,2.8-6.23.12-1.08-.21-1.96-.99-2.62-.79-.66-1.72-.99-2.8-.99h-2.89c-1.32,0-2.29.15-2.89.45-.6.3-1.44,1.23-2.53,2.8-.6.96-1.93,2.38-3.97,4.24-2.05,1.87-4.78,3.58-8.21,5.14-3.43,1.57-7.74,2.35-12.91,2.35-5.78,0-10.77-1.53-14.98-4.6-4.21-3.07-7.46-7.04-9.75-11.91-2.29-4.87-3.55-10.02-3.79-15.44v-1.81h64.27c1.2,0,2.19-.36,2.98-1.08.78-.72,1.17-1.68,1.17-2.89v-2.71c0-9.63-1.6-17.93-4.78-24.91-3.19-6.98-7.74-12.33-13.63-16.07-5.9-3.73-13.06-5.6-21.48-5.6-7.82,0-14.59,1.75-20.31,5.24-5.72,3.49-10.2,8.37-13.45,14.62-3.25,6.26-5.18,13.48-5.78,21.66-.12,1.81-.18,4.21-.18,7.22s.06,5.42.18,7.22c.96,12.4,4.87,22.42,11.73,30.06,6.86,7.65,16.12,11.46,27.8,11.46,5.65,0,10.77-.78,15.34-2.35m-123.02-12.82c-4.27-3.13-7.46-7.04-9.57-11.73-2.11-4.69-3.22-9.45-3.34-14.26-.12-1.81-.18-4.15-.18-7.04s.06-5.24.18-7.04c.24-4.93,1.35-9.84,3.34-14.71,1.99-4.88,5.08-8.94,9.3-12.19,4.21-3.25,9.75-4.87,16.61-4.87s12.69,1.57,16.79,4.69c4.09,3.13,7.04,7.22,8.85,12.28,1.81,5.05,2.82,10.47,3.07,16.25.12,3.37.12,6.74,0,10.11-.24,5.78-1.26,11.19-3.07,16.25-1.81,5.05-4.76,9.15-8.85,12.28-4.09,3.13-9.69,4.69-16.79,4.69-6.62,0-12.07-1.56-16.34-4.69m-16.88,47.66c1.2,0,2.17-.36,2.89-1.08s1.08-1.69,1.08-2.89v-42.78c3.01,3.97,6.95,7.34,11.82,10.11,4.87,2.77,11.04,4.15,18.51,4.15s13.06-1.24,17.87-3.7c4.81-2.47,8.72-5.75,11.73-9.84,3-4.09,5.24-8.67,6.68-13.72s2.22-10.23,2.35-15.53c.12-1.81.18-3.79.18-5.96s-.06-4.15-.18-5.96c-.12-5.29-.9-10.47-2.35-15.53s-3.67-9.63-6.68-13.72c-3.01-4.09-6.92-7.37-11.73-9.84-4.82-2.47-10.77-3.7-17.87-3.7-7.47,0-13.63,1.36-18.51,4.06-4.87,2.7-8.82,6.11-11.82,10.2v-8.48c0-1.2-.36-2.17-1.08-2.89s-1.69-1.08-2.89-1.08h-3.07c-1.21,0-2.17.36-2.89,1.08s-1.08,1.69-1.08,2.89v120.23c0,1.2.36,2.17,1.08,2.89s1.68,1.08,2.89,1.08h3.07Zm-80.51-51.09c-5.3-5.42-8.12-13.24-8.49-23.47-.12-1.81-.18-4.03-.18-6.68s.06-4.87.18-6.68c.36-10.35,3.19-18.2,8.49-23.56,5.29-5.35,12.15-8.03,20.58-8.03s15.28,2.68,20.58,8.03c5.29,5.35,8.12,13.21,8.48,23.56.12,1.81.18,4.03.18,6.68s-.06,4.87-.18,6.68c-.36,10.23-3.19,18.05-8.48,23.47-5.3,5.42-12.16,8.12-20.58,8.12s-15.29-2.71-20.58-8.12m42.33,13.18c5.83-3.61,10.29-8.54,13.36-14.8,3.07-6.26,4.72-13.24,4.96-20.94.12-1.81.18-4.33.18-7.58s-.06-5.78-.18-7.58c-.24-7.82-1.89-14.83-4.96-21.03-3.07-6.2-7.52-11.1-13.36-14.71-5.84-3.61-13.09-5.42-21.75-5.42s-15.92,1.81-21.75,5.42c-5.84,3.61-10.29,8.52-13.36,14.71-3.07,6.2-4.72,13.21-4.97,21.03-.12,1.81-.18,4.33-.18,7.58s.06,5.78.18,7.58c.24,7.7,1.9,14.68,4.97,20.94,3.07,6.26,7.52,11.19,13.36,14.8,5.83,3.61,13.09,5.42,21.75,5.42s15.91-1.81,21.75-5.42"/>
  <path class="cls-1" d="m164.57,81.61C164.57,36.66,127.73.22,82.28.22S0,36.66,0,81.61c0,36.46,24.24,67.31,57.65,77.67l15.18-50.69c-12.13-3.98-20.9-15.38-20.9-28.84,0-8.46,3.47-16.11,9.05-21.61,1.64-1.81,3.49-3.42,5.53-4.78.56-.37,1.2-.62,1.79-.96,1.05-.6,2.07-1.24,3.2-1.71.46-.19.97-.28,1.44-.44,1.33-.48,2.67-.96,4.08-1.25.02,0,.04,0,.06,0,1.89-.38,3.84-.58,5.85-.58h.02c15.48,0,28.13,11.78,29.3,26.73.23,1.51.39,3.04.39,4.61,0,12.95-8.12,23.98-19.54,28.34l15.2,50.69c32.68-10.78,56.27-41.22,56.27-77.17"/>
</svg>