<svg width="1339" height="1339" viewBox="0 0 1339 1339" fill="none" xmlns="http://www.w3.org/2000/svg">
<rect width="1339" height="1339" rx="324.289" fill="black"/>
<rect x="391" y="414" width="545" height="47" rx="23.5" fill="white"/>
<rect x="355" y="577.648" width="544" height="47.6335" rx="23.8167" fill="white"/>
<rect x="391" y="660" width="419" height="47" rx="23.5" fill="white"/>
<rect x="488" y="742" width="378" height="47" rx="23.5" fill="white"/>
<rect x="444" y="823.438" width="488" height="47.6335" rx="23.8167" fill="white"/>
<rect x="541" y="905.367" width="325" height="47.6335" rx="23.8167" fill="white"/>
<rect x="533" y="250" width="366" height="48" rx="24" fill="white"/>
<rect x="434" y="331.859" width="487" height="47.6335" rx="23.8167" fill="white"/>
<rect x="533" y="168" width="167" height="48" rx="24" fill="white"/>
<rect x="355" y="495.719" width="610" height="47.6335" rx="23.8167" fill="white"/>
<path d="M615.174 1148.9C611.889 1151.17 608.151 1152.87 603.96 1154C599.769 1155.25 595.012 1155.87 589.689 1155.87C581.533 1155.87 574.511 1154.17 568.621 1150.77C562.844 1147.37 558.087 1142.84 554.349 1137.18C550.611 1131.52 547.836 1125.12 546.024 1117.98C544.325 1110.73 543.476 1103.26 543.476 1095.55C543.476 1087.97 544.325 1080.55 546.024 1073.3C547.836 1066.05 550.611 1059.59 554.349 1053.93C558.087 1048.27 562.844 1043.73 568.621 1040.34C574.511 1036.94 581.533 1035.24 589.689 1035.24C595.012 1035.24 599.769 1035.81 603.96 1036.94C608.151 1038.07 611.889 1039.77 615.174 1042.04L609.227 1058.86C607.302 1057.72 605.206 1056.82 602.941 1056.14C600.675 1055.46 598.07 1055.12 595.125 1055.12C590.821 1055.12 587.14 1056.31 584.082 1058.69C581.137 1060.95 578.758 1063.95 576.946 1067.69C575.134 1071.43 573.831 1075.73 573.038 1080.6C572.245 1085.36 571.849 1090.23 571.849 1095.21C571.849 1100.08 572.245 1104.9 573.038 1109.66C573.944 1114.3 575.304 1118.49 577.116 1122.23C579.041 1125.97 581.477 1129.02 584.422 1131.4C587.367 1133.67 590.878 1134.8 594.955 1134.8C597.787 1134.8 600.336 1134.46 602.601 1133.78C604.866 1133.1 606.905 1132.2 608.717 1131.06L615.174 1148.9ZM705.838 1108.13C705.838 1115.04 704.932 1121.44 703.12 1127.33C701.421 1133.1 698.816 1138.14 695.304 1142.45C691.906 1146.64 687.602 1149.92 682.392 1152.3C677.295 1154.68 671.348 1155.87 664.552 1155.87C657.756 1155.87 651.753 1154.68 646.543 1152.3C641.446 1149.92 637.142 1146.64 633.63 1142.45C630.232 1138.14 627.627 1133.1 625.815 1127.33C624.116 1121.44 623.267 1115.04 623.267 1108.13C623.267 1101.22 624.116 1094.87 625.815 1089.1C627.627 1083.21 630.232 1078.17 633.63 1073.98C637.142 1069.79 641.446 1066.5 646.543 1064.12C651.753 1061.74 657.756 1060.55 664.552 1060.55C671.348 1060.55 677.295 1061.74 682.392 1064.12C687.602 1066.5 691.906 1069.79 695.304 1073.98C698.816 1078.17 701.421 1083.21 703.12 1089.1C704.932 1094.87 705.838 1101.22 705.838 1108.13ZM679.334 1107.62C679.334 1103.2 679.051 1099.12 678.484 1095.38C678.031 1091.53 677.238 1088.25 676.106 1085.53C674.973 1082.81 673.444 1080.72 671.518 1079.24C669.593 1077.66 667.271 1076.87 664.552 1076.87C661.834 1076.87 659.512 1077.66 657.586 1079.24C655.661 1080.72 654.132 1082.81 652.999 1085.53C651.866 1088.25 651.017 1091.53 650.451 1095.38C649.998 1099.12 649.771 1103.2 649.771 1107.62C649.771 1112.03 649.998 1116.17 650.451 1120.02C651.017 1123.76 651.866 1127.04 652.999 1129.87C654.132 1132.59 655.661 1134.74 657.586 1136.33C659.512 1137.92 661.834 1138.71 664.552 1138.71C667.271 1138.71 669.593 1137.92 671.518 1136.33C673.444 1134.74 674.973 1132.59 676.106 1129.87C677.238 1127.04 678.031 1123.76 678.484 1120.02C679.051 1116.17 679.334 1112.03 679.334 1107.62ZM766.902 1079.58C765.429 1078.79 763.843 1078.22 762.144 1077.88C760.445 1077.54 758.803 1077.37 757.217 1077.37C753.706 1077.37 751.044 1077.83 749.232 1078.73V1154H722.727V1067.35C727.032 1065.31 732.242 1063.67 738.358 1062.42C744.588 1061.18 751.78 1060.55 759.936 1060.55C761.974 1060.55 764.07 1060.61 766.222 1060.72C768.487 1060.84 770.3 1061.01 771.659 1061.23L766.902 1079.58ZM858.949 1105.58V1107.45C858.949 1107.9 858.893 1108.58 858.779 1109.49L803.731 1117.3C804.638 1123.76 807.073 1128.8 811.037 1132.42C815.002 1135.93 820.212 1137.69 826.668 1137.69C830.859 1137.69 835.05 1137.18 839.241 1136.16C843.432 1135.14 846.943 1133.9 849.775 1132.42L855.891 1149.07C851.587 1151.22 846.49 1152.87 840.6 1154C834.823 1155.25 828.763 1155.87 822.421 1155.87C815.058 1155.87 808.602 1154.68 803.052 1152.3C797.502 1149.92 792.858 1146.64 789.12 1142.45C785.382 1138.14 782.551 1133.1 780.625 1127.33C778.699 1121.44 777.737 1114.98 777.737 1107.96C777.737 1100.82 778.643 1094.36 780.455 1088.59C782.381 1082.7 785.156 1077.71 788.78 1073.64C792.405 1069.45 796.766 1066.22 801.863 1063.95C807.073 1061.69 813.019 1060.55 819.702 1060.55C832.615 1060.55 842.356 1064.52 848.925 1072.45C855.608 1080.26 858.949 1091.31 858.949 1105.58ZM833.804 1099.46C833.691 1091.99 832.445 1086.21 830.066 1082.13C827.687 1078.05 823.893 1076.02 818.683 1076.02C813.246 1076.02 809.055 1078.39 806.11 1083.15C803.278 1087.91 801.863 1094.19 801.863 1102.01V1104.39L833.804 1099.46Z" fill="white"/>
</svg>
