<?xml version="1.0" encoding="UTF-8"?><svg id="Ebene_1" xmlns="http://www.w3.org/2000/svg" viewBox="0 0 380 314.27"><defs><style>.cls-1,.cls-2{fill:#fff;}.cls-3{fill:#2558ff;}.cls-2{fill-rule:evenodd;}.cls-4{fill:#bd1d1d;}.cls-5{fill:#3e5389;}.cls-6{fill:#071233;}.cls-7{fill:#9c9b9b;}</style></defs><path id="SVGID" class="cls-5" d="m30.43,67.23c-3.37,3.22-7.91,4.8-13.62,4.8H1V14.43h11.35c4.58,0,8.06.53,10.52,1.63,2.46,1.1,4.39,2.76,5.83,4.99,1.44,2.23,2.12,4.73,2.12,7.49,0,2.57-.61,4.88-1.85,7s-3.06,3.82-5.48,5.11c2.99,1.02,5.3,2.19,6.92,3.59,1.63,1.36,2.87,3.03,3.78,4.96s1.36,4.05,1.36,6.32c-.04,4.61-1.74,8.51-5.11,11.73h0Zm-5.36-38.62c0-2.67-.92-4.73-2.78-6.25s-4.8-2.25-8.89-2.25h-6.71v18.57h3.32c4.04,0,7.02-.38,8.89-1.14,1.91-.76,3.39-1.94,4.5-3.55,1.14-1.64,1.68-3.43,1.68-5.38h0Zm1.91,20.38c-1.66-1.88-3.95-3.2-6.85-3.91-1.96-.45-5.34-.72-10.2-.72h-3.24v21.98h7.11c4.18,0,7.26-.41,9.22-1.24s3.5-2.11,4.71-3.84c1.17-1.73,1.77-3.61,1.77-5.65-.04-2.52-.87-4.74-2.52-6.62h0Zm20.26,23.04V12.91h5.68v59.12h-5.68Zm53.62-8.19c-1.37,2.99-3.46,5.31-6.23,7.01-2.78,1.71-6.23,2.54-10.42,2.54s-7.64-.83-10.45-2.54c-2.78-1.67-4.87-4.06-6.27-7.05-1.37-3.03-2.05-7.58-2.05-13.64v-20.58h5.68v19.94c0,4.85.26,8.22.79,10.04.79,2.62,2.26,4.66,4.48,6.22,2.19,1.52,4.82,2.27,7.88,2.27s5.61-.72,7.76-2.2c2.11-1.48,3.58-3.41,4.41-5.84.57-1.63.83-5.15.83-10.46v-19.97h5.69v20.96c0,5.87-.68,10.31-2.09,13.3h0Zm19.9-12.62c.11,4.96,1.71,9.02,4.74,12.2,3.07,3.18,6.86,4.74,11.33,4.74,2.16,0,4.28-.38,6.33-1.14,2.05-.76,3.79-1.74,5.23-2.99,1.44-1.25,2.99-3.26,4.66-6.06l4.62,2.43c-1.52,2.99-3.26,5.38-5.27,7.2-1.97,1.82-4.24,3.22-6.71,4.17-2.5.95-5.31,1.44-8.45,1.44-6.97,0-12.39-2.27-16.33-6.86-3.94-4.55-5.87-9.7-5.87-15.46,0-5.42,1.67-10.23,5-14.48,4.21-5.38,9.85-8.07,16.9-8.07s13.08,2.77,17.43,8.26c3.07,3.9,4.66,8.75,4.7,14.59h-38.32v.04Zm29.14-11.64c-1.4-1.74-3.26-3.15-5.57-4.24-2.31-1.06-4.74-1.59-7.28-1.59-4.21,0-7.77,1.36-10.8,4.06-2.2,1.97-3.87,4.89-5,8.83h31.8c-.68-2.96-1.74-5.27-3.15-7.05h0Z"/><path id="SVGID-2" class="cls-7" d="m202.55,125.86l-3.05-21.94-10.86,21.94h-.8l-10.97-22.13-3.01,22.13h-2.97l4.38-30.7h.5l12.45,25.18,12.34-25.18h.5l4.42,30.7h-2.93Zm10.31-10.99c.04,2.62.91,4.78,2.5,6.44,1.63,1.67,3.64,2.5,5.99,2.5,1.14,0,2.27-.19,3.37-.61s2.01-.95,2.77-1.59,1.59-1.74,2.46-3.18l2.46,1.29c-.8,1.59-1.74,2.84-2.77,3.83-1.06.99-2.24,1.71-3.56,2.2s-2.8.76-4.47.76c-3.68,0-6.56-1.21-8.64-3.64s-3.11-5.15-3.11-8.19.87-5.42,2.65-7.66c2.24-2.84,5.23-4.28,8.94-4.28s6.94,1.48,9.21,4.4c1.63,2.05,2.46,4.62,2.5,7.73h-20.31Zm15.43-6.37c-.76-.91-1.71-1.67-2.96-2.24-1.21-.57-2.5-.83-3.83-.83-2.24,0-4.13.72-5.72,2.12-1.17,1.02-2.05,2.58-2.65,4.66h16.83c-.34-1.55-.91-2.8-1.67-3.71h0Zm29.68,17.74v-4.23c-.87,1.48-2.24,2.58-3.75,3.34s-3.18,1.14-4.96,1.14c-3.18,0-5.91-1.17-8.19-3.49s-3.41-5.15-3.41-8.45,1.14-6.03,3.41-8.34,5.04-3.45,8.22-3.45c1.86,0,3.52.38,5.04,1.17s4.02,3.56,4.02,3.56v-13.09h3.03v31.46l-3.07.38h-.34Zm-2.09-18.11c-1.71-1.74-3.83-2.62-6.37-2.62-1.63,0-3.11.38-4.47,1.17s-2.46,1.9-3.26,3.34-1.21,2.96-1.21,4.55.42,3.11,1.21,4.55c.8,1.44,1.89,2.58,3.3,3.37,1.36.8,2.84,1.21,4.43,1.21s3.11-.42,4.51-1.21c1.44-.8,2.5-1.9,3.3-3.26.76-1.36,1.14-2.92,1.14-4.62.04-2.54-.83-4.7-2.58-6.48h0Zm14.55-10.04c-.45.45-1.02.72-1.71.72-.64,0-1.21-.23-1.67-.72-.45-.45-.68-1.02-.68-1.67,0-.68.23-1.21.68-1.71.45-.45,1.02-.72,1.67-.72.68,0,1.21.23,1.71.72.45.45.68,1.02.68,1.71.04.64-.23,1.17-.68,1.67h0Zm-.34,27.77h-3.03v-22.74h3.03v22.74h0Zm25.39.38v-4.23c-.84,1.48-2.2,2.58-3.72,3.34s-3.18,1.14-4.96,1.14c-3.18,0-5.91-1.17-8.19-3.49s-3.41-5.15-3.41-8.45,1.14-6.03,3.41-8.34,5.04-3.45,8.22-3.45c1.86,0,3.52.38,5.04,1.17s3.98,3.56,3.98,3.56v-4.37h3.03v22.74l-3.03.38h-.38Zm-2.01-18.11c-1.71-1.74-3.83-2.62-6.37-2.62-1.63,0-3.11.38-4.47,1.17s-2.46,1.9-3.26,3.34-1.21,2.96-1.21,4.55.42,3.11,1.21,4.55c.8,1.44,1.9,2.58,3.3,3.37,1.36.8,2.84,1.21,4.43,1.21s3.11-.42,4.51-1.21c1.44-.8,2.54-1.9,3.3-3.26s1.14-2.92,1.14-4.62c0-2.54-.83-4.7-2.58-6.48h0Zm38.71,17.73h-.57l-9.1-23.23-9.29,23.23h-.57l-8.68-30.7h3.16l6.28,22.13,8.8-22.13h.65l8.68,22.13,6.36-22.13h3.12l-8.84,30.7h0Zm16.59-27.77c-.45.45-1.02.72-1.71.72-.64,0-1.21-.23-1.67-.72-.45-.45-.68-1.02-.68-1.67,0-.68.23-1.21.68-1.71.45-.45,1.02-.72,1.67-.72.68,0,1.21.23,1.71.72.45.45.68,1.02.68,1.71.04.64-.19,1.17-.68,1.67h0Zm-.23,27.77h-3.03v-22.74h3.03v22.74h0Zm24.66,0h-3.75l-11.81-10.21v10.21h-3.03v-31.46h3.03v17.87l10.53-9.16h4.31l-12.48,10.84,13.2,11.9h0Zm5.43-27.77c-.45.45-1.02.72-1.71.72-.64,0-1.21-.23-1.67-.72-.45-.45-.72-1.02-.72-1.67,0-.68.23-1.21.72-1.71.45-.45,1.02-.72,1.67-.72s1.21.23,1.71.72c.45.45.72,1.02.72,1.71-.04.64-.27,1.17-.72,1.67h0Zm-.15,27.77h-3.03v-22.74h3.03v22.74h0Z"/><path id="SVGID-3" class="cls-5" d="m192.89,19.78c-1.52-.91-3.18-1.36-5-1.36-2.31,0-4.24.72-5.72,2.12-1.48,1.4-2.2,3.15-2.2,5.23,0,1.25.27,2.46.8,3.64s1.48,2.46,2.88,3.83c.76.72,3.22,2.65,7.47,5.76,5,3.68,8.41,6.97,10.27,9.85,1.86,2.88,2.77,5.76,2.77,8.68,0,4.17-1.59,7.81-4.78,10.92-3.18,3.07-7.05,4.62-11.6,4.62-3.49,0-6.67-.95-9.51-2.8s-5.5-5-7.88-9.4l4.89-2.96c3.45,6.37,7.43,9.51,11.98,9.51,1.93,0,3.75-.45,5.46-1.36,1.71-.91,2.99-2.12,3.87-3.64s1.33-3.11,1.33-4.81c0-1.93-.64-3.83-1.97-5.69-1.82-2.58-5.08-5.65-9.89-9.25-4.81-3.64-7.81-6.25-8.98-7.88-2.05-2.73-3.07-5.65-3.07-8.83,0-2.5.61-4.81,1.82-6.86,1.21-2.05,2.88-3.68,5.08-4.89,2.2-1.17,4.55-1.78,7.13-1.78,2.73,0,5.27.68,7.62,2.01,2.35,1.36,4.85,3.83,7.5,7.43l-4.7,3.56c-2.16-2.84-4.02-4.74-5.53-5.65h0Zm60.64,46.31c-4.28,4.4-9.44,6.56-15.46,6.56-3.41,0-6.52-.72-9.36-2.12-2.84-1.4-5.42-3.52-7.5-6.33v22.99h-5.69V28.83h5.69v7.93c1.93-2.99,4.43-5.23,7.24-6.71,2.8-1.48,5.95-2.24,9.44-2.24,6.06,0,11.26,2.2,15.54,6.56,4.32,4.36,6.48,9.63,6.48,15.77.04,6.25-2.12,11.6-6.37,15.96h0Zm-1.48-24.41c-1.52-2.73-3.6-4.81-6.18-6.33s-5.42-2.24-8.45-2.24c-4.74,0-8.75,1.67-11.98,4.96-3.26,3.3-4.85,7.43-4.85,12.39,0,3.22.72,6.14,2.16,8.72s3.52,4.62,6.22,6.14c2.69,1.52,5.53,2.27,8.57,2.27s5.72-.76,8.3-2.31c2.58-1.52,4.66-3.68,6.22-6.41,1.55-2.73,2.31-5.61,2.31-8.6,0-2.99-.76-5.87-2.31-8.6h0Zm17.28,29.97V28.83h5.68v42.83h-5.68Zm38.62-38.65c-5.19,0-9.51,1.67-12.96,5-3.45,3.34-5.15,7.39-5.15,12.17,0,3.11.8,6.03,2.39,8.79,1.59,2.73,3.75,4.85,6.52,6.37s5.84,2.27,9.25,2.27c6.25,0,11.37-2.5,15.35-7.5l4.36,2.88c-2.05,3.07-4.78,5.46-8.22,7.16-3.45,1.71-7.35,2.54-11.75,2.54-6.75,0-12.36-2.16-16.79-6.44-4.43-4.28-6.67-9.51-6.67-15.65,0-4.13,1.02-7.96,3.11-11.52,2.08-3.52,4.93-6.29,8.57-8.3,3.64-1.97,7.69-2.99,12.2-2.99,2.8,0,5.53.42,8.19,1.29,2.62.87,4.85,1.97,6.67,3.37,1.82,1.4,3.37,3.15,4.66,5.31l-4.36,2.69c-3.71-4.93-8.87-7.43-15.35-7.43h0Zm33.77,17.84c.11,4.96,1.71,9.02,4.74,12.2,3.07,3.18,6.86,4.74,11.33,4.74,2.16,0,4.28-.38,6.33-1.14s3.79-1.74,5.23-2.99c1.44-1.25,2.99-3.26,4.66-6.06l4.62,2.43c-1.52,2.99-3.26,5.38-5.27,7.2-1.97,1.82-4.24,3.22-6.71,4.17-2.5.95-5.31,1.44-8.45,1.44-6.97,0-12.39-2.27-16.33-6.86-3.94-4.55-5.87-9.7-5.87-15.46,0-5.42,1.67-10.23,4.96-14.48,4.21-5.38,9.85-8.07,16.9-8.07s13.08,2.77,17.43,8.26c3.07,3.9,4.66,8.75,4.7,14.59h-38.28v.04Zm29.22-12.01c-1.4-1.74-3.26-3.15-5.57-4.24-2.31-1.06-4.74-1.59-7.28-1.59-4.21,0-7.81,1.36-10.8,4.06-2.2,1.97-3.87,4.89-5,8.83h31.8c-.68-2.96-1.74-5.31-3.15-7.05h0Z"/><polygon class="cls-4" points="275.13 19.63 286.46 0 268.57 18 269.44 21.15 275.13 19.63"/><g id="Layer_1-2"><rect class="cls-3" x="1.38" y="209.26" width="105.01" height="105.01" rx="15.75" ry="15.75"/><path class="cls-6" d="m132.02,307.91v-19.7h2.87v7.33h.18c.16-.31.41-.66.72-1.07.31-.41.74-.76,1.31-1.07.56-.3,1.3-.46,2.21-.46,1.19,0,2.26.3,3.2.91s1.67,1.48,2.21,2.6.8,2.51.8,4.1-.27,2.97-.8,4.1-1.26,2.02-2.19,2.63-1.99.92-3.18.92c-.89,0-1.62-.15-2.19-.45-.57-.3-1.02-.65-1.33-1.06-.32-.41-.57-.76-.74-1.07h-.24v2.3h-2.8,0Zm2.82-7.38c0,1.04.15,1.95.45,2.74.3.79.73,1.39,1.31,1.83.57.45,1.27.66,2.1.66s1.58-.23,2.15-.69c.58-.46,1.02-1.08,1.31-1.87.3-.79.45-1.68.45-2.67s-.15-1.86-.43-2.63-.73-1.39-1.31-1.84-1.3-.68-2.17-.68-1.54.22-2.11.65c-.57.43-1.02,1.03-1.3,1.8s-.45,1.67-.45,2.69Z"/><path class="cls-6" d="m150.03,313.45c-.43,0-.83-.03-1.18-.09s-.61-.14-.79-.22l.69-2.36c.53.14.99.2,1.41.18.41-.01.77-.18,1.1-.46.31-.28.6-.76.84-1.41l.35-.97-5.4-14.96h3.07l3.74,11.47h.15l3.74-11.47h3.09l-6.09,16.75c-.28.77-.64,1.42-1.08,1.96s-.96.93-1.56,1.21c-.61.27-1.3.41-2.1.41l.03-.03Z"/><path class="cls-6" d="m176.26,308.19c-1.19,0-2.26-.31-3.18-.92-.93-.61-1.67-1.49-2.19-2.63-.53-1.14-.8-2.51-.8-4.1s.27-2.97.8-4.1,1.27-2,2.21-2.6,1.99-.91,3.18-.91c.92,0,1.65.15,2.22.46.56.3,1,.66,1.31,1.07s.56.76.73,1.07h.18v-7.33h2.87v19.7h-2.8v-2.3h-.24c-.18.31-.42.68-.74,1.07-.33.41-.77.76-1.33,1.06-.57.3-1.3.45-2.19.45h-.01Zm.64-2.45c.83,0,1.53-.22,2.1-.66.57-.43,1.02-1.04,1.31-1.83s.45-1.69.45-2.74-.15-1.92-.45-2.69-.73-1.37-1.3-1.8c-.57-.43-1.27-.65-2.11-.65s-1.58.23-2.17.68c-.58.45-1.02,1.06-1.3,1.84-.3.77-.43,1.65-.43,2.63s.15,1.87.45,2.67.73,1.41,1.31,1.87c.58.46,1.3.69,2.15.69h-.01Z"/><path class="cls-6" d="m194.04,308.21c-1.45,0-2.71-.31-3.75-.93s-1.86-1.5-2.42-2.64-.85-2.48-.85-4.01.28-2.84.85-3.99,1.37-2.06,2.38-2.71c1.03-.65,2.22-.97,3.59-.97.84,0,1.64.14,2.42.42.79.27,1.49.7,2.11,1.3s1.11,1.35,1.48,2.29c.35.93.54,2.09.54,3.41v1.02h-11.74v-2.15h8.92c0-.76-.15-1.42-.46-2.02-.31-.58-.74-1.06-1.3-1.39s-1.21-.51-1.95-.51c-.81,0-1.52.2-2.11.6-.6.39-1.06.91-1.38,1.54s-.49,1.31-.49,2.06v1.68c0,.99.18,1.83.53,2.52s.84,1.22,1.46,1.58,1.37.54,2.21.54c.54,0,1.04-.08,1.49-.23.45-.16.84-.39,1.16-.7.33-.31.58-.7.74-1.16l2.72.49c-.22.8-.61,1.5-1.16,2.1s-1.26,1.07-2.1,1.39c-.84.32-1.8.5-2.88.5h-.01Z"/><path class="cls-6" d="m209.95,308.21c-1.45,0-2.71-.31-3.75-.93s-1.86-1.5-2.42-2.64-.85-2.48-.85-4.01.28-2.84.85-3.99,1.37-2.06,2.38-2.71c1.03-.65,2.22-.97,3.59-.97.84,0,1.64.14,2.42.42.79.27,1.49.7,2.11,1.3s1.11,1.35,1.48,2.29c.35.93.54,2.09.54,3.41v1.02h-11.74v-2.15h8.92c0-.76-.15-1.42-.46-2.02-.31-.58-.74-1.06-1.3-1.39s-1.21-.51-1.95-.51c-.81,0-1.52.2-2.11.6-.6.39-1.06.91-1.38,1.54s-.49,1.31-.49,2.06v1.68c0,.99.18,1.83.53,2.52s.84,1.22,1.46,1.58,1.37.54,2.21.54c.54,0,1.04-.08,1.49-.23.45-.16.84-.39,1.16-.7.33-.31.58-.7.74-1.16l2.72.49c-.22.8-.61,1.5-1.16,2.1s-1.26,1.07-2.1,1.39c-.84.32-1.8.5-2.88.5h-.01Z"/><path class="cls-6" d="m219.48,313.45v-20.31h2.8v2.4h.24c.16-.31.41-.66.72-1.07s.74-.76,1.31-1.07,1.3-.46,2.21-.46c1.19,0,2.26.3,3.2.91s1.67,1.48,2.21,2.6c.54,1.12.8,2.51.8,4.1s-.27,2.97-.8,4.1-1.26,2.02-2.19,2.63-1.99.92-3.18.92c-.89,0-1.62-.15-2.19-.45s-1.02-.65-1.33-1.06c-.33-.41-.57-.76-.74-1.07h-.18v7.84h-2.87Zm2.82-12.92c0,1.04.15,1.95.45,2.74.3.79.73,1.39,1.31,1.83.57.45,1.27.66,2.1.66s1.58-.23,2.15-.69c.58-.46,1.02-1.08,1.31-1.87.3-.79.45-1.68.45-2.67s-.15-1.86-.43-2.63-.73-1.39-1.31-1.84-1.3-.68-2.17-.68-1.53.22-2.11.65c-.58.43-1.02,1.03-1.3,1.8s-.45,1.67-.45,2.69h0Z"/><path class="cls-6" d="m247.27,296.74l-2.6.46c-.11-.34-.28-.65-.51-.95-.23-.3-.56-.54-.95-.74-.39-.19-.89-.28-1.49-.28-.81,0-1.49.18-2.04.54s-.81.83-.81,1.39c0,.5.18.89.56,1.19.37.3.96.56,1.77.74l2.34.54c1.35.31,2.37.8,3.05,1.45.66.65,1,1.5,1,2.55,0,.88-.26,1.67-.76,2.36-.51.69-1.22,1.23-2.13,1.62s-1.96.58-3.16.58c-1.65,0-3.01-.35-4.05-1.06s-1.69-1.72-1.92-3.02l2.78-.42c.18.72.53,1.27,1.07,1.64s1.25.56,2.11.56c.95,0,1.69-.2,2.26-.6s.84-.88.84-1.45c0-.46-.18-.85-.51-1.16s-.87-.56-1.57-.72l-2.51-.56c-1.38-.31-2.4-.81-3.05-1.5-.66-.69-.99-1.56-.99-2.6,0-.87.24-1.64.73-2.29s1.16-1.16,2.02-1.53,1.84-.56,2.95-.56c1.6,0,2.86.35,3.76,1.03.92.69,1.52,1.61,1.81,2.76h-.01Z"/><path class="cls-6" d="m257.09,308.21c-1.45,0-2.71-.31-3.75-.93s-1.86-1.5-2.42-2.64-.85-2.48-.85-4.01.28-2.84.85-3.99,1.37-2.06,2.38-2.71c1.03-.65,2.22-.97,3.59-.97.84,0,1.64.14,2.42.42.79.27,1.49.7,2.11,1.3s1.11,1.35,1.48,2.29c.35.93.54,2.09.54,3.41v1.02h-11.74v-2.15h8.92c0-.76-.15-1.42-.46-2.02-.31-.58-.74-1.06-1.3-1.39s-1.21-.51-1.95-.51c-.81,0-1.52.2-2.11.6-.6.39-1.06.91-1.38,1.54s-.49,1.31-.49,2.06v1.68c0,.99.18,1.83.53,2.52s.84,1.22,1.46,1.58,1.37.54,2.21.54c.54,0,1.04-.08,1.49-.23.45-.16.84-.39,1.16-.7.33-.31.58-.7.74-1.16l2.72.49c-.22.8-.61,1.5-1.16,2.1s-1.26,1.07-2.1,1.39c-.84.32-1.8.5-2.88.5h-.01Z"/><path class="cls-6" d="m273.51,293.14v2.32h-8.07v-2.32h8.07Zm-5.9-3.53h2.87v13.97c0,.56.08.97.26,1.26.16.28.38.47.65.57s.56.15.87.15c.23,0,.43-.01.61-.05.18-.03.31-.05.41-.08l.51,2.37c-.16.07-.41.14-.72.2s-.69.11-1.15.11c-.76,0-1.46-.12-2.11-.41-.65-.28-1.18-.72-1.58-1.31s-.61-1.33-.61-2.22v-14.57h0Z"/><path class="cls-3" d="m138.46,238.4v18.86h-6.19v-42.34h6.09v15.76h.39c.74-1.71,1.88-3.06,3.41-4.08s3.53-1.5,6-1.5c2.18,0,4.09.45,5.71,1.34,1.64.89,2.9,2.23,3.81,4.01.91,1.77,1.35,3.98,1.35,6.62v20.2h-6.19v-19.46c0-2.33-.6-4.14-1.8-5.43s-2.87-1.94-5.01-1.94c-1.46,0-2.76.31-3.91.93-1.15.62-2.06,1.53-2.71,2.72s-.99,2.63-.99,4.31h.03Z"/><path class="cls-3" d="m176.57,257.97c-2.02,0-3.83-.38-5.46-1.12s-2.91-1.84-3.86-3.28-1.42-3.2-1.42-5.27c0-1.79.34-3.26,1.03-4.43s1.62-2.07,2.79-2.75c1.18-.68,2.48-1.19,3.93-1.53s2.92-.61,4.43-.79c1.9-.22,3.44-.41,4.63-.54,1.19-.15,2.04-.38,2.59-.72s.81-.87.81-1.61v-.15c0-1.8-.5-3.21-1.52-4.2-1.02-.99-2.52-1.49-4.52-1.49s-3.72.46-4.92,1.37c-1.19.92-2.02,1.94-2.46,3.05l-5.81-1.33c.69-1.92,1.69-3.49,3.03-4.69,1.33-1.19,2.86-2.06,4.6-2.6,1.73-.54,3.56-.81,5.48-.81,1.27,0,2.61.15,4.05.45s2.76.84,4.01,1.62c1.25.79,2.27,1.91,3.07,3.36.8,1.45,1.21,3.34,1.21,5.66v21.1h-6.04v-4.35h-.24c-.39.8-1,1.58-1.8,2.36-.8.77-1.83,1.41-3.09,1.92-1.26.51-2.76.77-4.51.77h-.01Zm1.34-4.97c1.71,0,3.17-.34,4.39-1.02,1.22-.68,2.15-1.56,2.79-2.65s.96-2.27.96-3.52v-4.09c-.22.22-.65.42-1.27.61-.62.19-1.34.34-2.14.47s-1.58.24-2.33.35c-.76.11-1.39.19-1.91.26-1.21.15-2.29.41-3.28.77-.99.35-1.77.87-2.36,1.54-.58.66-.88,1.56-.88,2.65,0,1.53.57,2.68,1.69,3.47s2.57,1.16,4.32,1.16h.01Z"/><path class="cls-3" d="m203.22,269.18c-.92,0-1.76-.07-2.52-.22s-1.33-.3-1.69-.46l1.49-5.06c1.12.3,2.14.43,3.02.39s1.67-.38,2.34-.99c.68-.62,1.29-1.64,1.81-3.03l.77-2.11-11.62-32.17h6.62l8.04,24.65h.33l8.04-24.65h6.64l-13.09,35.99c-.61,1.65-1.38,3.06-2.32,4.21-.93,1.15-2.06,2.02-3.34,2.6s-2.8.87-4.51.87h-.01Z"/><path class="cls-3" d="m256.1,233.26l-5.61.99c-.23-.72-.61-1.39-1.11-2.04-.5-.65-1.18-1.18-2.03-1.6-.85-.41-1.92-.62-3.21-.62-1.75,0-3.21.39-4.39,1.16-1.18.79-1.76,1.79-1.76,3.01,0,1.06.39,1.91,1.18,2.56s2.06,1.18,3.81,1.6l5.05,1.16c2.92.68,5.11,1.72,6.54,3.13s2.15,3.24,2.15,5.47c0,1.91-.54,3.6-1.64,5.08-1.1,1.48-2.61,2.64-4.56,3.48s-4.21,1.26-6.77,1.26c-3.56,0-6.46-.76-8.71-2.29s-3.63-3.68-4.13-6.5l5.97-.91c.37,1.56,1.14,2.74,2.29,3.52,1.16.8,2.67,1.19,4.52,1.19,2.03,0,3.64-.42,4.86-1.27,1.22-.84,1.81-1.88,1.81-3.11,0-.99-.37-1.83-1.11-2.51-.73-.68-1.87-1.19-3.39-1.53l-5.38-1.18c-2.97-.68-5.16-1.75-6.57-3.22-1.41-1.48-2.13-3.34-2.13-5.61,0-1.87.53-3.52,1.57-4.92,1.04-1.41,2.49-2.51,4.35-3.3,1.84-.79,3.97-1.19,6.35-1.19,3.43,0,6.13.74,8.11,2.22s3.28,3.47,3.91,5.94v.03Z"/><path class="cls-3" d="m278.32,225.51v4.97h-17.35v-4.97h17.35Zm-12.7-7.61h6.19v30.05c0,1.19.18,2.1.54,2.69s.83,1,1.39,1.22,1.19.32,1.87.32c.5,0,.93-.03,1.3-.11.37-.07.66-.12.87-.16l1.11,5.11c-.35.14-.87.28-1.53.42s-1.49.23-2.48.24c-1.62.03-3.14-.26-4.55-.87s-2.55-1.54-3.41-2.82-1.3-2.86-1.3-4.78v-31.32Z"/><path class="cls-3" d="m294.38,257.97c-2.02,0-3.83-.38-5.46-1.12s-2.91-1.84-3.86-3.28-1.42-3.2-1.42-5.27c0-1.79.34-3.26,1.03-4.43s1.62-2.07,2.79-2.75c1.18-.68,2.48-1.19,3.93-1.53,1.45-.34,2.92-.61,4.43-.79,1.9-.22,3.44-.41,4.63-.54,1.19-.15,2.04-.38,2.59-.72s.81-.87.81-1.61v-.15c0-1.8-.5-3.21-1.52-4.2-1.02-.99-2.52-1.49-4.52-1.49s-3.72.46-4.92,1.37c-1.19.92-2.02,1.94-2.46,3.05l-5.81-1.33c.69-1.92,1.69-3.49,3.03-4.69,1.33-1.19,2.86-2.06,4.6-2.6,1.73-.54,3.56-.81,5.48-.81,1.27,0,2.61.15,4.05.45s2.76.84,4.01,1.62c1.25.79,2.27,1.91,3.07,3.36.8,1.45,1.21,3.34,1.21,5.66v21.1h-6.04v-4.35h-.24c-.39.8-1,1.58-1.8,2.36-.8.77-1.83,1.41-3.09,1.92-1.26.51-2.76.77-4.51.77h-.01Zm1.34-4.97c1.71,0,3.17-.34,4.39-1.02,1.22-.68,2.15-1.56,2.79-2.65s.96-2.27.96-3.52v-4.09c-.22.22-.65.42-1.27.61-.62.19-1.34.34-2.14.47s-1.58.24-2.33.35c-.76.11-1.39.19-1.91.26-1.21.15-2.29.41-3.28.77-.99.35-1.77.87-2.36,1.54-.58.66-.88,1.56-.88,2.65,0,1.53.57,2.68,1.69,3.47s2.57,1.16,4.32,1.16h.01Z"/><path class="cls-3" d="m331.67,257.9c-3.07,0-5.71-.7-7.94-2.1s-3.91-3.33-5.09-5.8c-1.19-2.46-1.77-5.29-1.77-8.48s.61-6.08,1.81-8.54c1.22-2.48,2.92-4.4,5.13-5.8,2.21-1.39,4.81-2.09,7.8-2.09,2.41,0,4.56.45,6.45,1.33s3.41,2.14,4.58,3.74,1.86,3.47,2.07,5.61h-6.01c-.33-1.49-1.08-2.78-2.26-3.85-1.18-1.07-2.75-1.61-4.73-1.61-1.72,0-3.22.45-4.52,1.35-1.29.91-2.29,2.18-3.01,3.85s-1.07,3.63-1.07,5.88.35,4.32,1.06,6,1.69,2.98,2.99,3.9c1.29.92,2.8,1.38,4.56,1.38,1.18,0,2.23-.22,3.2-.65s1.76-1.06,2.42-1.87c.65-.81,1.11-1.79,1.38-2.94h6.01c-.22,2.06-.89,3.89-2,5.5-1.11,1.61-2.61,2.88-4.48,3.81s-4.06,1.38-6.57,1.38h-.01Z"/><path class="cls-3" d="m351.35,257.26v-42.34h6.19v42.34h-6.19Zm5.69-10.78l-.04-7.54h1.07l12.65-13.45h7.41l-14.44,15.3h-.97l-5.69,5.69h.01Zm14.37,10.78l-11.37-15.1,4.27-4.32,14.71,19.42h-7.6Z"/><path class="cls-2" d="m43.53,256.37v-20.35h-5.99v20.35h.03v5.99h26.87v25.16h5.99v-31.15h-26.89Z"/><path class="cls-1" d="m43.7,284.36c0,1.75-1.42,3.16-3.16,3.16s-3.16-1.42-3.16-3.16,1.41-3.16,3.16-3.16,3.16,1.42,3.16,3.16Z"/><rect class="cls-1" x="37.53" y="258.7" width="5.99" height="18.23"/></g><rect class="cls-5" y="170.95" width="150" height="3.25"/><rect class="cls-5" x="228.31" y="170.95" width="150" height="3.25"/><rect class="cls-5" x="168.94" y="170.95" width="39" height="3.25"/><rect class="cls-5" x="168.94" y="170.95" width="39" height="3.25" transform="translate(15.87 361.01) rotate(-90)"/></svg>