<?xml version="1.0" encoding="UTF-8"?>
<svg id="Layer_1" data-name="Layer 1" xmlns="http://www.w3.org/2000/svg" viewBox="0 0 536 261">
  <defs>
    <style>
      .cls-1 {
        fill: #fc0;
      }

      .cls-2 {
        fill: red;
      }
    </style>
  </defs>
  <g>
    <path d="M362.63,120.73c0,.38-.05.7-.14.98-.08.26-.21.51-.38.73-.15.2-.34.37-.56.49-.21.12-.43.22-.66.28v.03c.28.05.54.15.79.3.5.3.88.77,1.08,1.32.11.3.16.62.16.98,0,.43-.07.82-.22,1.17-.15.36-.38.67-.68.92-.34.28-.74.49-1.16.61-.47.15-1.02.22-1.67.22h-2.2v-10.78h2.08c.64,0,1.18.07,1.63.2.45.13.83.31,1.12.55.29.24.5.53.63.87.13.34.2.72.2,1.13M361.26,120.77c0-.5-.18-.91-.53-1.23-.35-.32-.91-.48-1.67-.48h-.72v3.72h.7c.73,0,1.28-.18,1.65-.53.38-.35.56-.84.56-1.47M361.46,125.74c0-.58-.19-1.04-.57-1.38-.38-.34-.92-.51-1.63-.51h-.92v3.78h.84c.8,0,1.38-.16,1.74-.48.36-.32.54-.79.54-1.41M369.83,128.75h-1.15v-.84h-.03c-.15.25-.36.46-.6.62-.18.12-.38.22-.59.29-.25.09-.5.13-.77.13-.31,0-.61-.05-.9-.15-.26-.1-.5-.26-.68-.48-.2-.25-.35-.54-.43-.85-.11-.42-.16-.85-.15-1.29v-4.92h1.27v4.83c0,.62.1,1.07.3,1.34.2.27.52.4.94.4.36,0,.67-.09.92-.27.25-.18.45-.36.59-.54v-5.75h1.27v7.5ZM375.86,128.75v-4.83c0-.64-.11-1.09-.32-1.37-.21-.28-.54-.41-.98-.41-.38,0-.69.09-.94.28-.22.16-.42.34-.59.55v5.78h-1.27v-7.5h1.16v.84h.03c.03-.06.1-.15.2-.27.1-.12.24-.23.41-.34.17-.11.36-.21.59-.29.23-.08.49-.13.78-.13.33,0,.64.05.91.15.27.1.5.26.69.48.19.22.33.5.44.85.1.35.16.78.16,1.29v4.92h-1.27ZM378.67,125.11c0-.76.1-1.39.3-1.91.2-.51.45-.92.77-1.23s.67-.53,1.06-.66c.4-.13.79-.2,1.19-.2.24,0,.45.02.62.06.18.04.32.08.44.13v-3.59l1.27-.14v11.18h-1.15v-.8h-.03c-.13.23-.3.43-.52.59-.17.12-.35.22-.55.28-.25.08-.51.12-.77.12-.35,0-.69-.07-1.01-.21-.33-.15-.62-.38-.84-.67-.26-.36-.46-.76-.57-1.19-.14-.48-.21-1.07-.21-1.76M381.64,127.82c.33,0,.66-.09.94-.27.18-.12.34-.28.47-.46v-4.62c-.12-.08-.26-.14-.4-.19-.15-.05-.34-.08-.57-.08-.29,0-.56.05-.82.15-.26.1-.49.27-.66.49-.21.26-.36.57-.45.89-.12.44-.17.89-.16,1.34,0,.52.04.95.13,1.3.09.35.21.63.37.84.14.19.32.35.53.46.2.09.41.14.62.14M391.06,123.79c0,.32-.01.6-.03.83-.02.21-.04.41-.06.62h-3.83c.04.89.23,1.54.57,1.95.34.42.83.62,1.46.62.37,0,.73-.09,1.05-.27.19-.1.37-.24.52-.39l.47.89-.23.23c-.13.12-.27.22-.42.3-.21.11-.43.2-.66.26-.3.08-.61.11-.92.11-.47,0-.89-.08-1.27-.23-.38-.16-.7-.4-.97-.73-.27-.33-.47-.74-.62-1.25-.15-.5-.22-1.11-.22-1.82,0-.67.08-1.24.23-1.73.15-.49.36-.88.62-1.19.26-.31.56-.55.91-.7.34-.15.71-.23,1.11-.23.72,0,1.28.23,1.69.68.41.45.61,1.13.61,2.04M388.68,122.1c-.43,0-.84.2-1.08.56-.27.37-.43.92-.47,1.62h2.73c.01-.05.02-.13.02-.23s0-.21,0-.32c0-.52-.1-.92-.31-1.21-.21-.29-.51-.43-.91-.43M395.98,122.77c-.14-.14-.29-.27-.45-.38-.22-.16-.5-.24-.86-.24-.33,0-.59.08-.77.23-.17.14-.27.34-.27.56,0,.28.08.51.24.7.16.18.41.38.74.59l.47.28c.51.3.91.63,1.2.98s.44.8.44,1.35c0,.59-.21,1.09-.62,1.5s-1,.61-1.77.61c-.3,0-.57-.03-.8-.09-.21-.05-.41-.13-.6-.22-.17-.08-.31-.17-.43-.27-.1-.08-.2-.18-.28-.27l.61-1c.06.06.14.13.23.22.21.2.47.35.74.44.16.05.34.08.55.08.37,0,.66-.08.86-.25s.3-.37.3-.61c0-.18-.02-.33-.07-.46-.05-.13-.12-.25-.21-.35-.09-.1-.21-.2-.35-.3-.13-.09-.29-.2-.47-.31l-.47-.3c-.47-.3-.83-.62-1.1-.95-.27-.33-.4-.76-.4-1.28,0-.28.05-.54.16-.77.11-.23.26-.44.46-.61.2-.17.43-.31.7-.41.27-.1.55-.15.85-.15s.54.03.75.09c.34.09.65.25.91.48.1.09.18.16.24.23l-.55.91ZM402.15,128.75v-4.83c0-.61-.09-1.06-.26-1.33-.18-.27-.46-.41-.86-.41-.35,0-.69.09-.98.27-.12.07-.23.16-.33.26-.08.08-.16.16-.23.25v5.78h-1.27v-7.5h1.15v.84h.03c.05-.08.13-.19.23-.3.1-.12.24-.24.39-.34.16-.11.34-.2.55-.27s.44-.11.7-.11c.85,0,1.46.33,1.81,1,.07-.1.17-.22.3-.34.28-.27.62-.47,1-.57.21-.06.44-.09.69-.09,1.52,0,2.28.89,2.28,2.66v5.03h-1.27v-4.83c0-.61-.11-1.06-.33-1.33-.22-.27-.54-.41-.97-.41-.35,0-.65.09-.88.26-.2.14-.39.31-.56.49.02.11.04.24.05.37.01.13.02.27.02.41v5.03h-1.27ZM410.5,128.75h-1.27v-7.5h1.27v7.5ZM409.88,119.45c-.23.01-.46-.08-.62-.25-.16-.18-.24-.42-.23-.66,0-.26.08-.47.23-.64.16-.17.37-.25.62-.25s.45.08.61.25c.16.18.24.4.23.64.01.24-.07.48-.23.66-.16.17-.38.26-.61.25M416.53,128.75v-4.83c0-.64-.11-1.09-.32-1.37-.21-.28-.54-.41-.98-.41-.37,0-.69.09-.94.28-.22.16-.42.34-.59.55v5.78h-1.27v-7.5h1.15v.84h.03c.03-.06.1-.15.2-.27.1-.12.24-.23.41-.34.17-.11.36-.21.59-.29.23-.08.49-.13.78-.13.33,0,.64.05.91.15.27.1.5.26.69.48.19.22.33.5.44.85.1.35.16.78.16,1.29v4.92h-1.27ZM420.95,128.75h-1.27v-7.5h1.27v7.5ZM420.33,119.45c-.23.01-.46-.08-.62-.25-.16-.18-.25-.42-.23-.66,0-.26.08-.47.23-.64.16-.17.37-.25.63-.25s.45.08.61.25c.16.18.24.4.23.64.01.24-.07.48-.23.66-.16.17-.38.26-.61.25M426.12,122.77c-.14-.14-.29-.27-.45-.38-.22-.16-.5-.24-.86-.24-.33,0-.59.08-.77.23-.17.14-.27.34-.27.56,0,.28.08.51.24.7.16.18.41.38.74.59l.47.28c.51.3.91.63,1.2.98.29.35.44.8.44,1.35,0,.59-.21,1.09-.62,1.5-.41.41-1,.61-1.77.61-.3,0-.57-.03-.8-.09-.21-.05-.41-.13-.6-.22-.17-.08-.32-.17-.43-.27-.1-.08-.2-.18-.28-.27l.61-1c.06.06.14.13.23.22.21.2.47.35.74.44.16.05.34.08.55.08.37,0,.66-.08.86-.25.2-.17.3-.37.3-.61,0-.18-.02-.33-.07-.46-.05-.13-.12-.25-.21-.35-.09-.1-.21-.2-.35-.3-.13-.09-.29-.2-.47-.31l-.47-.3c-.47-.3-.83-.62-1.1-.95-.27-.33-.4-.76-.4-1.28,0-.28.05-.54.16-.77.11-.23.26-.44.46-.61.2-.17.43-.31.7-.41.27-.1.55-.15.85-.15s.54.03.75.09c.34.09.65.25.91.48.1.09.18.16.24.23l-.55.91ZM431.56,122.29h-1.64v4.16c0,.53.07.89.2,1.09.13.19.36.29.69.29.19,0,.35-.03.49-.08.13-.05.23-.1.3-.14l.17,1.02c-.12.08-.24.14-.37.2-.2.09-.46.13-.8.13-.65,0-1.13-.18-1.45-.54s-.48-.95-.48-1.79v-4.33h-.91v-.84l.91-.19.14-2.09h1.12v2.09h1.8l-.16,1.03ZM437.69,123.79c0,.32-.01.6-.03.83-.02.21-.04.41-.06.62h-3.83c.04.89.23,1.54.57,1.95.34.42.83.62,1.46.62.37,0,.73-.09,1.06-.27.19-.1.37-.24.52-.39l.47.89c-.05.05-.13.13-.23.23-.13.12-.27.22-.42.3-.21.11-.43.2-.66.26-.3.08-.61.11-.92.11-.47,0-.89-.08-1.27-.23-.38-.16-.7-.4-.97-.73-.27-.33-.47-.74-.62-1.25-.15-.5-.22-1.11-.22-1.82,0-.67.08-1.24.23-1.73.15-.49.36-.88.62-1.19.26-.31.56-.55.91-.7.34-.15.71-.23,1.11-.23.72,0,1.28.23,1.69.68.41.45.61,1.13.61,2.04M435.32,122.1c-.43,0-.84.2-1.08.56-.27.37-.43.92-.47,1.62h2.73c.01-.05.02-.13.02-.23,0-.1,0-.21,0-.32,0-.52-.1-.92-.31-1.21-.21-.29-.51-.43-.91-.43M442.67,122.36c-.06-.03-.13-.06-.2-.08-.1-.03-.25-.05-.42-.05-.4,0-.71.11-.93.32-.21.19-.37.43-.48.7v5.5h-1.26v-7.5h1.15v1.01h.03c.05-.15.12-.29.2-.43.08-.14.19-.26.31-.37.12-.11.27-.2.44-.26.17-.06.38-.09.62-.09.18,0,.32.02.43.05s.2.06.26.08l-.16,1.12ZM445.19,128.75h-1.27v-7.5h1.27v7.5ZM444.56,119.45c-.23.01-.46-.08-.62-.25-.16-.18-.24-.42-.23-.66,0-.26.08-.47.23-.64.16-.17.37-.25.62-.25s.45.08.61.25c.16.18.24.4.23.64.01.24-.07.48-.23.66-.16.17-.38.26-.61.25M452.37,128.75h-1.15v-.84h-.03c-.15.25-.36.46-.6.62-.18.12-.38.22-.59.29-.25.09-.5.13-.77.13-.31,0-.61-.05-.9-.15-.26-.1-.5-.26-.68-.48-.2-.25-.35-.54-.43-.85-.11-.42-.16-.85-.15-1.29v-4.92h1.27v4.83c0,.62.1,1.07.3,1.34.2.27.52.4.94.4.36,0,.67-.09.92-.27.25-.18.45-.36.59-.54v-5.75h1.27v7.5ZM458.25,128.75v-4.83c0-.61-.09-1.06-.27-1.33-.18-.27-.46-.41-.86-.41-.35,0-.69.09-.98.27-.12.07-.23.16-.33.26-.08.08-.16.16-.23.25v5.78h-1.27v-7.5h1.15v.84h.03c.05-.08.13-.19.23-.3.1-.12.23-.24.39-.34.16-.11.34-.2.55-.27.21-.07.44-.11.7-.11.85,0,1.46.33,1.81,1,.07-.1.17-.22.3-.34.28-.27.62-.46,1-.57.21-.06.44-.09.69-.09,1.52,0,2.28.89,2.28,2.66v5.03h-1.27v-4.83c0-.61-.11-1.06-.33-1.33-.22-.27-.54-.41-.97-.41-.35,0-.65.09-.88.26-.2.14-.39.31-.56.49.02.11.04.24.05.37.01.13.02.27.02.41v5.03h-1.27ZM359.87,138.04h-1.53v6.47h-1.26v-6.47h-.91v-.84l.91-.17v-1.5c0-.41.06-.76.17-1.05.12-.29.27-.53.45-.72.19-.19.41-.32.66-.41.25-.08.51-.12.8-.12s.5.04.69.11c.19.07.31.13.37.17l-.27,1.05c-.08-.05-.17-.1-.27-.13-.14-.05-.28-.07-.42-.07-.3,0-.53.09-.69.28-.16.19-.24.53-.23,1.03v1.34h1.69l-.16,1.03ZM366.36,144.5h-1.15v-.84h-.03c-.15.25-.36.46-.6.62-.18.12-.38.22-.59.29-.25.09-.5.13-.77.13-.31,0-.61-.05-.9-.15-.26-.1-.5-.26-.68-.48-.2-.25-.35-.54-.43-.85-.11-.42-.16-.85-.15-1.29v-4.92h1.27v4.83c0,.62.1,1.07.3,1.34.2.27.52.4.94.4.36,0,.67-.09.92-.27.25-.18.45-.36.59-.54v-5.75h1.27v7.5ZM363.26,134.85c0,.21-.07.42-.22.58-.14.14-.33.22-.53.22-.2,0-.39-.08-.53-.22-.15-.15-.23-.36-.22-.58,0-.24.07-.43.22-.58.14-.14.33-.22.53-.22.2,0,.39.08.53.22.15.15.23.36.22.58M365.66,134.85c0,.21-.07.42-.22.58-.14.14-.33.22-.53.22-.2,0-.39-.08-.53-.22-.15-.15-.23-.36-.22-.58,0-.24.07-.43.22-.58.14-.14.33-.22.53-.22.2,0,.39.07.53.22.15.15.23.36.22.58M371.6,138.11c-.06-.03-.13-.06-.2-.08-.1-.03-.25-.05-.42-.05-.39,0-.7.11-.93.32-.21.19-.37.43-.48.7v5.5h-1.26v-7.5h1.15v1.01h.03c.05-.15.12-.29.2-.43.08-.14.19-.26.31-.37.12-.11.27-.2.44-.26.17-.06.38-.09.62-.09.18,0,.32.02.43.05.11.03.2.06.26.08l-.16,1.12ZM386.59,133.72l-2.62,10.78h-1.22l-1.64-6.78c-.11-.47-.21-.91-.3-1.31-.08-.41-.13-.73-.14-.97h-.03c0,.24-.04.56-.13.95-.08.39-.18.83-.3,1.3l-1.67,6.81h-1.22l-2.56-10.78h1.45l1.34,6.56c.1.5.2.97.27,1.41.08.44.12.78.13,1.02h.03c.01-.24.07-.59.17-1.05.1-.46.21-.93.32-1.42l1.59-6.53h1.3l1.56,6.56c.11.5.22.97.31,1.41.09.44.15.78.16,1.02h.03c0-.24.06-.59.14-1.06.08-.46.18-.94.28-1.44l1.36-6.5h1.38ZM389.03,144.5h-1.27v-7.5h1.27v7.5ZM388.4,135.2c-.23.01-.46-.08-.62-.25-.16-.18-.25-.42-.23-.66,0-.26.08-.47.23-.64.16-.17.36-.25.62-.25s.45.08.61.25c.16.18.24.4.23.64.01.24-.07.48-.23.66-.16.17-.38.26-.61.25M394.26,138.11c-.06-.03-.13-.06-.2-.08-.1-.03-.25-.05-.42-.05-.4,0-.71.11-.93.32-.21.19-.37.43-.48.7v5.5h-1.26v-7.5h1.15v1.01h.03c.05-.15.12-.29.2-.43.08-.14.19-.26.31-.37.12-.11.27-.2.44-.26.17-.06.38-.09.62-.09.18,0,.32.02.43.05.11.03.2.06.26.08l-.16,1.12ZM398.71,138.04h-1.64v4.16c0,.53.07.89.2,1.09s.36.29.69.29c.19,0,.35-.03.48-.08.13-.05.23-.1.3-.14l.17,1.02c-.12.08-.24.14-.37.2-.2.09-.46.13-.8.13-.64,0-1.13-.18-1.45-.54-.32-.36-.48-.95-.48-1.79v-4.33h-.91v-.84l.91-.19.14-2.09h1.12v2.09h1.8l-.16,1.03ZM403.38,138.52c-.14-.14-.29-.27-.45-.38-.22-.16-.51-.24-.86-.24-.33,0-.59.08-.77.23-.17.14-.27.34-.27.56,0,.28.08.51.24.7.16.18.41.38.74.59l.47.28c.51.3.91.63,1.2.98.29.35.44.8.44,1.35,0,.59-.21,1.09-.62,1.5-.41.41-1,.61-1.77.61-.3,0-.57-.03-.8-.09-.21-.05-.41-.13-.6-.22-.17-.08-.31-.17-.43-.27-.1-.08-.19-.18-.28-.27l.61-1c.06.06.14.13.23.22.21.2.47.35.74.44.16.05.34.08.55.08.38,0,.66-.08.86-.25.2-.17.3-.37.3-.61,0-.18-.02-.33-.07-.46-.05-.13-.12-.25-.21-.35-.09-.1-.21-.2-.34-.3-.13-.09-.29-.2-.47-.31l-.47-.3c-.47-.3-.84-.62-1.1-.95-.27-.33-.4-.76-.4-1.28,0-.28.05-.54.16-.77.11-.23.26-.44.46-.61.2-.17.43-.31.7-.41.27-.1.55-.15.85-.15.29,0,.54.03.75.09.34.09.65.25.91.48.1.09.18.16.24.23l-.55.91ZM409.78,138.46l-.15-.14c-.08-.07-.17-.13-.26-.19-.26-.16-.57-.24-.87-.23-.26,0-.52.05-.76.15-.24.1-.45.27-.61.48-.19.26-.33.54-.41.85-.11.42-.16.84-.15,1.27,0,.55.04,1.01.13,1.39.09.37.21.67.37.9.14.21.34.38.57.48.22.1.47.15.74.15.38,0,.68-.07.88-.2.2-.13.35-.24.43-.33l.51.88c-.17.2-.38.36-.61.48-.18.09-.37.16-.57.21-.25.06-.51.09-.77.09-.42,0-.81-.07-1.17-.2-.36-.14-.68-.36-.95-.67-.27-.31-.48-.72-.64-1.22-.16-.5-.23-1.12-.23-1.86s.09-1.33.28-1.83c.19-.5.43-.9.73-1.21.3-.31.64-.53,1.01-.67.37-.14.74-.21,1.12-.21.25,0,.5.02.74.08.21.05.4.12.55.19.15.08.28.16.37.25.1.09.18.16.24.23l-.53.89ZM415.73,144.5v-4.83c0-.64-.11-1.09-.32-1.37-.21-.28-.54-.41-.98-.41-.37,0-.69.09-.94.28-.22.16-.42.34-.59.55v5.78h-1.27v-11.04l1.27-.14v4.45h.03c.04-.06.11-.15.2-.25.09-.1.21-.21.37-.31.15-.1.34-.2.57-.27.22-.08.49-.12.79-.12.66,0,1.18.21,1.56.64s.58,1.13.58,2.12v4.92h-1.26ZM418.45,142.6c0-.44.08-.8.25-1.09.17-.29.39-.53.67-.71.28-.18.61-.31.99-.39.38-.08.78-.12,1.21-.12h.39v-.72c0-.64-.11-1.07-.34-1.31-.22-.24-.54-.36-.94-.36-.37,0-.69.08-.94.24-.21.13-.41.27-.59.43l-.53-.84c.08-.08.19-.18.32-.28.13-.1.29-.2.48-.3.19-.09.4-.17.64-.23.24-.06.51-.09.81-.09.77,0,1.35.21,1.75.64s.59,1.11.59,2.06v3.42c0,.32.01.64.03.94.01.21.03.41.06.62h-1.2l-.05-.83h-.03c-.05.11-.12.22-.19.32-.09.12-.19.23-.31.33-.14.11-.29.19-.45.26-.2.08-.41.11-.62.11-.28,0-.54-.05-.79-.16-.49-.21-.87-.6-1.06-1.1-.1-.27-.15-.55-.15-.84M420.72,143.61c.16,0,.32-.02.47-.08.13-.05.25-.12.35-.19.09-.07.18-.15.25-.24.07-.09.13-.16.18-.23v-1.65l-.41.02c-.6.02-1.06.13-1.37.31-.31.19-.47.49-.47.91,0,.39.09.67.27.87.18.19.42.29.73.29M428.27,138.04h-1.53v6.47h-1.26v-6.47h-.91v-.84l.91-.17v-1.5c0-.41.06-.76.17-1.05.12-.29.27-.53.45-.72.19-.19.41-.32.66-.41.25-.08.51-.12.8-.12s.5.04.69.11c.19.07.31.13.37.17l-.27,1.05c-.08-.05-.17-.1-.27-.13-.14-.05-.28-.07-.42-.07-.3,0-.53.09-.69.28-.16.19-.24.53-.23,1.03v1.34h1.69l-.16,1.03ZM432.73,138.04h-1.64v4.16c0,.53.07.89.2,1.09.14.19.36.29.69.29.19,0,.35-.03.48-.08.13-.05.23-.1.3-.14l.17,1.02c-.12.08-.24.14-.37.2-.2.09-.46.13-.8.13-.65,0-1.13-.18-1.45-.54-.32-.36-.49-.95-.49-1.79v-4.33h-.91v-.84l.91-.19.14-2.09h1.12v2.09h1.8l-.16,1.03ZM361.96,160.25h-1.15v-.84h-.03c-.15.25-.36.46-.6.62-.18.12-.38.22-.59.29-.25.09-.5.13-.77.13-.31,0-.61-.05-.9-.15-.26-.1-.5-.26-.68-.48-.2-.25-.35-.54-.43-.85-.11-.42-.16-.85-.15-1.29v-4.92h1.27v4.83c0,.62.1,1.07.3,1.34.2.27.52.4.94.4.36,0,.67-.09.92-.27.25-.18.45-.36.59-.54v-5.75h1.27v7.5ZM367.99,160.25v-4.83c0-.64-.11-1.09-.32-1.37-.21-.28-.54-.41-.98-.41-.38,0-.69.09-.94.28-.22.16-.42.34-.59.55v5.78h-1.27v-7.5h1.15v.84h.03c.03-.06.1-.15.2-.27.1-.12.24-.23.41-.34.17-.11.36-.21.59-.29.23-.08.49-.13.78-.13.33,0,.63.05.91.15.27.1.5.26.69.48.19.22.33.5.44.85.1.35.15.78.15,1.29v4.92h-1.26ZM370.8,156.61c0-.76.1-1.4.3-1.9.2-.51.45-.92.77-1.23.31-.31.67-.53,1.06-.66.4-.13.79-.2,1.19-.2.24,0,.45.02.62.06.18.04.32.08.44.13v-3.59l1.26-.14v11.18h-1.15v-.8h-.03c-.13.23-.3.43-.52.59-.17.12-.35.22-.55.28-.25.08-.51.12-.77.12-.35,0-.69-.07-1.01-.21-.33-.15-.62-.38-.83-.67-.26-.36-.46-.76-.57-1.19-.14-.48-.21-1.07-.21-1.76M373.77,159.32c.33,0,.66-.09.94-.27.18-.12.34-.28.47-.46v-4.62c-.13-.08-.26-.14-.4-.19-.15-.05-.34-.08-.57-.08-.29,0-.56.05-.82.15-.26.1-.49.27-.66.49-.21.26-.36.57-.44.89-.12.44-.17.89-.16,1.34,0,.52.04.95.13,1.3.09.35.21.63.37.84.14.19.32.35.53.46.2.09.41.14.62.14M387.15,150.55h-3.84v3.72h3.53v1.08h-3.53v3.78h4.23l-.08,1.12h-5.51v-10.78h5.29l-.09,1.08ZM393.18,160.25v-4.83c0-.64-.11-1.09-.32-1.37-.21-.28-.54-.41-.98-.41-.38,0-.69.09-.94.28-.22.16-.42.34-.59.55v5.78h-1.27v-7.5h1.16v.84h.03c.03-.06.1-.15.2-.27.1-.12.24-.23.41-.34.17-.11.36-.21.59-.29.23-.08.49-.13.78-.13.33,0,.64.05.91.15.27.1.5.26.69.48.19.22.33.5.44.85.1.35.16.78.16,1.29v4.92h-1.27ZM401.15,155.29c0,.32-.01.6-.03.83-.02.21-.04.41-.06.62h-3.83c.04.89.23,1.54.57,1.95.34.42.83.62,1.46.62.37,0,.73-.09,1.06-.27.19-.1.37-.24.52-.39l.47.89c-.05.05-.13.13-.23.23-.13.12-.27.22-.42.3-.21.11-.43.2-.66.26-.3.08-.61.11-.92.11-.47,0-.89-.08-1.27-.23-.38-.16-.7-.4-.97-.73-.27-.33-.47-.74-.62-1.25-.15-.51-.22-1.11-.22-1.82,0-.67.08-1.24.23-1.73.15-.49.36-.88.62-1.19.26-.31.56-.55.91-.7.34-.15.71-.23,1.11-.23.72,0,1.28.23,1.69.68.41.45.61,1.13.61,2.04M398.77,153.6c-.43,0-.84.2-1.08.56-.27.37-.43.92-.47,1.62h2.73c.01-.05.02-.13.02-.23,0-.1,0-.21,0-.32,0-.52-.1-.92-.31-1.21-.21-.29-.51-.43-.91-.43M406.13,153.86c-.06-.03-.13-.06-.2-.08-.1-.03-.25-.05-.42-.05-.4,0-.71.11-.93.32-.21.19-.37.43-.48.7v5.5h-1.26v-7.5h1.15v1.02h.03c.05-.15.12-.29.2-.43.08-.14.19-.26.31-.37.12-.11.27-.2.44-.26.17-.06.38-.09.62-.09.18,0,.32.02.43.05.11.03.2.06.26.08l-.16,1.12ZM412.62,153.74h-.94c.24.4.36.84.36,1.34,0,.4-.06.75-.19,1.07-.12.31-.31.58-.55.8-.24.22-.52.39-.83.5-.33.12-.68.18-1.02.17h-.2c-.06,0-.13,0-.2-.02-.14.06-.27.15-.39.25-.13.11-.21.28-.2.45,0,.15.06.29.18.38.12.1.32.15.59.15h.95c.35,0,.68.04.98.11.3.07.56.19.79.35.22.16.4.37.52.62.13.25.19.55.19.91,0,.41-.09.78-.26,1.11-.17.34-.42.63-.73.86-.34.25-.73.44-1.14.56-.49.14-.99.21-1.5.2-.8,0-1.41-.17-1.83-.52-.42-.35-.63-.85-.63-1.51,0-.28.05-.52.15-.73.1-.2.22-.38.35-.53.14-.15.27-.27.41-.36l.33-.21v-.03c-.32-.24-.48-.59-.48-1.05,0-.2.04-.37.12-.51.08-.15.17-.27.27-.36.1-.09.2-.17.3-.23.1-.06.18-.1.23-.12v-.03c-.39-.18-.71-.47-.93-.83-.23-.38-.35-.87-.35-1.46,0-.42.07-.78.2-1.1.14-.32.32-.58.55-.79.23-.21.5-.37.8-.47.31-.1.64-.16.99-.16.35,0,.69.06,1,.19h2.28l-.17.98ZM409.14,160.02c-.19,0-.39-.01-.58-.05-.1.05-.19.12-.27.19-.2.16-.35.38-.42.63-.05.16-.07.32-.07.49,0,.8.44,1.2,1.33,1.2.76,0,1.32-.15,1.69-.45.36-.3.55-.64.55-1.02,0-.36-.11-.62-.34-.77-.23-.15-.54-.23-.92-.23h-.95ZM410.81,155.08c0-.54-.13-.93-.38-1.16-.24-.22-.57-.35-.9-.34-.36,0-.68.11-.94.34-.26.23-.39.61-.39,1.15s.13.93.39,1.15c.26.23.56.34.91.34.36,0,.67-.11.93-.34.25-.23.38-.61.38-1.15M415.33,160.25h-1.27v-7.5h1.26v7.5ZM414.7,150.94c-.23.01-.46-.08-.62-.25-.16-.18-.25-.42-.23-.66,0-.26.08-.47.23-.64.16-.17.37-.25.63-.25s.45.08.61.25c.16.18.24.4.23.64.01.24-.07.48-.23.66-.16.17-.38.26-.61.25M422.07,155.28c0,.32-.01.6-.03.83-.02.21-.04.41-.06.62h-3.83c.04.89.23,1.54.57,1.95.34.42.83.62,1.46.62.37,0,.73-.09,1.06-.27.19-.1.37-.24.52-.39l.47.89c-.05.05-.13.13-.23.23-.13.12-.27.22-.42.3-.21.11-.43.2-.66.26-.3.08-.61.11-.92.11-.47,0-.89-.08-1.27-.23-.38-.16-.7-.4-.97-.73-.27-.33-.47-.74-.62-1.25-.15-.51-.22-1.11-.22-1.82,0-.67.08-1.24.23-1.73.15-.49.36-.88.62-1.19.26-.31.56-.55.91-.7.34-.15.71-.23,1.11-.23.72,0,1.28.23,1.69.68.41.45.61,1.13.61,2.04M419.7,153.6c-.43,0-.84.2-1.08.56-.27.37-.43.92-.47,1.62h2.73c.01-.05.02-.13.02-.23,0-.1,0-.21,0-.32,0-.52-.1-.92-.31-1.21-.21-.29-.51-.43-.91-.43"/>
    <path d="M322.51,127.89c.04-.29.06-.6.06-.91,0-.17,0-.37-.02-.59,2.62-.04,4.91-1.92,4.91-4.09,0-1.1-.72-1.93-1.12-2.43l.28-.06c.38.33,1.47,1.52,1.47,3.01,0,2.6-2.6,5.01-5.57,5.07M319.87,118.83c-.05-.28-.16-.55-.33-.78,0-.27.12-.52.54-.31-.23.24-.05.65-.05.65,0,0,.47-.22.37-.53.7.17.2,1.11-.54.96M319.26,120.17c-.1-.4-.29-.77-.55-1.09-.23-.27-.61-.6-1.13-.6-.23,0-.63.11-.88.22-.09-.17-.28-.58-.28-.77s.32-.38.94-.38c1.35,0,2.16.61,2.16,1.64,0,.36-.14.69-.27.98M322.74,137.62c.11,0,.22.02.33.06.39,1.06,1.89,3.06,1.96,3.15v.02s.04,0,.04,0c.37-.06,1.31-.2,2.1-.2h.02c.09,0,.18,0,.24.06.05.05.08.14.08.27,0,.2-.08.53-.18.67-.28-.3-.72-.44-1.44-.44-.22,0-.47.06-.61.1h-.06s-.06.03-.06.03l.41.41c.64.64,1.19,1.19,1.19,1.55,0,.22-.22.51-.41.64-.04-.67-.72-1.57-1.38-2.07l-.06-.04v.24c-.02.16-.03.4-.03.66,0,1.28-.13,1.47-.57,1.47-.08,0-.16-.02-.24-.04.25-.31.35-.72.35-1.43v-.33s0-.27,0-.27c0-.29.03-.51.05-.68v-.1s-.06,0-.06,0c-.29-.04-.59-.07-.89-.08-.63,0-1.06.06-1.37.35-.2-.17-.41-.45-.41-.63,0-.27.17-.29.38-.29.11,0,.21.02.35.03.27.04.68.1,1.52.1h.05l-.02-.05c-.21-.61-.8-1.5-1.74-2.64.08-.31.17-.51.46-.51M314.64,140.77l-.02.05h.05c.84,0,1.25-.06,1.52-.1.14-.02.24-.03.35-.03.22,0,.38.02.38.29,0,.18-.21.46-.41.63-.31-.29-.74-.35-1.37-.35-.3,0-.68.05-.89.08h-.03s-.04,0-.04,0v.1c.04.17.07.39.07.68v.27s0,.33,0,.33c0,.71.1,1.12.35,1.43-.08.03-.16.04-.24.04-.44,0-.57-.19-.57-1.47,0-.26-.01-.5-.02-.66v-.24s-.07.04-.07.04c-.66.5-1.34,1.4-1.38,2.07-.2-.13-.41-.41-.41-.64,0-.37.55-.92,1.19-1.55l.37-.37.05-.05-.12-.03c-.2-.06-.4-.09-.61-.1-.72,0-1.16.14-1.44.44-.1-.14-.18-.48-.18-.67,0-.13.03-.22.08-.27.06-.06.16-.06.24-.06h.02c.79,0,1.73.14,2.1.2h.02s.01-.01.01-.01c.06-.09,1.57-2.09,1.96-3.15.1-.04.21-.06.32-.06.3,0,.38.2.46.51-.94,1.14-1.53,2.03-1.74,2.64M310.58,122.82c0-1.49,1.09-2.68,1.47-3.01l.28.06c-.41.5-1.13,1.33-1.13,2.43,0,2.19,2.34,4.09,4.99,4.09-.02.19-.03.38-.03.59,0,.32.02.62.05.91-2.99-.02-5.63-2.45-5.63-5.07M330.67,127.43c1.34,2.12,2.4,2.09,3.98,2.09-1.31-1.01-2.18-2.3-2.6-2.96l-2.45-3.93c-.24-1.23-.88-2.35-1.81-3.19.32-.12.58-.25.74-.36-1.6,0-3.19-.81-4.06-.81-.56,0-.92.34-.92.78.04.49.54,1,1.49,1,.21,0,.49-.03.78-.08.51.71.92,1.35.92,2.27,0,1.72-2.06,3.06-4.13,3.06-.12,0-.23,0-.35-.01-.19-.43-.81-1.14-.81-1.96,0-1.37.89-2.48.89-3.83,0-.84-.41-1.36-.57-1.58.25-.24.53-.53.6-.73-.15.06-.32.07-.58.07-.99,0-1.81-.26-2.6-.26-.45,0-.57.14-.57.27,0,.05,0,.1.02.12-.17-.06-.34-.11-.51-.14-.25-.05-.5-.07-.75-.07-.96,0-1.3.4-1.3.75,0,.29.23.82.49,1.23.37-.19.82-.32,1.03-.32.51,0,.96.49,1.2,1.06-.34.04-.41.06-.75.06-.94,0-1.57-.33-1.7-.33-.01,0-.04,0-.04.03,0,.13.27.48.79.67.69.25,1.72.36,1.89.39,0,.03-.17.36-.37.42-.04.01-.08.01-.12,0-.72-.14-.92-.2-1.83-.55-.03-.01-.04,0-.04.04,0,.36.93,1.16,1.77,1.46-.7.89-1.57,1.81-1.98,3.2-.12,0-.23.01-.35.01-2.07,0-4.13-1.34-4.13-3.06,0-.92.41-1.56.92-2.27.3.05.57.08.78.08.94,0,1.45-.5,1.49-1,0-.44-.36-.78-.92-.78-.87,0-2.46.81-4.07.81.16.12.42.25.74.36-.93.84-1.56,1.96-1.8,3.19l-2.45,3.93c-.41.66-1.28,1.95-2.6,2.96,1.59,0,2.64.04,3.98-2.09l1.26-2.01c.09.26.21.52.34.77l-2.5,4c-.42.66-1.28,1.94-2.6,2.96,1.59,0,2.64.04,3.98-2.09l2.15-3.45c.16.17.33.34.51.5l-3.04,4.87c-.42.67-1.28,1.94-2.6,2.95,1.59,0,2.64.04,3.98-2.09l2.96-4.74c.2.12.4.24.6.36l-3.62,5.79c-.42.67-1.28,1.94-2.6,2.95,1.59,0,2.64.04,3.98-2.09l3.72-5.96c.22.08.44.16.67.24l-4.21,6.74c-.41.66-1.29,1.95-2.6,2.95,1.59,0,2.64.04,3.98-2.09l4.49-7.18s.09.01.14.02c.12.39.21.75.21,1.11,0,2.26-1.48,4.25-3.26,5.79.11.05.31.07.49.07.37,0,.6-.02.77-.05-.41.94-1.3,2.14-1.74,2.77-.65-.11-1.32-.17-1.98-.19-.58,0-.65.34-.65.64,0,.53.25.94.53,1.18.11-.27.32-.63,1.4-.63h.11c-.31.35-1.29,1.15-1.29,1.78,0,.42.46,1.06,1.07,1.06-.04-.14-.03-.26-.03-.36,0-.52.46-1.12.85-1.54-.01.13,0,.11,0,.26,0,1.22.11,1.78.89,1.78.38,0,.64-.21.73-.27-.5-.46-.53-.83-.53-1.51v-.59c0-.17,0-.34-.02-.51.28-.04.39-.04.6-.04,0,0,1.1-.09,1.37.49.3-.27.73-.66.73-1.09,0-.28-.13-.6-.7-.6-.22,0-.89.13-1.46.13.15-.34.83-1.33,1.41-2.04.09.28.23.58.53.83.04-.46.31-1.92,1.04-2.78.08.58.2,1.17.2,2.42,0,3.04-.73,5.28-2.28,5.71.2.35.63.67,1.07.67.57,0,.88-.64,1.19-1.25.16.45.62,1.54,1.07,1.54s.91-1.09,1.07-1.54c.31.61.62,1.25,1.19,1.25.44,0,.87-.32,1.07-.67-1.55-.43-2.28-2.67-2.28-5.71,0-1.25.11-1.84.2-2.42.72.85.99,2.32,1.04,2.78.26-.21.45-.5.54-.83.59.72,1.26,1.71,1.41,2.04-.57,0-1.24-.13-1.46-.13-.57,0-.7.32-.7.6,0,.43.43.81.73,1.09.26-.57,1.37-.49,1.37-.49.21,0,.33,0,.6.04-.03.15-.03.36-.03.51v.59c0,.69-.02,1.05-.53,1.51.09.06.35.27.73.27.78,0,.89-.56.89-1.78,0-.15,0-.13,0-.26.39.42.85,1.03.85,1.54,0,.09,0,.22-.03.36.61,0,1.08-.63,1.08-1.06,0-.64-.98-1.43-1.3-1.78h.11c1.07,0,1.29.35,1.4.62.29-.23.53-.65.53-1.18,0-.3-.07-.64-.65-.64s-1.4.08-1.98.19c-.45-.62-1.33-1.83-1.74-2.77.17.03.4.05.77.05.18,0,.38-.02.49-.07-1.78-1.54-3.26-3.53-3.26-5.79,0-.36.09-.72.21-1.11.04,0,.09-.02.14-.02l4.49,7.18c1.34,2.12,2.4,2.09,3.98,2.09-1.31-1-2.19-2.3-2.6-2.95l-4.21-6.74c.23-.07.45-.15.67-.24l3.72,5.96c1.34,2.12,2.4,2.09,3.98,2.09-1.32-1.02-2.18-2.29-2.6-2.95l-3.62-5.79c.2-.11.4-.23.6-.36l2.96,4.74c1.34,2.12,2.4,2.09,3.98,2.09-1.32-1.01-2.18-2.29-2.6-2.95l-3.04-4.87c.18-.16.35-.33.51-.5l2.16,3.45c1.34,2.12,2.4,2.09,3.98,2.09-1.32-1.01-2.18-2.29-2.6-2.96l-2.5-4c.13-.25.25-.5.34-.77l1.26,2.01ZM347.21,144.5h-4.59v-26.25h4.59v26.25Z"/>
    <path class="cls-2" d="M347.21,170.75h-4.59v-26.25h4.59v26.25Z"/>
    <path class="cls-1" d="M347.21,197h-4.59v-26.25h4.59v26.25Z"/>
  </g>
  <g>
    <path d="M310.04,72.32l.78.17c.12.03.18.08.18.17,0,.11-.04.23-.13.34h-2.76s-.01-.07-.01-.09c0-.2.13-.34.4-.43l.48-.16v-4.89h-2.6v4.89l.78.17c.12.03.18.08.18.17,0,.11-.04.23-.13.34h-2.76s-.01-.07-.01-.09c0-.2.13-.34.4-.43l.48-.16v-4.89h-.99s-.01-.06-.01-.09c0-.22.13-.36.4-.43l.6-.16v-.06c0-.94.3-1.69.91-2.26.58-.55,1.31-.82,2.18-.82.41,0,.75.07,1.02.22.27.15.41.33.41.55,0,.39-.18.65-.55.77-.4-.51-.86-.77-1.39-.77-.48,0-.85.14-1.12.42-.27.28-.41.68-.41,1.19v.77h2.9l.75-.08v5.64Z"/>
    <path d="M312.62,72.32v-4.85l-.95-.13s-.01-.07-.01-.1c0-.24.16-.38.48-.4l1.53-.16-.08.87h.04c.29-.29.55-.49.75-.61.4-.23.86-.34,1.39-.34.63,0,1.13.2,1.48.61s.53.98.53,1.72v3.39l.78.17c.12.03.18.08.18.17,0,.11-.04.23-.13.34h-2.76s-.01-.07-.01-.09c0-.2.13-.34.4-.43l.48-.16v-3.33c0-.53-.15-.93-.44-1.2-.25-.22-.57-.33-.96-.33-.62,0-1.18.21-1.66.64v4.21l.78.17c.12.03.18.08.18.17,0,.11-.04.23-.13.34h-2.76s-.01-.07-.01-.09c0-.2.13-.34.4-.43l.48-.16Z"/>
    <path d="M322.81,68.96c0-.57-.09-.99-.26-1.26-.17-.27-.47-.4-.88-.4-.28,0-.53.04-.77.13-.11.23-.21.61-.3,1.14-.14,0-.23.01-.27.01-.42,0-.64-.19-.64-.56,0-.39.23-.72.68-1,.45-.28.95-.42,1.5-.42,1.33,0,2,.73,2,2.2v2.85c0,.49.15.74.46.74.2,0,.36-.06.47-.17.08.11.12.23.12.36,0,.1-.08.2-.23.31-.21.15-.47.22-.78.22-.6,0-.93-.3-1-.9h-.03c-.41.62-1,.94-1.78.94-.49,0-.89-.15-1.2-.46s-.46-.71-.46-1.21c0-.63.32-1.12.96-1.47.55-.29,1.24-.44,2.07-.44h.35v-.62ZM321.51,72.34c.49,0,.92-.23,1.3-.68v-1.5l-.35.03c-1.26.09-1.89.49-1.89,1.18,0,.64.31.96.94.96Z"/>
    <path d="M326.33,72.32v-4.85l-.95-.13s-.01-.07-.01-.1c0-.24.16-.38.48-.4l1.53-.16-.08.87h.04c.29-.29.55-.49.75-.61.4-.23.86-.34,1.39-.34.63,0,1.13.2,1.48.61s.53.98.53,1.72v3.39l.78.17c.12.03.18.08.18.17,0,.11-.04.23-.13.34h-2.76s-.01-.07-.01-.09c0-.2.13-.34.4-.43l.48-.16v-3.33c0-.53-.15-.93-.44-1.2-.25-.22-.57-.33-.96-.33-.62,0-1.18.21-1.66.64v4.21l.78.17c.12.03.18.08.18.17,0,.11-.04.23-.13.34h-2.76s-.01-.07-.01-.09c0-.2.13-.34.4-.43l.48-.16Z"/>
    <path d="M333.33,68.05c0-.31.03-.74.09-1.29h4.23c.03.08.05.17.05.26,0,.14-.05.29-.14.44l-3.25,4.86v.03h2.55l.47-1.3c.08,0,.14-.01.2-.01.24,0,.36.13.36.4,0,.09-.06.61-.18,1.56h-4.46c-.09-.14-.13-.3-.13-.48,0-.11.04-.24.13-.39l3.13-4.71v-.03h-2.12l-.38,1.08c-.07,0-.12.01-.17.01-.25,0-.38-.15-.38-.44Z"/>
    <path d="M339.7,72.32v-4.85l-.95-.13s-.01-.07-.01-.1c0-.24.16-.38.48-.4l1.53-.16v5.64l.78.17c.12.03.18.08.18.17,0,.11-.04.23-.13.34h-2.76s-.01-.07-.01-.09c0-.2.13-.34.4-.43l.48-.16ZM339.48,64.51c0-.22.07-.41.21-.55.14-.14.32-.21.53-.21s.4.07.54.21c.14.14.21.32.21.55s-.07.41-.21.54c-.14.13-.32.2-.54.2s-.39-.07-.53-.2c-.14-.13-.21-.31-.21-.54Z"/>
    <path d="M343.64,69.84c0,.81.19,1.44.54,1.88s.84.66,1.48.66c.57,0,1.1-.2,1.6-.61.1.07.15.2.17.38,0,.2-.19.41-.58.62-.46.26-1,.39-1.62.39-.79,0-1.42-.24-1.88-.73-.54-.55-.81-1.36-.81-2.43s.28-1.92.84-2.55c.51-.56,1.14-.85,1.9-.85.68,0,1.2.2,1.59.61.35.39.53.92.53,1.57,0,.29-.05.64-.14,1.05h-3.6ZM345.13,67.28c-.88,0-1.37.65-1.48,1.94h2.56c.04-.17.07-.36.07-.55,0-.93-.38-1.39-1.14-1.39Z"/>
    <path d="M349.33,72.32v-4.85l-.95-.13s-.01-.07-.01-.1c0-.24.16-.38.48-.4l1.53-.16-.08,1.09h.04c.51-.78,1.06-1.17,1.65-1.17s.87.21.87.64c0,.18-.07.36-.21.55-.31-.13-.6-.2-.86-.2-.59,0-1.06.25-1.42.74v3.99l.91.17c.12.03.18.08.18.17,0,.11-.04.23-.13.34h-2.89s-.01-.07-.01-.09c0-.2.13-.34.4-.43l.48-.16Z"/>
    <path d="M354.28,66.76l.25-1.74h.75v1.74h1.95l-.13.68h-1.82v4c0,.64.28.96.85.96.43,0,.79-.11,1.08-.33.06.09.09.21.09.38,0,.11-.12.24-.35.39-.32.21-.72.31-1.2.31-1.01,0-1.52-.5-1.52-1.5v-4.23h-.99s-.01-.06-.01-.09c0-.22.13-.36.4-.43l.65-.16Z"/>
    <path d="M364.12,68.96c0-.57-.09-.99-.26-1.26-.17-.27-.47-.4-.88-.4-.28,0-.53.04-.77.13-.11.23-.21.61-.3,1.14-.14,0-.23.01-.27.01-.42,0-.64-.19-.64-.56,0-.39.23-.72.68-1,.45-.28.95-.42,1.5-.42,1.33,0,2,.73,2,2.2v2.85c0,.49.15.74.46.74.2,0,.36-.06.47-.17.08.11.12.23.12.36,0,.1-.08.2-.23.31-.21.15-.47.22-.78.22-.6,0-.93-.3-1-.9h-.03c-.41.62-1,.94-1.78.94-.49,0-.89-.15-1.2-.46s-.46-.71-.46-1.21c0-.63.32-1.12.96-1.47.55-.29,1.24-.44,2.07-.44h.35v-.62ZM362.82,72.34c.49,0,.92-.23,1.3-.68v-1.5l-.35.03c-1.26.09-1.89.49-1.89,1.18,0,.64.31.96.94.96Z"/>
    <path d="M367.46,67.48l-.95-.13s-.01-.07-.01-.1c0-.24.16-.38.48-.4l1.53-.16v4.08c0,1.01.43,1.52,1.3,1.52.67,0,1.2-.21,1.61-.64v-4.17l-.95-.13s-.01-.07-.01-.1c0-.24.16-.38.48-.4l1.53-.16v5.6l.95.13s.01.07.01.1c0,.24-.16.38-.48.4l-1.46.16v-.86h-.03c-.5.62-1.16.94-1.96.94-1.37,0-2.05-.78-2.05-2.33v-3.35Z"/>
    <path d="M375.17,72.17c.26.19.58.29.95.29.75,0,1.12-.29,1.12-.86,0-.23-.12-.46-.36-.69-.15-.13-.43-.33-.84-.58-.51-.32-.88-.59-1.09-.82-.34-.37-.51-.79-.51-1.25,0-.5.2-.9.58-1.2.39-.3.88-.45,1.48-.45s1.04.15,1.39.44c.04.33.05.59.05.79,0,.43-.16.65-.49.65-.04,0-.08,0-.12-.01l-.16-.94c-.29-.18-.58-.27-.88-.27-.63,0-.95.26-.95.77,0,.35.25.68.74,1.01.46.29.91.59,1.37.88.49.4.74.86.74,1.38s-.2.97-.6,1.32c-.4.35-.93.53-1.59.53s-1.17-.12-1.59-.36c-.07-.39-.1-.75-.1-1.07,0-.42.16-.62.48-.62.04,0,.08,0,.12.01l.26,1.05Z"/>
    <path d="M386.52,72.26h-.04c-.43.6-1.05.9-1.86.9-.7,0-1.27-.23-1.72-.68-.52-.53-.78-1.33-.78-2.42s.34-2.01,1.01-2.64c.59-.55,1.32-.82,2.18-.82.39,0,.76.06,1.12.17v-2.42l-.95-.13s-.01-.07-.01-.1c0-.24.16-.38.48-.4l1.53-.16v8.72l.95.13s.01.07.01.1c0,.24-.16.38-.48.4l-1.46.16v-.82ZM384.94,72.31c.63,0,1.14-.19,1.51-.56v-3.95c-.31-.31-.73-.47-1.25-.47-.58,0-1.05.21-1.4.64-.38.46-.57,1.1-.57,1.91s.16,1.44.49,1.86c.29.38.7.57,1.22.57Z"/>
    <path d="M390.42,69.84c0,.81.19,1.44.54,1.88s.84.66,1.48.66c.57,0,1.1-.2,1.6-.61.1.07.15.2.17.38,0,.2-.19.41-.58.62-.46.26-1,.39-1.62.39-.79,0-1.42-.24-1.88-.73-.54-.55-.81-1.36-.81-2.43s.28-1.92.84-2.55c.51-.56,1.14-.85,1.9-.85.68,0,1.2.2,1.59.61.35.39.53.92.53,1.57,0,.29-.05.64-.14,1.05h-3.6ZM391.92,67.28c-.88,0-1.37.65-1.48,1.94h2.56c.04-.17.07-.36.07-.55,0-.93-.38-1.39-1.14-1.39Z"/>
    <path d="M405.1,72.32l.78.17c.12.03.18.08.18.17,0,.11-.04.23-.13.34h-2.76s-.01-.07-.01-.09c0-.2.13-.34.4-.43l.48-.16v-3.33c0-1.01-.42-1.52-1.25-1.52-.66,0-1.24.23-1.74.7.05.31.08.56.08.75v3.39l.78.17c.12.03.18.08.18.17,0,.11-.04.23-.13.34h-2.76s-.01-.07-.01-.09c0-.2.13-.34.4-.43l.48-.16v-3.33c0-1.01-.42-1.52-1.25-1.52-.63,0-1.19.21-1.66.64v4.21l.78.17c.12.03.18.08.18.17,0,.11-.04.23-.13.34h-2.76s-.01-.07-.01-.09c0-.2.13-.34.4-.43l.48-.16v-4.85l-.95-.13s-.01-.07-.01-.1c0-.24.16-.38.48-.4l1.53-.16-.08.87h.04c.6-.63,1.29-.95,2.08-.95s1.34.35,1.66,1.04c.62-.69,1.37-1.04,2.22-1.04.62,0,1.11.2,1.47.61.35.4.53.98.53,1.72v3.39Z"/>
    <path d="M417.18,64.03s.01.07.01.12c0,.21-.15.36-.44.44l-.43.13-2.85,3.59,3.11,3.98.78.18c.12.04.18.08.18.14,0,.04-.05.17-.14.39h-1.85l-3.05-4.16h-.71v3.45l.9.18c.12.03.18.07.18.14,0,.04-.05.17-.14.39h-3.05s-.01-.07-.01-.12c0-.24.15-.4.44-.47l.56-.13v-7.57l-.81-.18c-.12-.03-.18-.07-.18-.14,0-.08.05-.2.14-.36h3.02s.01.07.01.12c0,.22-.15.37-.44.44l-.61.13v3.39h.92l2.64-3.42-.82-.16c-.12-.03-.18-.07-.18-.14s.05-.19.14-.36h2.69Z"/>
    <path d="M418.76,72.32v-7.97l-.95-.13s-.01-.07-.01-.1c0-.24.16-.38.48-.4l1.53-.16v8.76l.78.17c.12.03.18.08.18.17,0,.11-.04.23-.13.34h-2.76s-.01-.07-.01-.09c0-.2.13-.34.4-.43l.48-.16Z"/>
    <path d="M422.45,72.32v-4.85l-.95-.13s-.01-.07-.01-.1c0-.24.16-.38.48-.4l1.53-.16v5.64l.78.17c.12.03.18.08.18.17,0,.11-.04.23-.13.34h-2.76s-.01-.07-.01-.09c0-.2.13-.34.4-.43l.48-.16ZM422.23,64.51c0-.22.07-.41.21-.55.14-.14.32-.21.53-.21s.4.07.54.21c.14.14.21.32.21.55s-.07.41-.21.54c-.14.13-.32.2-.54.2s-.39-.07-.53-.2c-.14-.13-.21-.31-.21-.54Z"/>
    <path d="M435.06,72.32l.78.17c.12.03.18.08.18.17,0,.11-.04.23-.13.34h-2.76s-.01-.07-.01-.09c0-.2.13-.34.4-.43l.48-.16v-3.33c0-1.01-.42-1.52-1.25-1.52-.66,0-1.24.23-1.74.7.05.31.08.56.08.75v3.39l.78.17c.12.03.18.08.18.17,0,.11-.04.23-.13.34h-2.76s-.01-.07-.01-.09c0-.2.13-.34.4-.43l.48-.16v-3.33c0-1.01-.42-1.52-1.25-1.52-.63,0-1.19.21-1.66.64v4.21l.78.17c.12.03.18.08.18.17,0,.11-.04.23-.13.34h-2.76s-.01-.07-.01-.09c0-.2.13-.34.4-.43l.48-.16v-4.85l-.95-.13s-.01-.07-.01-.1c0-.24.16-.38.48-.4l1.53-.16-.08.87h.04c.6-.63,1.29-.95,2.08-.95s1.34.35,1.66,1.04c.62-.69,1.37-1.04,2.22-1.04.62,0,1.11.2,1.47.61.35.4.53.98.53,1.72v3.39Z"/>
    <path d="M440.08,68.96c0-.57-.09-.99-.26-1.26-.17-.27-.47-.4-.88-.4-.28,0-.53.04-.77.13-.11.23-.21.61-.3,1.14-.14,0-.23.01-.27.01-.42,0-.64-.19-.64-.56,0-.39.23-.72.68-1,.45-.28.95-.42,1.5-.42,1.33,0,2,.73,2,2.2v2.85c0,.49.15.74.46.74.2,0,.36-.06.47-.17.08.11.12.23.12.36,0,.1-.08.2-.23.31-.21.15-.47.22-.78.22-.6,0-.93-.3-1-.9h-.03c-.41.62-1,.94-1.78.94-.49,0-.89-.15-1.2-.46s-.46-.71-.46-1.21c0-.63.32-1.12.96-1.47.55-.29,1.24-.44,2.07-.44h.35v-.62ZM438.78,72.34c.49,0,.92-.23,1.3-.68v-1.5l-.35.03c-1.26.09-1.89.49-1.89,1.18,0,.64.31.96.94.96Z"/>
    <path d="M446.58,69.41h-3.51v-.77h3.51v.77Z"/>
    <path d="M451.01,67.48l-.95-.13s-.01-.07-.01-.1c0-.24.16-.38.48-.4l1.53-.16v4.08c0,1.01.43,1.52,1.3,1.52.67,0,1.2-.21,1.61-.64v-4.17l-.95-.13s-.01-.07-.01-.1c0-.24.16-.38.48-.4l1.53-.16v5.6l.95.13s.01.07.01.1c0,.24-.16.38-.48.4l-1.46.16v-.86h-.03c-.5.62-1.16.94-1.96.94-1.37,0-2.05-.78-2.05-2.33v-3.35Z"/>
    <path d="M458.59,72.32v-4.85l-.95-.13s-.01-.07-.01-.1c0-.24.16-.38.48-.4l1.53-.16-.08.87h.04c.29-.29.55-.49.75-.61.4-.23.86-.34,1.39-.34.63,0,1.13.2,1.48.61s.53.98.53,1.72v3.39l.78.17c.12.03.18.08.18.17,0,.11-.04.23-.13.34h-2.76s-.01-.07-.01-.09c0-.2.13-.34.4-.43l.48-.16v-3.33c0-.53-.15-.93-.44-1.2-.25-.22-.57-.33-.96-.33-.62,0-1.18.21-1.66.64v4.21l.78.17c.12.03.18.08.18.17,0,.11-.04.23-.13.34h-2.76s-.01-.07-.01-.09c0-.2.13-.34.4-.43l.48-.16Z"/>
    <path d="M469.88,72.26h-.04c-.43.6-1.05.9-1.86.9-.7,0-1.27-.23-1.72-.68-.52-.53-.78-1.33-.78-2.42s.34-2.01,1.01-2.64c.59-.55,1.32-.82,2.18-.82.39,0,.76.06,1.12.17v-2.42l-.95-.13s-.01-.07-.01-.1c0-.24.16-.38.48-.4l1.53-.16v8.72l.95.13s.01.07.01.1c0,.24-.16.38-.48.4l-1.46.16v-.82ZM468.29,72.31c.63,0,1.14-.19,1.51-.56v-3.95c-.31-.31-.73-.47-1.25-.47-.58,0-1.05.21-1.4.64-.38.46-.57,1.1-.57,1.91s.16,1.44.49,1.86c.29.38.7.57,1.22.57Z"/>
    <path d="M310.49,80.72h-2.08v7.57l.9.18c.12.03.18.07.18.14,0,.04-.05.17-.14.39h-3.05s-.01-.07-.01-.12c0-.24.15-.4.44-.47l.56-.13v-7.57h-2.08l-.3,1.37c-.1.04-.19.05-.29.05-.25,0-.38-.19-.38-.56,0-.23.03-.74.09-1.55h7.03c.06.81.09,1.32.09,1.55,0,.37-.13.56-.38.56-.1,0-.19-.02-.29-.05l-.3-1.37Z"/>
    <path d="M312.25,88.32v-4.85l-.95-.13s-.01-.07-.01-.1c0-.24.16-.38.48-.4l1.53-.16-.08,1.09h.04c.51-.78,1.06-1.17,1.65-1.17s.87.21.87.64c0,.18-.07.36-.21.55-.31-.13-.6-.2-.86-.2-.59,0-1.06.25-1.42.74v3.99l.91.17c.12.03.18.08.18.17,0,.11-.04.23-.13.34h-2.89s-.01-.07-.01-.09c0-.2.13-.34.4-.43l.48-.16Z"/>
    <path d="M319.82,84.96c0-.57-.09-.99-.26-1.26-.17-.27-.47-.4-.88-.4-.28,0-.53.04-.77.13-.11.23-.21.61-.3,1.14-.14,0-.23.01-.27.01-.42,0-.64-.19-.64-.56,0-.39.23-.72.68-1,.45-.28.95-.42,1.5-.42,1.33,0,2,.73,2,2.2v2.85c0,.49.15.74.46.74.2,0,.36-.06.47-.17.08.11.12.23.12.36,0,.1-.08.2-.23.31-.21.15-.47.22-.78.22-.6,0-.93-.3-1-.9h-.03c-.41.62-1,.94-1.78.94-.49,0-.89-.15-1.2-.46s-.46-.71-.46-1.21c0-.63.32-1.12.96-1.47.55-.29,1.24-.44,2.07-.44h.35v-.62ZM318.52,88.34c.49,0,.92-.23,1.3-.68v-1.5l-.35.03c-1.26.09-1.89.49-1.89,1.18,0,.64.31.96.94.96Z"/>
    <path d="M323.34,88.32v-4.85l-.95-.13s-.01-.07-.01-.1c0-.24.16-.38.48-.4l1.53-.16-.08.87h.04c.29-.29.55-.49.75-.61.4-.23.86-.34,1.39-.34.63,0,1.13.2,1.48.61s.53.98.53,1.72v3.39l.78.17c.12.03.18.08.18.17,0,.11-.04.23-.13.34h-2.76s-.01-.07-.01-.09c0-.2.13-.34.4-.43l.48-.16v-3.33c0-.53-.15-.93-.44-1.2-.25-.22-.57-.33-.96-.33-.62,0-1.18.21-1.66.64v4.21l.78.17c.12.03.18.08.18.17,0,.11-.04.23-.13.34h-2.76s-.01-.07-.01-.09c0-.2.13-.34.4-.43l.48-.16Z"/>
    <path d="M331.12,88.17c.26.19.58.29.95.29.75,0,1.12-.29,1.12-.86,0-.23-.12-.46-.36-.69-.15-.13-.43-.33-.84-.58-.51-.32-.88-.59-1.09-.82-.34-.37-.51-.79-.51-1.25,0-.5.2-.9.58-1.2.39-.3.88-.45,1.48-.45s1.04.15,1.39.44c.04.33.05.59.05.79,0,.43-.16.65-.49.65-.04,0-.08,0-.12-.01l-.16-.94c-.29-.18-.58-.27-.88-.27-.63,0-.95.26-.95.77,0,.35.25.68.74,1.01.46.29.91.59,1.37.88.49.4.74.86.74,1.38s-.2.97-.6,1.32c-.4.35-.93.53-1.59.53s-1.17-.12-1.59-.36c-.07-.39-.1-.75-.1-1.07,0-.42.16-.62.48-.62.04,0,.08,0,.12.01l.26,1.05Z"/>
    <path d="M336.03,82.76v-.06c0-.97.23-1.74.7-2.31.42-.51.91-.77,1.5-.77.52,0,.78.2.78.61,0,.17-.07.33-.22.48-.27-.16-.55-.23-.84-.23-.32,0-.54.08-.67.25-.12.17-.19.45-.19.85v1.18h1.76l-.13.68h-1.62v4.89l.91.17c.12.03.18.08.18.17,0,.11-.04.23-.13.34h-2.89s-.01-.07-.01-.09c0-.2.13-.34.4-.43l.48-.16v-4.89h-.99s-.01-.06-.01-.09c0-.22.13-.36.4-.43l.6-.16Z"/>
    <path d="M342.23,89.16c-.81,0-1.47-.26-1.99-.79-.58-.58-.87-1.39-.87-2.42s.32-1.86.96-2.48c.59-.57,1.3-.86,2.14-.86s1.47.26,1.98.77c.56.57.85,1.39.85,2.44s-.32,1.88-.96,2.51c-.58.55-1.28.83-2.11.83ZM342.32,88.44c.54,0,.97-.21,1.3-.62.36-.46.53-1.11.53-1.94s-.18-1.48-.53-1.94c-.33-.42-.76-.64-1.3-.64s-.97.21-1.29.64c-.35.45-.52,1.1-.52,1.94s.17,1.49.52,1.94c.32.42.75.62,1.29.62Z"/>
    <path d="M347.19,88.32v-4.85l-.95-.13s-.01-.07-.01-.1c0-.24.16-.38.48-.4l1.53-.16-.08,1.09h.04c.51-.78,1.06-1.17,1.65-1.17s.87.21.87.64c0,.18-.07.36-.21.55-.31-.13-.6-.2-.86-.2-.59,0-1.06.25-1.42.74v3.99l.91.17c.12.03.18.08.18.17,0,.11-.04.23-.13.34h-2.89s-.01-.07-.01-.09c0-.2.13-.34.4-.43l.48-.16Z"/>
    <path d="M361.19,88.32l.78.17c.12.03.18.08.18.17,0,.11-.04.23-.13.34h-2.76s-.01-.07-.01-.09c0-.2.13-.34.4-.43l.48-.16v-3.33c0-1.01-.42-1.52-1.25-1.52-.66,0-1.24.23-1.74.7.05.31.08.56.08.75v3.39l.78.17c.12.03.18.08.18.17,0,.11-.04.23-.13.34h-2.76s-.01-.07-.01-.09c0-.2.13-.34.4-.43l.48-.16v-3.33c0-1.01-.42-1.52-1.25-1.52-.63,0-1.19.21-1.66.64v4.21l.78.17c.12.03.18.08.18.17,0,.11-.04.23-.13.34h-2.76s-.01-.07-.01-.09c0-.2.13-.34.4-.43l.48-.16v-4.85l-.95-.13s-.01-.07-.01-.1c0-.24.16-.38.48-.4l1.53-.16-.08.87h.04c.6-.63,1.29-.95,2.08-.95s1.34.35,1.66,1.04c.62-.69,1.37-1.04,2.22-1.04.62,0,1.11.2,1.47.61.35.4.53.98.53,1.72v3.39Z"/>
    <path d="M366.2,84.96c0-.57-.09-.99-.26-1.26-.17-.27-.47-.4-.88-.4-.28,0-.53.04-.77.13-.11.23-.21.61-.3,1.14-.14,0-.23.01-.27.01-.42,0-.64-.19-.64-.56,0-.39.23-.72.68-1,.45-.28.95-.42,1.5-.42,1.33,0,2,.73,2,2.2v2.85c0,.49.15.74.46.74.2,0,.36-.06.47-.17.08.11.12.23.12.36,0,.1-.08.2-.23.31-.21.15-.47.22-.78.22-.6,0-.93-.3-1-.9h-.03c-.41.62-1,.94-1.78.94-.49,0-.89-.15-1.2-.46s-.46-.71-.46-1.21c0-.63.32-1.12.96-1.47.55-.29,1.24-.44,2.07-.44h.35v-.62ZM364.9,88.34c.49,0,.92-.23,1.3-.68v-1.5l-.35.03c-1.26.09-1.89.49-1.89,1.18,0,.64.31.96.94.96Z"/>
    <path d="M369.66,82.76l.25-1.74h.75v1.74h1.95l-.13.68h-1.82v4c0,.64.28.96.85.96.43,0,.79-.11,1.08-.33.06.09.09.21.09.38,0,.11-.12.24-.35.39-.32.21-.72.31-1.2.31-1.01,0-1.52-.5-1.52-1.5v-4.23h-.99s-.01-.06-.01-.09c0-.22.13-.36.4-.43l.65-.16Z"/>
    <path d="M374.15,88.32v-4.85l-.95-.13s-.01-.07-.01-.1c0-.24.16-.38.48-.4l1.53-.16v5.64l.78.17c.12.03.18.08.18.17,0,.11-.04.23-.13.34h-2.76s-.01-.07-.01-.09c0-.2.13-.34.4-.43l.48-.16ZM373.93,80.51c0-.22.07-.41.21-.55.14-.14.32-.21.53-.21s.4.07.54.21c.14.14.21.32.21.55s-.07.41-.21.54c-.14.13-.32.2-.54.2s-.39-.07-.53-.2c-.14-.13-.21-.31-.21-.54Z"/>
    <path d="M379.82,89.16c-.81,0-1.47-.26-1.99-.79-.58-.58-.87-1.39-.87-2.42s.32-1.86.96-2.48c.59-.57,1.3-.86,2.14-.86s1.47.26,1.98.77c.56.57.85,1.39.85,2.44s-.32,1.88-.96,2.51c-.58.55-1.28.83-2.11.83ZM379.91,88.44c.54,0,.97-.21,1.3-.62.36-.46.53-1.11.53-1.94s-.18-1.48-.53-1.94c-.33-.42-.76-.64-1.3-.64s-.97.21-1.29.64c-.35.45-.52,1.1-.52,1.94s.17,1.49.52,1.94c.32.42.75.62,1.29.62Z"/>
    <path d="M384.77,88.32v-4.85l-.95-.13s-.01-.07-.01-.1c0-.24.16-.38.48-.4l1.53-.16-.08.87h.04c.29-.29.55-.49.75-.61.4-.23.86-.34,1.39-.34.63,0,1.13.2,1.48.61s.53.98.53,1.72v3.39l.78.17c.12.03.18.08.18.17,0,.11-.04.23-.13.34h-2.76s-.01-.07-.01-.09c0-.2.13-.34.4-.43l.48-.16v-3.33c0-.53-.15-.93-.44-1.2-.25-.22-.57-.33-.96-.33-.62,0-1.18.21-1.66.64v4.21l.78.17c.12.03.18.08.18.17,0,.11-.04.23-.13.34h-2.76s-.01-.07-.01-.09c0-.2.13-.34.4-.43l.48-.16Z"/>
    <path d="M392.54,88.17c.26.19.58.29.95.29.75,0,1.12-.29,1.12-.86,0-.23-.12-.46-.36-.69-.15-.13-.43-.33-.84-.58-.51-.32-.88-.59-1.09-.82-.34-.37-.51-.79-.51-1.25,0-.5.2-.9.58-1.2.39-.3.88-.45,1.48-.45s1.04.15,1.39.44c.04.33.05.59.05.79,0,.43-.16.65-.49.65-.04,0-.08,0-.12-.01l-.16-.94c-.29-.18-.58-.27-.88-.27-.63,0-.95.26-.95.77,0,.35.25.68.74,1.01.46.29.91.59,1.37.88.49.4.74.86.74,1.38s-.2.97-.6,1.32c-.4.35-.93.53-1.59.53s-1.17-.12-1.59-.36c-.07-.39-.1-.75-.1-1.07,0-.42.16-.62.48-.62.04,0,.08,0,.12.01l.26,1.05Z"/>
    <path d="M397.46,82.76v-.06c0-.97.23-1.74.7-2.31.42-.51.91-.77,1.5-.77.52,0,.78.2.78.61,0,.17-.07.33-.22.48-.27-.16-.55-.23-.84-.23-.32,0-.54.08-.67.25-.12.17-.19.45-.19.85v1.18h1.76l-.13.68h-1.62v4.89l.91.17c.12.03.18.08.18.17,0,.11-.04.23-.13.34h-2.89s-.01-.07-.01-.09c0-.2.13-.34.4-.43l.48-.16v-4.89h-.99s-.01-.06-.01-.09c0-.22.13-.36.4-.43l.6-.16Z"/>
    <path d="M403.66,89.16c-.81,0-1.47-.26-1.99-.79-.58-.58-.87-1.39-.87-2.42s.32-1.86.96-2.48c.59-.57,1.3-.86,2.14-.86s1.47.26,1.98.77c.56.57.85,1.39.85,2.44s-.32,1.88-.96,2.51c-.58.55-1.28.83-2.11.83ZM403.75,88.44c.54,0,.97-.21,1.3-.62.36-.46.53-1.11.53-1.94s-.18-1.48-.53-1.94c-.33-.42-.76-.64-1.3-.64s-.97.21-1.29.64c-.35.45-.52,1.1-.52,1.94s.17,1.49.52,1.94c.32.42.75.62,1.29.62Z"/>
    <path d="M408.61,88.32v-4.85l-.95-.13s-.01-.07-.01-.1c0-.24.16-.38.48-.4l1.53-.16-.08.87h.04c.29-.29.55-.49.75-.61.4-.23.86-.34,1.39-.34.63,0,1.13.2,1.48.61s.53.98.53,1.72v3.39l.78.17c.12.03.18.08.18.17,0,.11-.04.23-.13.34h-2.76s-.01-.07-.01-.09c0-.2.13-.34.4-.43l.48-.16v-3.33c0-.53-.15-.93-.44-1.2-.25-.22-.57-.33-.96-.33-.62,0-1.18.21-1.66.64v4.21l.78.17c.12.03.18.08.18.17,0,.11-.04.23-.13.34h-2.76s-.01-.07-.01-.09c0-.2.13-.34.4-.43l.48-.16Z"/>
    <path d="M419.89,88.26h-.04c-.43.6-1.05.9-1.86.9-.7,0-1.27-.23-1.72-.68-.52-.53-.78-1.33-.78-2.42s.34-2.01,1.01-2.64c.59-.55,1.32-.82,2.18-.82.39,0,.76.06,1.12.17v-2.42l-.95-.13s-.01-.07-.01-.1c0-.24.16-.38.48-.4l1.53-.16v8.72l.95.13s.01.07.01.1c0,.24-.16.38-.48.4l-1.46.16v-.82ZM418.31,88.31c.63,0,1.14-.19,1.51-.56v-3.95c-.31-.31-.73-.47-1.25-.47-.58,0-1.05.21-1.4.64-.38.46-.57,1.1-.57,1.91s.16,1.44.49,1.86c.29.38.7.57,1.22.57Z"/>
    <path d="M423.56,88.17c.26.19.58.29.95.29.75,0,1.12-.29,1.12-.86,0-.23-.12-.46-.36-.69-.15-.13-.43-.33-.84-.58-.51-.32-.88-.59-1.09-.82-.34-.37-.51-.79-.51-1.25,0-.5.2-.9.58-1.2.39-.3.88-.45,1.48-.45s1.04.15,1.39.44c.04.33.05.59.05.79,0,.43-.16.65-.49.65-.04,0-.08,0-.12-.01l-.16-.94c-.29-.18-.58-.27-.88-.27-.63,0-.95.26-.95.77,0,.35.25.68.74,1.01.46.29.91.59,1.37.88.49.4.74.86.74,1.38s-.2.97-.6,1.32c-.4.35-.93.53-1.59.53s-1.17-.12-1.59-.36c-.07-.39-.1-.75-.1-1.07,0-.42.16-.62.48-.62.04,0,.08,0,.12.01l.26,1.05Z"/>
    <path d="M434.91,88.26h-.04c-.43.6-1.05.9-1.86.9-.7,0-1.27-.23-1.72-.68-.52-.53-.78-1.33-.78-2.42s.34-2.01,1.01-2.64c.59-.55,1.32-.82,2.18-.82.39,0,.76.06,1.12.17v-2.42l-.95-.13s-.01-.07-.01-.1c0-.24.16-.38.48-.4l1.53-.16v8.72l.95.13s.01.07.01.1c0,.24-.16.38-.48.4l-1.46.16v-.82ZM433.32,88.31c.63,0,1.14-.19,1.51-.56v-3.95c-.31-.31-.73-.47-1.25-.47-.58,0-1.05.21-1.4.64-.38.46-.57,1.1-.57,1.91s.16,1.44.49,1.86c.29.38.7.57,1.22.57Z"/>
    <path d="M438.81,85.84c0,.81.19,1.44.54,1.88s.84.66,1.48.66c.57,0,1.1-.2,1.6-.61.1.07.15.2.17.38,0,.2-.19.41-.58.62-.46.26-1,.39-1.62.39-.79,0-1.42-.24-1.88-.73-.54-.55-.81-1.36-.81-2.43s.28-1.92.84-2.55c.51-.56,1.14-.85,1.9-.85.68,0,1.2.2,1.59.61.35.39.53.92.53,1.57,0,.29-.05.64-.14,1.05h-3.6ZM440.3,83.28c-.88,0-1.37.65-1.48,1.94h2.56c.04-.17.07-.36.07-.55,0-.93-.38-1.39-1.14-1.39Z"/>
    <path d="M444.63,88.17c.26.19.58.29.95.29.75,0,1.12-.29,1.12-.86,0-.23-.12-.46-.36-.69-.15-.13-.43-.33-.84-.58-.51-.32-.88-.59-1.09-.82-.34-.37-.51-.79-.51-1.25,0-.5.2-.9.58-1.2.39-.3.88-.45,1.48-.45s1.04.15,1.39.44c.04.33.05.59.05.79,0,.43-.16.65-.49.65-.04,0-.08,0-.12-.01l-.16-.94c-.29-.18-.58-.27-.88-.27-.63,0-.95.26-.95.77,0,.35.25.68.74,1.01.46.29.91.59,1.37.88.49.4.74.86.74,1.38s-.2.97-.6,1.32c-.4.35-.93.53-1.59.53s-1.17-.12-1.59-.36c-.07-.39-.1-.75-.1-1.07,0-.42.16-.62.48-.62.04,0,.08,0,.12.01l.26,1.05Z"/>
  </g>
  <g id="Layer_1-2" data-name="Layer 1">
    <g>
      <path d="M90.73,127.42c1.35,2.12,2.4,2.09,3.99,2.09-1.32-1.01-2.19-2.29-2.6-2.96l-2.46-3.92c-.24-1.21-.87-2.34-1.81-3.19.32-.12.58-.25.74-.36-1.61,0-3.2-.81-4.07-.81-.56,0-.93.34-.93.78.04.49.55.99,1.49.99.21,0,.49-.02.79-.08.51.71.92,1.36.92,2.27,0,1.72-2.06,3.06-4.14,3.06-.12,0-.23,0-.35,0-.19-.43-.82-1.14-.82-1.96,0-1.36.89-2.48.89-3.83,0-.85-.41-1.36-.57-1.58.25-.24.53-.53.6-.73-.15.07-.33.07-.58.07-1,0-1.81-.25-2.6-.25-.45,0-.57.14-.57.27,0,.05,0,.1.02.12-.17-.07-.33-.12-.51-.15-.23-.04-.49-.07-.75-.07-.96,0-1.31.4-1.31.75,0,.29.23.82.49,1.23.37-.19.83-.32,1.03-.32.51,0,.97.48,1.21,1.06-.34.04-.41.06-.76.06-.94,0-1.58-.34-1.71-.34-.01,0-.04,0-.04.03,0,.13.27.48.79.67.69.25,1.72.35,1.9.39,0,.02-.17.35-.37.42-.04,0-.07,0-.12,0-.72-.14-.92-.2-1.84-.55-.03,0-.04,0-.04.04,0,.36.94,1.16,1.78,1.46-.7.89-1.58,1.8-1.99,3.2-.12,0-.23,0-.35,0-2.08,0-4.14-1.34-4.14-3.06,0-.91.41-1.55.92-2.27.3.06.57.08.79.08.94,0,1.45-.5,1.49-.99,0-.44-.36-.78-.93-.78-.88,0-2.47.81-4.08.81.16.12.42.25.74.36-.94.85-1.57,1.98-1.81,3.19l-2.46,3.92c-.41.67-1.29,1.95-2.61,2.96,1.59,0,2.65.03,3.99-2.09l1.26-2.01c.09.26.21.52.34.76l-2.51,4c-.42.67-1.28,1.94-2.61,2.95,1.59,0,2.65.04,3.99-2.08l2.16-3.45c.16.17.33.35.51.5l-3.05,4.87c-.42.67-1.28,1.94-2.6,2.95,1.59,0,2.65.03,3.99-2.09l2.97-4.74c.2.12.4.25.6.35l-3.63,5.79c-.42.67-1.28,1.94-2.6,2.95,1.59,0,2.65.04,3.99-2.08l3.73-5.96c.22.08.45.16.67.24l-4.22,6.73c-.41.65-1.29,1.95-2.6,2.95,1.59,0,2.65.03,3.99-2.09l4.5-7.18s.09.02.14.02c.12.39.21.75.21,1.11,0,2.25-1.48,4.25-3.27,5.79.11.05.31.07.5.07.37,0,.61-.02.77-.05-.41.94-1.3,2.15-1.75,2.77-.58-.11-1.43-.19-1.99-.19-.58,0-.65.34-.65.64,0,.53.25.95.53,1.18.11-.26.32-.62,1.4-.62.02,0,.06,0,.11,0-.31.35-1.3,1.13-1.3,1.78,0,.42.46,1.05,1.08,1.05-.04-.14-.03-.26-.03-.36,0-.52.46-1.12.85-1.55-.01.13,0,.12,0,.26,0,1.22.11,1.78.89,1.78.38,0,.64-.21.74-.27-.5-.46-.53-.83-.53-1.51,0-.18,0-.35,0-.59,0-.16,0-.37-.03-.52.28-.04.39-.04.61-.04,0,0,1.1-.08,1.37.48.3-.27.74-.66.74-1.08,0-.28-.13-.6-.7-.6-.22,0-.89.13-1.46.13.15-.34.83-1.32,1.42-2.05.09.28.23.58.54.83.04-.46.31-1.92,1.04-2.78.08.58.2,1.17.2,2.42,0,3.03-.73,5.28-2.29,5.7.2.35.63.67,1.07.67.57,0,.88-.64,1.19-1.25.16.45.62,1.54,1.07,1.54s.91-1.09,1.07-1.54c.31.6.62,1.25,1.19,1.25.44,0,.87-.32,1.07-.67-1.55-.43-2.29-2.67-2.29-5.7,0-1.25.11-1.84.2-2.42.72.85,1,2.32,1.04,2.78.31-.25.45-.55.54-.83.59.72,1.27,1.71,1.42,2.05-.57,0-1.25-.13-1.46-.13-.57,0-.7.32-.7.6,0,.43.44.81.74,1.08.26-.57,1.37-.48,1.37-.48.21,0,.33,0,.61.04-.03.15-.03.35-.03.52,0,.24,0,.41,0,.59,0,.68-.03,1.05-.53,1.51.09.06.35.27.74.27.78,0,.89-.56.89-1.78,0-.15,0-.13,0-.26.39.43.85,1.03.85,1.55,0,.09,0,.22-.03.36.61,0,1.08-.64,1.08-1.05,0-.64-.98-1.43-1.3-1.78.05,0,.09,0,.11,0,1.07,0,1.29.36,1.4.62.29-.23.53-.65.53-1.18,0-.3-.07-.64-.65-.64s-1.4.08-1.99.19c-.45-.62-1.33-1.83-1.75-2.77.17.02.4.05.77.05.18,0,.38-.02.5-.07-1.78-1.54-3.27-3.53-3.27-5.79,0-.36.09-.72.21-1.11.04,0,.09-.02.14-.02l4.5,7.18c1.35,2.12,2.4,2.09,3.99,2.09-1.31-1-2.19-2.3-2.6-2.95l-4.22-6.73c.23-.07.45-.16.67-.24l3.73,5.96c1.35,2.12,2.4,2.08,3.99,2.08-1.32-1.01-2.18-2.28-2.6-2.95l-3.63-5.79c.21-.11.41-.23.6-.35l2.97,4.74c1.35,2.12,2.4,2.09,3.99,2.09-1.32-1.01-2.18-2.28-2.6-2.95l-3.05-4.87c.18-.16.35-.33.51-.5l2.16,3.45c1.35,2.12,2.4,2.08,3.99,2.08-1.32-1.01-2.19-2.28-2.61-2.95l-2.51-4c.13-.25.25-.5.34-.76l1.26,2.01ZM70.6,122.81c0-1.5,1.09-2.67,1.48-3.01.09.02.18.04.28.07-.41.49-1.13,1.32-1.13,2.42,0,2.19,2.34,4.09,5,4.09-.02.18-.03.38-.03.58,0,.32.02.62.05.9-3-.02-5.65-2.44-5.65-5.06M74.66,140.74l-.02.05h.05c.84,0,1.25-.06,1.52-.1.14-.02.24-.03.36-.03.22,0,.38.02.38.29,0,.18-.21.47-.41.63-.31-.3-.74-.35-1.37-.35-.3,0-.68.06-.89.08h-.03s-.04,0-.04,0v.1c.04.17.07.39.07.68v.27s0,.33,0,.33c0,.71.1,1.12.35,1.43-.07.02-.17.04-.24.04-.44,0-.57-.19-.57-1.47,0-.25-.01-.5-.02-.66v-.24s-.07.04-.07.04c-.66.5-1.34,1.41-1.38,2.07-.2-.13-.41-.41-.41-.63,0-.37.55-.92,1.19-1.55l.37-.37.05-.04-.12-.03c-.14-.03-.39-.1-.61-.1-.72,0-1.16.13-1.44.44-.1-.15-.18-.48-.18-.67,0-.13.02-.21.08-.27.06-.06.16-.06.24-.06h.02c.79,0,1.73.14,2.1.2h.02s.01,0,.01,0c.06-.08,1.57-2.09,1.96-3.15.09-.03.17-.06.32-.06.3,0,.38.2.47.5-.94,1.14-1.53,2.03-1.74,2.64M82.79,137.6c.16,0,.23.02.33.06.39,1.06,1.9,3.07,1.96,3.15v.02s.04,0,.04,0c.37-.06,1.31-.2,2.1-.2h.02c.08,0,.18,0,.24.06.05.06.08.14.08.27,0,.2-.08.53-.18.67-.28-.3-.72-.44-1.44-.44-.22,0-.47.07-.61.1l-.06.02-.06.02.41.41c.64.63,1.19,1.18,1.19,1.55,0,.22-.22.51-.41.63-.04-.67-.72-1.57-1.38-2.07l-.06-.04v.24c-.02.16-.03.4-.03.66,0,1.27-.13,1.47-.57,1.47-.07,0-.17-.02-.24-.04.25-.31.35-.72.35-1.43v-.33s0-.27,0-.27c0-.29.03-.51.05-.68v-.1s-.06,0-.06,0c-.21-.02-.59-.08-.89-.08-.63,0-1.06.06-1.37.35-.21-.16-.42-.45-.42-.63,0-.26.17-.29.38-.29.11,0,.21.02.36.03.27.04.68.1,1.52.1h.05l-.02-.05c-.21-.61-.8-1.5-1.74-2.64.08-.3.17-.5.46-.5M79.3,120.16c-.09-.39-.29-.79-.55-1.09-.23-.27-.61-.59-1.13-.59-.24,0-.63.11-.88.21-.09-.17-.28-.58-.28-.76s.32-.39.94-.39c1.36,0,2.17.62,2.17,1.64,0,.35-.14.68-.27.98M79.91,118.82c-.05-.29-.16-.55-.33-.77,0-.26.12-.52.55-.31-.23.24-.05.66-.05.66,0,0,.47-.22.38-.53.7.17.2,1.11-.54.96M82.55,127.87c.04-.29.06-.59.06-.9,0-.17,0-.36-.02-.59,2.62-.03,4.92-1.92,4.92-4.08,0-1.1-.72-1.93-1.13-2.42.09-.02.18-.04.28-.07.38.34,1.47,1.51,1.47,3.01,0,2.6-2.6,5.01-5.58,5.06"/>
      <rect x="102.72" y="118.31" width="4.6" height="26.23"/>
      <rect class="cls-2" x="102.72" y="144.54" width="4.6" height="26.23"/>
      <rect class="cls-1" x="102.72" y="170.77" width="4.6" height="26.23"/>
      <path d="M219.02,122.18c.78,0,1.14.52,1.14,1.74v4.87h1.28v-5.07c0-.28-.02-.55-.07-.78.28-.34.76-.76,1.45-.76.86,0,1.31.52,1.31,1.74v4.87h1.28v-5.07c0-1.79-.79-2.67-2.3-2.67-.98,0-1.67.58-2.01,1-.35-.67-.97-1-1.83-1-1.04,0-1.69.69-1.89,1.04h-.03v-.85h-1.17v7.55h1.28v-5.83c.22-.26.71-.78,1.57-.78ZM213.02,127.94h.03v.85h1.17v-7.55h-1.29v5.78c-.25.31-.75.83-1.53.83-.86,0-1.26-.5-1.26-1.75v-4.86h-1.29v4.96c0,2.05.84,2.79,2.18,2.79,1.15,0,1.83-.77,1.97-1.04ZM206.96,121.23h-1.28v7.55h1.28v-7.55ZM206.32,119.41c.5,0,.86-.38.86-.91s-.35-.9-.86-.9-.87.38-.87.9.35.91.87.91ZM204.57,121.22c-.13-.05-.34-.12-.7-.12-.96,0-1.37.56-1.59,1.16h-.03v-1.02h-1.17v7.55h1.28v-5.54c.19-.5.62-1.03,1.43-1.03.35,0,.57.1.63.13l.16-1.13ZM199.53,128.08l-.48-.9c-.17.17-.69.66-1.59.66-1.28,0-1.97-.83-2.05-2.6h3.87c.05-.36.1-.82.1-1.46,0-1.81-.89-2.74-2.33-2.74-1.57,0-2.89,1.19-2.89,3.87,0,2.84,1.2,4.06,3.11,4.06,1.43,0,2.05-.67,2.26-.9ZM196.98,122.08c.8,0,1.23.62,1.23,1.65,0,.24-.02.44-.03.55h-2.75c.07-1.41.64-2.2,1.55-2.2ZM193.38,128.65l-.17-1.03c-.12.08-.41.22-.79.22-.64,0-.9-.31-.9-1.38v-4.19h1.66l.16-1.04h-1.81v-2.11h-1.14l-.14,2.11-.92.19v.85h.92v4.36c0,1.67.66,2.34,1.95,2.34.68,0,1.08-.25,1.19-.33ZM188.23,121.84c-.26-.25-.76-.8-1.93-.8-1.23,0-2.19.83-2.19,1.95,0,1.04.57,1.65,1.52,2.25l.47.3c.73.46,1.1.71,1.1,1.44,0,.48-.41.86-1.17.86-.82,0-1.29-.48-1.53-.74l-.62,1.01c.3.31.92.86,2.14.86,1.54,0,2.42-.93,2.42-2.13,0-1.12-.63-1.73-1.67-2.34l-.47-.28c-.68-.41-1-.72-1-1.29,0-.44.36-.81,1.05-.81s1.15.44,1.33.63l.55-.92ZM182.45,121.23h-1.28v7.55h1.28v-7.55ZM181.82,119.41c.5,0,.86-.38.86-.91s-.35-.9-.86-.9-.87.38-.87.9.35.91.87.91ZM176.67,122.13c.88,0,1.31.52,1.31,1.79v4.87h1.28v-4.96c0-2.05-.85-2.79-2.21-2.79-1.19,0-1.86.77-2,1.04h-.03v-.85h-1.17v7.55h1.28v-5.83c.26-.31.78-.83,1.55-.83ZM171.89,121.23h-1.28v7.55h1.28s0-7.55,0-7.55ZM171.25,119.41c.5,0,.86-.38.86-.91s-.35-.9-.86-.9-.87.38-.87.9.35.91.87.91ZM162.3,122.18c.79,0,1.14.52,1.14,1.74v4.87h1.28v-5.07c0-.28-.02-.55-.06-.78.28-.34.76-.76,1.45-.76.85,0,1.31.52,1.31,1.74v4.87h1.28v-5.07c0-1.79-.79-2.67-2.31-2.67-.97,0-1.67.58-2,1-.35-.67-.98-1-1.83-1-1.04,0-1.69.69-1.9,1.04h-.03v-.85h-1.16v7.55h1.28v-5.83c.22-.26.71-.78,1.56-.78ZM157.76,121.84c-.26-.25-.76-.8-1.93-.8-1.23,0-2.19.83-2.19,1.95,0,1.04.57,1.65,1.52,2.25l.47.3c.73.46,1.1.72,1.1,1.44,0,.48-.4.86-1.16.86-.82,0-1.29-.48-1.53-.74l-.62,1.01c.31.31.92.86,2.14.86,1.54,0,2.42-.93,2.42-2.13,0-1.12-.63-1.73-1.66-2.34l-.48-.28c-.68-.41-.99-.72-.99-1.29,0-.44.36-.81,1.04-.81s1.15.44,1.33.63l.55-.92ZM152.39,128.08l-.48-.9c-.17.17-.69.66-1.59.66-1.28,0-1.97-.83-2.05-2.6h3.87c.05-.36.1-.82.1-1.46,0-1.81-.89-2.74-2.33-2.74-1.57,0-2.89,1.19-2.89,3.87,0,2.84,1.2,4.06,3.11,4.06,1.43,0,2.05-.67,2.26-.9ZM149.83,122.08c.8,0,1.23.62,1.23,1.65,0,.24-.02.44-.03.55h-2.75c.07-1.41.65-2.2,1.55-2.2ZM144.21,127.98h.03v.81h1.16v-11.27l-1.28.14v3.62c-.23-.1-.58-.19-1.07-.19-1.61,0-3.35.97-3.35,4.03,0,2.75,1.22,3.85,2.65,3.85,1.2,0,1.71-.76,1.85-.99ZM142.71,127.84c-.88,0-1.67-.69-1.67-2.77s.93-2.89,2.12-2.89c.45,0,.76.12.97.26v4.66c-.17.25-.61.74-1.42.74ZM135.56,122.13c.88,0,1.31.52,1.31,1.79v4.87h1.28v-4.96c0-2.05-.86-2.79-2.21-2.79-1.19,0-1.86.77-2.01,1.04h-.02v-.85h-1.17v7.55h1.28v-5.83c.26-.31.78-.83,1.55-.83ZM129.58,127.94h.03v.85h1.16v-7.55h-1.28v5.78c-.25.31-.76.83-1.53.83-.86,0-1.27-.5-1.27-1.75v-4.86h-1.28v4.96c0,2.05.84,2.79,2.18,2.79,1.15,0,1.84-.77,1.98-1.04ZM122.31,125.74c0,1.25-.69,1.91-2.31,1.91h-.85v-3.81h.93c1.42,0,2.23.74,2.23,1.9ZM122.1,120.74c0,1.25-.78,2.02-2.24,2.02h-.71v-3.75h.73c1.53,0,2.23.74,2.23,1.73ZM123.5,120.7c0-1.68-1.03-2.77-3.62-2.77h-2.1v10.86h2.23c2.61,0,3.78-1.24,3.78-2.94,0-1.45-.93-2.39-2.05-2.61v-.03c.95-.25,1.77-.99,1.77-2.5Z"/>
      <path d="M208.22,143.72h.03v.8h1.16v-11.27l-1.28.14v3.62c-.23-.09-.59-.19-1.07-.19-1.61,0-3.35.98-3.35,4.04,0,2.75,1.22,3.85,2.65,3.85,1.2,0,1.71-.76,1.85-.99ZM206.72,143.58c-.88,0-1.67-.69-1.67-2.77s.93-2.89,2.12-2.89c.45,0,.76.12.97.26v4.66c-.17.25-.61.74-1.42.74ZM199.57,137.87c.88,0,1.3.52,1.3,1.79v4.86h1.29v-4.95c0-2.05-.86-2.79-2.21-2.79-1.19,0-1.86.77-2.01,1.04h-.03v-.85h-1.16v7.55h1.28v-5.83c.26-.31.78-.83,1.55-.83ZM193.58,143.67h.03v.85h1.16v-7.55h-1.28v5.77c-.25.32-.76.84-1.53.84-.85,0-1.26-.5-1.26-1.75v-4.86h-1.28v4.96c0,2.04.84,2.78,2.18,2.78,1.15,0,1.84-.77,1.98-1.04ZM184.42,137.58c-.25-.25-.76-.8-1.92-.8-1.24,0-2.2.83-2.2,1.95,0,1.04.57,1.65,1.52,2.25l.48.3c.73.46,1.1.72,1.1,1.44,0,.48-.41.86-1.17.86-.82,0-1.29-.48-1.53-.74l-.61,1.01c.3.31.92.87,2.13.87,1.55,0,2.42-.93,2.42-2.13,0-1.12-.63-1.73-1.66-2.34l-.47-.29c-.68-.4-1-.72-1-1.29,0-.44.36-.8,1.04-.8.71,0,1.15.44,1.33.62l.55-.91ZM179.05,143.81l-.47-.9c-.17.18-.7.67-1.6.67-1.28,0-1.97-.84-2.05-2.6h3.87c.05-.36.1-.82.1-1.46,0-1.81-.88-2.74-2.33-2.74-1.57,0-2.89,1.19-2.89,3.87,0,2.84,1.2,4.06,3.11,4.06,1.44,0,2.05-.68,2.26-.9ZM176.5,137.82c.81,0,1.23.62,1.23,1.65,0,.24-.02.44-.03.55h-2.75c.07-1.41.65-2.2,1.55-2.2ZM171.7,133.26l-1.28.14v9.48c0,1.34.59,1.79,1.43,1.79.57,0,.9-.14,1.02-.2l-.11-.95c-.08.03-.24.1-.47.1-.45,0-.6-.22-.6-.85v-9.5ZM167.25,141.22v1.67c-.16.23-.52.74-1.26.74-.63,0-1.01-.39-1.01-1.17,0-.84.65-1.18,1.86-1.22l.41-.02ZM167.25,140.28h-.4c-1.72,0-3.16.58-3.16,2.33,0,1.23.87,2.11,2.02,2.11.96,0,1.42-.65,1.59-1.03h.03c.02.38.03.62.05.84h1.21c-.02-.2-.09-.93-.09-1.58v-3.44c0-1.91-.82-2.72-2.37-2.72-1.22,0-1.95.58-2.28.91l.54.85c.29-.25.79-.67,1.55-.67.82,0,1.29.41,1.29,1.68v.72ZM162.89,144.38l-.17-1.02c-.12.08-.41.22-.79.22-.64,0-.9-.31-.9-1.39v-4.18h1.66l.16-1.04h-1.82v-2.11h-1.14l-.14,2.11-.92.19v.85h.92v4.36c0,1.67.67,2.35,1.96,2.35.68,0,1.07-.25,1.18-.33ZM157.48,136.97h-1.28v7.55h1.28v-7.55ZM156.86,135.15c.5,0,.85-.38.85-.92s-.35-.9-.85-.9-.87.38-.87.9.35.92.87.92ZM151.22,146.77c-.9,0-1.34-.41-1.34-1.21,0-.76.41-1.12.78-1.32.17.03.38.05.59.05h.96c.78,0,1.28.28,1.28,1.01,0,.77-.71,1.48-2.26,1.48ZM154.79,145.11c0-1.44-1.07-2-2.51-2h-.96c-.55,0-.78-.21-.78-.53,0-.39.36-.59.61-.71.13.02.26.02.4.02,1.48,0,2.62-.96,2.62-2.56,0-.5-.12-.98-.36-1.36h.95l.17-.99h-2.3c-.32-.13-.65-.19-1.01-.19-1.42,0-2.57.83-2.57,2.53,0,1.2.52,1.95,1.29,2.31v.03c-.19.1-.92.41-.92,1.23,0,.47.17.81.49,1.05v.03c-.35.19-1.26.72-1.26,1.84,0,1.31.87,2.05,2.48,2.05,2.24,0,3.66-1.13,3.66-2.75ZM152.93,139.31c0,1.08-.6,1.51-1.33,1.51s-1.31-.43-1.31-1.51.62-1.51,1.34-1.51,1.29.43,1.29,1.51ZM147.37,136.97h-1.28v7.55h1.28v-7.55ZM146.73,135.15c.51,0,.86-.38.86-.92s-.35-.9-.86-.9-.87.38-.87.9.35.92.87.92ZM139.12,134.75c2.42,0,3.78,1,3.78,4.08,0,3.32-1.42,4.56-3.93,4.56h-.52v-8.64h.68ZM138.97,144.52c3.33,0,5.4-1.72,5.4-5.69,0-3.73-1.69-5.16-5.24-5.16h-2.05v10.86h1.9ZM132.72,136.96c-.12-.05-.33-.13-.69-.13-.96,0-1.38.57-1.6,1.17h-.03v-1.02h-1.16v7.55h1.28v-5.54c.19-.51.62-1.03,1.42-1.03.35,0,.57.1.63.13l.16-1.13ZM126.07,143.67h.03v.85h1.16v-7.55h-1.28v5.77c-.25.32-.76.84-1.53.84-.85,0-1.26-.5-1.26-1.75v-4.86h-1.28v4.96c0,2.04.84,2.78,2.18,2.78,1.15,0,1.84-.77,1.98-1.04ZM124.13,134.79c0-.48-.33-.8-.76-.8s-.76.31-.76.8.34.81.76.81.76-.31.76-.81ZM126.56,134.79c0-.48-.33-.8-.76-.8s-.76.31-.76.8.33.81.76.81.76-.31.76-.81ZM120.7,138.01l.16-1.04h-1.71v-1.36c0-.99.33-1.32.93-1.32.33,0,.57.12.69.21l.27-1.05c-.13-.08-.54-.29-1.07-.29-1.12,0-2.1.67-2.1,2.32v1.51l-.92.17v.85h.92v6.52h1.28v-6.52h1.55Z"/>
      <path d="M235.56,162.51c-.9,0-1.34-.41-1.34-1.21,0-.76.41-1.12.78-1.32.17.03.38.05.58.05h.96c.78,0,1.28.28,1.28,1.01,0,.77-.71,1.48-2.26,1.48ZM239.13,160.84c0-1.43-1.07-2-2.51-2h-.96c-.55,0-.78-.22-.78-.54,0-.39.36-.6.62-.71.12.02.25.02.4.02,1.48,0,2.62-.96,2.62-2.57,0-.5-.13-.98-.36-1.35h.94l.17-.99h-2.3c-.31-.13-.65-.19-1.01-.19-1.42,0-2.57.83-2.57,2.53,0,1.2.52,1.95,1.29,2.31v.03c-.19.09-.92.41-.92,1.23,0,.47.17.82.49,1.05v.03c-.35.19-1.27.72-1.27,1.84,0,1.31.87,2.05,2.48,2.05,2.24,0,3.66-1.13,3.66-2.75ZM237.26,155.05c0,1.09-.59,1.51-1.33,1.51-.69,0-1.3-.42-1.3-1.51s.61-1.51,1.34-1.51,1.29.42,1.29,1.51ZM229.17,153.6c.88,0,1.31.52,1.31,1.79v4.86h1.28v-4.96c0-2.05-.85-2.79-2.21-2.79-1.19,0-1.86.77-2,1.04h-.03v-.85h-1.17v7.55h1.28v-5.82c.26-.31.78-.83,1.55-.83ZM223.18,159.41h.03v.85h1.17v-7.55h-1.28v5.78c-.26.31-.76.83-1.53.83-.85,0-1.26-.5-1.26-1.75v-4.86h-1.28v4.96c0,2.05.83,2.79,2.18,2.79,1.15,0,1.83-.77,1.97-1.04ZM217.97,152.69c-.12-.05-.33-.13-.69-.13-.96,0-1.38.57-1.59,1.16h-.03v-1.02h-1.17s0,7.55,0,7.55h1.28v-5.54c.19-.5.62-1.02,1.43-1.02.35,0,.57.09.63.13l.16-1.13ZM212.93,159.55l-.47-.9c-.17.17-.69.66-1.59.66-1.28,0-1.98-.83-2.05-2.6h3.87c.05-.36.09-.82.09-1.46,0-1.81-.88-2.74-2.32-2.74-1.58,0-2.89,1.2-2.89,3.87,0,2.85,1.2,4.06,3.12,4.06,1.43,0,2.05-.68,2.25-.9ZM210.38,153.56c.81,0,1.24.61,1.24,1.65,0,.24-.02.44-.03.55h-2.75c.06-1.42.64-2.2,1.54-2.2ZM205.96,152.71h-1.28v7.55h1.28v-7.55ZM205.32,150.88c.51,0,.86-.38.86-.91s-.35-.9-.86-.9-.87.38-.87.9.35.91.87.91ZM202.97,153.32c-.25-.25-.76-.8-1.92-.8-1.24,0-2.2.83-2.2,1.95,0,1.04.57,1.65,1.52,2.25l.48.3c.73.46,1.1.71,1.1,1.43,0,.49-.41.87-1.17.87-.82,0-1.29-.49-1.53-.74l-.61,1.01c.3.31.92.87,2.13.87,1.55,0,2.42-.93,2.42-2.12,0-1.12-.63-1.73-1.66-2.35l-.47-.28c-.68-.41-1-.72-1-1.29,0-.44.36-.8,1.04-.8.71,0,1.15.44,1.33.63l.55-.91ZM197.19,152.71h-1.28v7.55h1.28v-7.55ZM196.57,150.88c.5,0,.85-.38.85-.91s-.35-.9-.85-.9-.87.38-.87.9.35.91.87.91ZM191.41,153.6c.89,0,1.31.52,1.31,1.79v4.86h1.29v-4.96c0-2.05-.86-2.79-2.22-2.79-1.18,0-1.86.77-2,1.04h-.03v-.85h-1.16v7.55h1.28v-5.82c.25-.31.78-.83,1.54-.83ZM187.49,152.69c-.13-.05-.34-.13-.7-.13-.96,0-1.37.57-1.59,1.16h-.03v-1.02h-1.17v7.55h1.29v-5.54c.19-.5.61-1.02,1.42-1.02.35,0,.57.09.63.13l.16-1.13ZM182.45,159.55l-.48-.9c-.17.17-.69.66-1.59.66-1.28,0-1.97-.83-2.05-2.6h3.87c.05-.36.1-.82.1-1.46,0-1.81-.89-2.74-2.33-2.74-1.57,0-2.89,1.2-2.89,3.87,0,2.85,1.2,4.06,3.11,4.06,1.43,0,2.05-.68,2.26-.9ZM179.89,153.56c.8,0,1.23.61,1.23,1.65,0,.24-.02.44-.03.55h-2.75c.07-1.42.64-2.2,1.55-2.2ZM174.27,159.46h.03v.8h1.16v-11.27l-1.28.14v3.62c-.23-.09-.59-.19-1.07-.19-1.61,0-3.35.98-3.35,4.03,0,2.75,1.22,3.86,2.65,3.86,1.2,0,1.71-.76,1.85-.99ZM172.77,159.32c-.88,0-1.67-.69-1.67-2.77s.93-2.9,2.12-2.9c.45,0,.76.13.97.27v4.66c-.17.25-.61.74-1.42.74ZM167.18,156.48c0,2-.62,2.83-1.66,2.83s-1.67-.83-1.67-2.83.62-2.88,1.66-2.88,1.67.88,1.67,2.88ZM162.52,156.48c0,2.83,1.28,3.97,2.95,3.97s3.03-1.15,3.03-3.97-1.28-3.97-2.95-3.97-3.03,1.18-3.03,3.97ZM154.57,153.65c.79,0,1.14.52,1.14,1.75v4.86h1.28v-5.07c0-.28-.02-.55-.07-.79.29-.33.76-.76,1.46-.76.85,0,1.31.52,1.31,1.75v4.86h1.28v-5.07c0-1.79-.79-2.68-2.31-2.68-.98,0-1.67.58-2,1.01-.35-.68-.98-1.01-1.83-1.01-1.05,0-1.69.69-1.9,1.04h-.03v-.85h-1.17v7.55h1.29v-5.82c.21-.27.71-.79,1.56-.79ZM150.02,153.32c-.26-.25-.76-.8-1.93-.8-1.23,0-2.19.83-2.19,1.95,0,1.04.57,1.65,1.52,2.25l.47.3c.73.46,1.1.71,1.1,1.43,0,.49-.41.87-1.17.87-.82,0-1.29-.49-1.53-.74l-.62,1.01c.3.31.92.87,2.14.87,1.54,0,2.42-.93,2.42-2.12,0-1.12-.63-1.73-1.67-2.35l-.47-.28c-.68-.41-1-.72-1-1.29,0-.44.36-.8,1.05-.8s1.15.44,1.33.63l.55-.91ZM144.95,160.12l-.17-1.02c-.12.08-.41.22-.79.22-.64,0-.9-.31-.9-1.38v-4.19h1.66l.16-1.04h-1.81v-2.11h-1.14l-.14,2.11-.92.19v.85h.92v4.36c0,1.67.66,2.34,1.95,2.34.68,0,1.08-.25,1.19-.33ZM138.32,156.96v1.67c-.16.24-.53.74-1.27.74-.63,0-1.01-.39-1.01-1.16,0-.83.64-1.18,1.86-1.23l.41-.02ZM138.32,156.01h-.4c-1.72,0-3.16.58-3.16,2.33,0,1.23.87,2.11,2.02,2.11.96,0,1.42-.65,1.59-1.02h.03c.02.38.03.61.05.83h1.21c-.02-.2-.09-.93-.09-1.57v-3.45c0-1.9-.82-2.72-2.37-2.72-1.22,0-1.95.58-2.28.91l.54.85c.28-.25.79-.68,1.55-.68.82,0,1.29.41,1.29,1.68v.72ZM132.02,156.96v1.67c-.16.24-.53.74-1.27.74-.63,0-1.01-.39-1.01-1.16,0-.83.64-1.18,1.86-1.23l.41-.02ZM132.02,156.01h-.4c-1.72,0-3.16.58-3.16,2.33,0,1.23.87,2.11,2.02,2.11.96,0,1.42-.65,1.59-1.02h.03c.02.38.03.61.05.83h1.21c-.02-.2-.09-.93-.09-1.57v-3.45c0-1.9-.82-2.72-2.37-2.72-1.22,0-1.95.58-2.28.91l.54.85c.28-.25.79-.68,1.55-.68.82,0,1.29.41,1.29,1.68v.72ZM127.66,160.12l-.17-1.02c-.12.08-.41.22-.79.22-.64,0-.9-.31-.9-1.38v-4.19h1.66l.16-1.04h-1.81v-2.11h-1.14l-.14,2.11-.92.19v.85h.92v4.36c0,1.67.67,2.34,1.96,2.34.68,0,1.07-.25,1.18-.33ZM122.47,150.03c-.24-.19-.93-.82-2.38-.82-1.71,0-2.8,1.07-2.8,2.47,0,1.5.69,2.22,1.9,3.23l.88.74c.92.77,1.36,1.27,1.36,2.22,0,.74-.6,1.35-1.67,1.35s-1.85-.69-2.12-.94l-.55,1.2c.31.28,1.14.98,2.7.98,1.95,0,3.03-1.12,3.03-2.77,0-1.42-.8-2.27-1.83-3.12l-.88-.72c-1-.8-1.45-1.34-1.45-2.19,0-.68.49-1.26,1.43-1.26,1.01,0,1.64.5,1.81.68l.57-1.04Z"/>
    </g>
  </g>
</svg>