<svg width="31" height="30" viewBox="0 0 31 30" fill="none" xmlns="http://www.w3.org/2000/svg">
<g clip-path="url(#clip0_2157_158605)">
<path d="M26.3989 22.0992L23.3268 20.2874C23.166 20.1926 22.9627 20.2457 22.8626 20.4033C22.004 21.7544 20.8334 22.8861 19.4601 23.6895C16.3069 25.5335 12.3962 25.5275 9.25362 23.6747C6.9377 22.3091 5.29212 20.1233 4.62019 17.5199C3.79363 14.3182 4.56154 10.956 6.79237 8.36311C7.70411 7.30345 8.84363 6.44896 10.1165 5.87108C13.1106 4.51168 16.4095 4.64805 19.1873 6.16692C19.3513 6.25657 19.5557 6.20459 19.6506 6.04363L21.4618 2.97192C21.5598 2.80565 21.5034 2.58774 21.3349 2.4937C18.109 0.694235 14.378 0.212242 10.788 1.1386C6.50374 2.24458 3.01431 5.20398 1.20628 9.34905C0.18838 11.6827 -0.176913 14.2695 0.155012 16.7937C0.74475 21.2794 3.28038 25.0902 7.09312 27.3389C9.33459 28.6606 11.8504 29.3217 14.3672 29.3217C16.8695 29.3217 19.3726 28.668 21.6076 27.3607C23.6008 26.1952 25.2927 24.5462 26.5193 22.5785C26.6214 22.4148 26.565 22.1972 26.3989 22.0992Z" fill="#082834"/>
<path d="M27.6003 19.0674C29.2274 19.0674 30.5465 17.7484 30.5465 16.1212C30.5465 14.4941 29.2274 13.175 27.6003 13.175C25.9731 13.175 24.6541 14.4941 24.6541 16.1212C24.6541 17.7484 25.9731 19.0674 27.6003 19.0674Z" fill="#0C5E6E"/>
</g>
<defs>
<clipPath id="clip0_2157_158605">
<rect width="30.5113" height="28.6434" fill="white" transform="translate(0.0358887 0.678324)"/>
</clipPath>
</defs>
</svg>
