<?xml version="1.0" encoding="UTF-8" standalone="no"?>
<svg
   width="150"
   height="165"
   viewBox="0 0 150 165"
   fill="none"
   version="1.1"
   id="svg10"
   sodipodi:docname="preserve-eu-logo.svg"
   inkscape:version="1.4.2 (f4327f4, 2025-05-13)"
   xmlns:inkscape="http://www.inkscape.org/namespaces/inkscape"
   xmlns:sodipodi="http://sodipodi.sourceforge.net/DTD/sodipodi-0.dtd"
   xmlns="http://www.w3.org/2000/svg"
   xmlns:svg="http://www.w3.org/2000/svg">
  <sodipodi:namedview
     id="namedview10"
     pagecolor="#ffffff"
     bordercolor="#000000"
     borderopacity="0.25"
     inkscape:showpageshadow="2"
     inkscape:pageopacity="0.0"
     inkscape:pagecheckerboard="0"
     inkscape:deskcolor="#d1d1d1"
     inkscape:zoom="4.3440952"
     inkscape:cx="58.239976"
     inkscape:cy="32.342754"
     inkscape:window-width="2880"
     inkscape:window-height="1694"
     inkscape:window-x="-11"
     inkscape:window-y="-11"
     inkscape:window-maximized="1"
     inkscape:current-layer="svg10" />
  <g
     clip-path="url(#clip0_1_146)"
     id="g10"
     transform="translate(25,25.003)">
    <path
       d="m 100,27.4081 v 60.1777 c 0,2.5749 -1.346,4.8354 -3.3734,6.1158 l -1.6567,0.7732 c 0,0 -0.0019,9e-4 -0.0037,0.0018 l -42.7998,19.9564 -0.5738,0.268 c -0.4951,0.189 -1.0324,0.293 -1.5931,0.293 -2.4495,0 -4.4385,-1.97 -4.4685,-4.412 v -3.664 h 0.0047 c 0.9987,0 1.9497,-0.202 2.8155,-0.568 0.0028,-0.002 0.0056,-0.003 0.0084,-0.004 h 10e-4 c 0.1497,-0.064 0.2967,-0.133 0.4418,-0.206 0.0028,-0.002 0.0056,-0.003 0.0084,-0.004 l 0.3416,-0.16 1.2889,-0.601 5.6647,-2.641 29.5815,-13.7948 1.7878,-0.833 0.9323,-0.4353 h 9e-4 c 0.0075,-0.0028 0.015,-0.0065 0.0234,-0.0103 0.0403,-0.0177 0.0805,-0.0365 0.1198,-0.0561 0.0028,0 0.0056,-0.0028 0.0084,-0.0038 0.0019,0 0.0047,-0.0018 0.0075,-0.0037 0.0019,0 0.0028,-0.0019 0.0047,-0.0028 1.4752,-0.7301 2.4898,-2.2502 2.4898,-4.007 V 30.3181 c 0,-1.0735 -0.6131,-2.0049 -1.5079,-2.4607 -0.0047,-0.0038 -0.0103,-0.0066 -0.015,-0.0075 l -0.1619,-0.0758 c 0,0 -0.0075,-0.0028 -0.0103,-0.0047 L 86.8332,26.5882 86.559,26.4599 c -0.1816,-0.0655 -0.3763,-0.1011 -0.5794,-0.1011 -0.8958,0 -1.6259,0.6927 -1.6961,1.5707 v 4.6566 c 0,0.0459 -0.0018,0.0917 -0.0056,0.1376 -0.0702,0.878 -0.804,1.5687 -1.7016,1.5687 -0.22,0 -0.4315,-0.0421 -0.6244,-0.1179 l -0.0074,-0.0038 c -0.0628,-0.0243 -0.1227,-0.0524 -0.1816,-0.0842 l -0.0066,-0.0037 -3.2517,-1.5164 c -0.5597,-0.2695 -0.95,-0.8349 -0.9659,-1.4948 -0.001,-0.0149 -0.001,-0.029 -0.001,-0.044 0,-0.0149 0,-0.029 0.001,-0.044 v -7.6434 c 0,-0.6645 -0.38,-1.2411 -0.9351,-1.5229 L 76.598,21.8145 76.496,21.7668 76.4885,21.764 h -0.001 L 71.3601,19.3725 H 71.3573 L 71.1579,19.2789 71.1542,19.277 c -0.1919,-0.0749 -0.4006,-0.116 -0.6187,-0.116 -0.9005,0 -1.638,0.6973 -1.7017,1.5809 l 0.0047,4.548 c -9e-4,0.0328 -9e-4,0.0674 -0.0019,0.1011 -9e-4,0.0337 -9e-4,0.0674 -0.0028,0.1002 -0.0515,0.8957 -0.7946,1.6071 -1.7044,1.6071 -0.1872,0 -0.3679,-0.03 -0.5364,-0.0871 h -0.0028 c -0.1254,-0.0411 -0.2433,-0.0973 -0.3529,-0.1647 h -0.0018 l -6.5596,-3.0589 h -9e-4 C 59.6423,23.7727 59.6095,23.7577 59.5786,23.7418 59.017,23.4619 58.6314,22.8825 58.6314,22.2133 v -7.6884 c 0,-0.6758 -0.3932,-1.2608 -0.9632,-1.5369 L 57.5887,12.9515 56.107,12.2598 48.7902,8.84806 C 48.6536,8.77879 48.5141,8.71421 48.3727,8.65337 48.3653,8.65056 48.3578,8.64775 48.3512,8.64401 47.4854,8.27803 46.5344,8.07585 45.5357,8.07585 H 45.531 V 4.41233 C 45.561,1.97029 47.55,0 49.9995,0 c 0.5607,0 1.098,0.103897 1.5931,0.29297 l 43.3736,20.22423 1.6604,0.775 C 98.654,22.5727 100,24.8332 100,27.4081 Z"
       fill="#003776"
       id="path1" />
    <path
       d="m 45.532,97.8023 h -10e-4 v 9.1157 h 10e-4 z"
       fill="#003776"
       id="path2" />
    <path
       d="M 48.7902,8.84806 48.3728,8.65337 c 0.1413,0.06084 0.2808,0.12542 0.4174,0.19469 z"
       fill="#003776"
       id="path3" />
    <path
       d="m 48.8024,106.14 c -0.1451,0.073 -0.292,0.142 -0.4418,0.206 z"
       fill="#003776"
       id="path4" />
    <path
       d="M 48.5038,25.376 C 48.3999,25.3676 48.2951,25.3592 48.1902,25.3517 47.2973,25.2862 46.4109,25.2544 45.531,25.2544 V 8.07586 c -1.0605,9.4e-4 -2.0676,0.22932 -2.9746,0.64023 -0.0533,0.02433 -0.1067,0.04867 -0.1591,0.07394 l -7.4422,3.46977 -1.4817,0.6917 -0.0795,0.0365 c -0.5701,0.2761 -0.9632,0.8611 -0.9632,1.5369 v 7.6884 c 0,0.6692 -0.3856,1.2486 -0.9472,1.5285 -0.0309,0.0159 -0.0637,0.0309 -0.0964,0.0449 h -0.001 l -6.5595,3.0589 h -0.0019 c -0.1095,0.0683 -0.2274,0.1245 -0.3528,0.1647 h -0.0028 c -0.1685,0.058 -0.3492,0.088 -0.5364,0.088 -0.9098,0 -1.653,-0.7114 -1.7044,-1.6071 -0.0019,-0.0328 -0.0019,-0.0665 -0.0029,-0.1002 -9e-4,-0.0337 -9e-4,-0.0683 -9e-4,-0.1011 l 0.0038,-4.548 C 22.1646,19.8583 21.427,19.161 20.5266,19.161 c -0.2181,0 -0.4268,0.0412 -0.6187,0.116 l -0.0037,0.0019 -0.1994,0.0927 H 19.702 l -5.1275,2.3924 h -9e-4 l -0.0075,0.0028 -0.102,0.0477 -0.0056,0.0029 c -0.5551,0.2817 -0.9351,0.8583 -0.9351,1.5228 v 7.6435 c 9e-4,0.0149 9e-4,0.029 9e-4,0.0439 0,0.015 0,0.0291 -9e-4,0.044 -0.0159,0.6599 -0.4062,1.2253 -0.966,1.4948 l -3.25164,1.5164 -0.00655,0.0037 c -0.05897,0.0318 -0.11887,0.0599 -0.18158,0.0843 l -0.00749,0.0037 c -0.19282,0.0758 -0.40435,0.1179 -0.62432,0.1179 -0.89763,0 -1.63145,-0.6907 -1.70165,-1.5687 C 6.78042,32.6778 6.77855,32.632 6.77855,32.5861 v -4.6566 c -0.06926,-0.878 -0.80028,-1.5706 -1.69604,-1.5706 -0.20311,0 -0.3978,0.0355 -0.57939,0.101 l -0.27425,0.1283 -2.53376,1.1812 c 0,0 -0.00656,0.0028 -0.0103,0.0047 l -0.16193,0.0758 c 0,0 -0.0103,0.0038 -0.01498,0.0075 C 0.613083,28.3132 0,29.2446 0,30.3182 v 53.269 c 0,1.7568 1.01463,3.2769 2.48977,4.007 0.00188,0 0.00281,0.0019 0.00468,0.0028 0.00281,0.0019 0.00562,0.0028 0.00749,0.0037 0.00281,10e-4 0.00562,0.0029 0.00843,0.0038 0.03931,0.0196 0.07956,0.0384 0.1198,0.0562 0.00843,0.0037 0.01592,0.0074 0.0234,0.0102 h 9.4e-4 l 0.93226,0.4353 1.78777,0.833 29.58156,13.7948 5.6647,2.641 1.2888,0.601 0.4905,0.229 c 0.0534,0.025 0.1058,0.05 0.1591,0.074 0.9061,0.41 1.9113,0.638 2.9709,0.639 V 97.8023 97.324 c 1.0062,0 2.0031,-0.0412 2.9877,-0.1217 2.0181,-0.1657 3.5681,-1.8599 3.5681,-3.8844 V 29.2614 c 0,-2.0311 -1.5594,-3.7197 -3.583,-3.8854 z m -34.138,34.943 h 3.2189 l 0.9931,-3.0617 0.995,3.0617 h 3.2171 l -2.604,1.8898 0.995,3.0589 -2.6031,-1.8898 -2.6039,1.8898 0.9949,-3.0589 z m 10.4973,18.5638 -2.603,-1.8935 -2.604,1.8935 0.995,-3.0617 -2.603,-1.8907 h 3.217 l 0.995,-3.0617 0.995,3.0617 h 3.217 l -2.604,1.8907 z m -0.9922,-30.2863 0.9922,3.0588 -2.603,-1.8898 -2.6012,1.8898 0.9922,-3.0588 -2.603,-1.8926 h 3.2189 l 0.9931,-3.0589 0.995,3.0589 h 3.217 z m 9.6737,36.901 0.9949,3.0617 -2.603,-1.8926 -2.604,1.8926 0.995,-3.0617 -2.603,-1.8898 h 3.217 l 0.995,-3.0616 0.9922,3.0616 h 3.2198 z m 0,-46.5775 0.9949,3.0589 -2.603,-1.8898 -2.604,1.8898 0.995,-3.0589 -2.603,-1.8926 h 3.217 l 0.995,-3.0588 0.995,3.0588 h 3.217 z m 13.5814,50.2579 0.9987,3.0757 -2.5927,-1.8832 h -10e-4 l -2.5974,1.8832 1.0044,-3.0757 -2.618,-1.8954 h 3.2329 l 0.9781,-3.0102 v -0.0028 l 0.98,3.013 h 3.233 z m 0,-53.9438 0.9987,3.0757 -2.5927,-1.8823 h -10e-4 l -2.5974,1.8823 1.0044,-3.0757 -2.618,-1.902 h 3.2329 l 0.9781,-3.0037 v -0.0028 l 0.98,3.0065 h 3.233 z"
       fill="#003776"
       id="path5" />
    <path
       d="m 60.7346,85.4975 0.9959,3.0617 -2.604,-1.8926 -2.604,1.8926 0.996,-3.0617 -2.604,-1.8898 h 3.2199 l 0.9921,-3.0616 0.995,3.0616 h 3.217 z"
       fill="#003776"
       id="path6" />
    <path
       d="m 70.4119,75.8211 0.995,3.0617 -2.604,-1.8936 -2.603,1.8936 0.995,-3.0617 -2.604,-1.8907 h 3.2171 l 0.9949,-3.0617 0.995,3.0617 h 3.2171 z"
       fill="#003776"
       id="path7" />
    <path
       d="m 74.0942,62.2088 0.9949,3.0588 -2.6039,-1.8898 -2.6031,1.8898 0.995,-3.0588 -2.604,-1.8898 h 3.2171 l 0.995,-3.0617 0.9921,3.0617 h 3.2199 z"
       fill="#003776"
       id="path8" />
    <path
       d="m 70.4119,48.5965 0.9922,3.0588 -2.6012,-1.8898 -2.603,1.8898 0.9922,-3.0588 -2.6012,-1.8926 h 3.2171 l 0.9949,-3.0589 0.9922,3.0589 h 3.2199 z"
       fill="#003776"
       id="path9" />
    <path
       d="m 60.7346,38.92 0.9959,3.0589 -2.604,-1.8898 -2.604,1.8898 0.996,-3.0589 -2.604,-1.8926 h 3.217 l 0.995,-3.0588 0.995,3.0588 h 3.217 z"
       fill="#003776"
       id="path10" />
  </g>
  <defs
     id="defs10">
    <clipPath
       id="clip0_1_146">
      <rect
         width="100"
         height="114.994"
         fill="#ffffff"
         id="rect10"
         x="0"
         y="0" />
    </clipPath>
  </defs>
</svg>
