<svg width="158" height="24" viewBox="0 0 158 24" fill="none" xmlns="http://www.w3.org/2000/svg">
<circle cx="12" cy="12" r="12" fill="url(#paint0_linear_4305_1087)"/>
<path fill-rule="evenodd" clip-rule="evenodd" d="M12 18C15.3137 18 18 15.3137 18 12C18 8.68629 15.3137 6 12 6C8.68629 6 6 8.68629 6 12C6 15.3137 8.68629 18 12 18ZM12 20C16.4183 20 20 16.4183 20 12C20 7.58172 16.4183 4 12 4C7.58172 4 4 7.58172 4 12C4 16.4183 7.58172 20 12 20Z" fill="#0C0C0C"/>
<path d="M34.31 12.03C34.31 14.424 35.962 15.614 37.628 15.614C39.308 15.614 40.96 14.424 40.96 12.03C40.96 9.636 39.308 8.446 37.628 8.446C35.962 8.446 34.31 9.636 34.31 12.03ZM32.588 12.03C32.588 8.782 35.024 6.864 37.628 6.864C40.232 6.864 42.682 8.782 42.682 12.03C42.682 15.292 40.232 17.21 37.628 17.21C35.024 17.21 32.588 15.292 32.588 12.03ZM45.9256 19.66H44.3156V10.182H45.8836V11.106C46.2196 10.518 47.0036 10.028 48.0536 10.028C50.0696 10.028 51.2036 11.568 51.2036 13.584C51.2036 15.628 49.9576 17.168 47.9976 17.168C47.0176 17.168 46.2756 16.748 45.9256 16.23V19.66ZM49.5796 13.584C49.5796 12.31 48.8376 11.47 47.7456 11.47C46.6816 11.47 45.9116 12.31 45.9116 13.584C45.9116 14.886 46.6816 15.726 47.7456 15.726C48.8236 15.726 49.5796 14.886 49.5796 13.584ZM53.8988 12.842H57.2448C57.2168 12.044 56.6848 11.33 55.5648 11.33C54.5428 11.33 53.9548 12.114 53.8988 12.842ZM57.4268 14.62L58.7988 15.054C58.4348 16.244 57.3568 17.21 55.7188 17.21C53.8708 17.21 52.2328 15.866 52.2328 13.556C52.2328 11.4 53.8288 9.972 55.5508 9.972C57.6508 9.972 58.8828 11.358 58.8828 13.514C58.8828 13.78 58.8548 14.004 58.8408 14.032H53.8568C53.8988 15.068 54.7108 15.81 55.7188 15.81C56.6988 15.81 57.2028 15.292 57.4268 14.62ZM62.0588 13.066V17H60.4348V10.182H62.0168V11.092C62.4648 10.308 63.2768 9.986 64.0328 9.986C65.6988 9.986 66.4968 11.19 66.4968 12.688V17H64.8728V12.968C64.8728 12.128 64.4948 11.456 63.4728 11.456C62.5488 11.456 62.0588 12.17 62.0588 13.066ZM78.6105 9.398L77.0985 9.874C77.0005 9.258 76.4825 8.348 75.1525 8.348C74.1445 8.348 73.4445 9.02 73.4445 9.776C73.4445 10.406 73.8365 10.882 74.6065 11.05L76.0345 11.344C77.7845 11.694 78.7225 12.8 78.7225 14.2C78.7225 15.74 77.4765 17.21 75.2085 17.21C72.6885 17.21 71.5265 15.586 71.3725 14.158L72.9405 13.71C73.0385 14.746 73.7805 15.698 75.2085 15.698C76.3985 15.698 77.0145 15.096 77.0145 14.326C77.0145 13.682 76.5385 13.164 75.6845 12.982L74.2845 12.688C72.7725 12.38 71.7645 11.386 71.7645 9.902C71.7645 8.236 73.2905 6.864 75.1385 6.864C77.4765 6.864 78.3865 8.292 78.6105 9.398ZM83.2276 15.754C84.2356 15.754 85.1316 15.012 85.1316 13.584C85.1316 12.17 84.2356 11.442 83.2276 11.442C82.2336 11.442 81.3236 12.17 81.3236 13.584C81.3236 14.998 82.2336 15.754 83.2276 15.754ZM83.2276 9.972C85.2716 9.972 86.7696 11.498 86.7696 13.584C86.7696 15.684 85.2716 17.21 83.2276 17.21C81.1976 17.21 79.6996 15.684 79.6996 13.584C79.6996 11.498 81.1976 9.972 83.2276 9.972ZM92.736 16.244C92.4 16.86 91.602 17.196 90.804 17.196C89.18 17.196 88.228 15.992 88.228 14.48V10.182H89.852V14.186C89.852 15.026 90.244 15.74 91.224 15.74C92.162 15.74 92.652 15.11 92.652 14.214V10.182H94.276V15.754C94.276 16.314 94.318 16.748 94.346 17H92.792C92.764 16.846 92.736 16.524 92.736 16.244ZM100.368 10.14V11.792C100.186 11.764 100.004 11.75 99.8361 11.75C98.5761 11.75 98.0021 12.478 98.0021 13.752V17H96.3781V10.182H97.9601V11.274C98.2821 10.532 99.0381 10.098 99.9341 10.098C100.13 10.098 100.298 10.126 100.368 10.14ZM104.623 11.47C103.629 11.47 102.747 12.212 102.747 13.584C102.747 14.956 103.629 15.726 104.651 15.726C105.715 15.726 106.205 14.984 106.359 14.466L107.787 14.984C107.465 16.048 106.443 17.21 104.651 17.21C102.649 17.21 101.123 15.656 101.123 13.584C101.123 11.484 102.649 9.972 104.609 9.972C106.443 9.972 107.451 11.12 107.731 12.212L106.275 12.744C106.121 12.142 105.659 11.47 104.623 11.47ZM110.295 12.842H113.641C113.613 12.044 113.081 11.33 111.961 11.33C110.939 11.33 110.351 12.114 110.295 12.842ZM113.823 14.62L115.195 15.054C114.831 16.244 113.753 17.21 112.115 17.21C110.267 17.21 108.629 15.866 108.629 13.556C108.629 11.4 110.225 9.972 111.947 9.972C114.047 9.972 115.279 11.358 115.279 13.514C115.279 13.78 115.251 14.004 115.237 14.032H110.253C110.295 15.068 111.107 15.81 112.115 15.81C113.095 15.81 113.599 15.292 113.823 14.62ZM124.854 17.21C122.18 17.21 119.842 15.278 119.842 12.044C119.842 8.81 122.264 6.864 124.84 6.864C127.36 6.864 128.858 8.348 129.306 10.084L127.724 10.616C127.43 9.412 126.506 8.446 124.84 8.446C123.202 8.446 121.564 9.636 121.564 12.044C121.564 14.368 123.16 15.6 124.854 15.6C126.52 15.6 127.472 14.536 127.808 13.416L129.348 13.92C128.9 15.6 127.388 17.21 124.854 17.21ZM132.401 17H130.777V6.864H132.401V17ZM137.491 15.754C138.499 15.754 139.395 15.012 139.395 13.584C139.395 12.17 138.499 11.442 137.491 11.442C136.497 11.442 135.587 12.17 135.587 13.584C135.587 14.998 136.497 15.754 137.491 15.754ZM137.491 9.972C139.535 9.972 141.033 11.498 141.033 13.584C141.033 15.684 139.535 17.21 137.491 17.21C135.461 17.21 133.963 15.684 133.963 13.584C133.963 11.498 135.461 9.972 137.491 9.972ZM147 16.244C146.664 16.86 145.866 17.196 145.068 17.196C143.444 17.196 142.492 15.992 142.492 14.48V10.182H144.116V14.186C144.116 15.026 144.508 15.74 145.488 15.74C146.426 15.74 146.916 15.11 146.916 14.214V10.182H148.54V15.754C148.54 16.314 148.582 16.748 148.61 17H147.056C147.028 16.846 147 16.524 147 16.244ZM151.693 13.57C151.693 14.872 152.421 15.74 153.527 15.74C154.591 15.74 155.333 14.858 155.333 13.556C155.333 12.254 154.605 11.442 153.541 11.442C152.477 11.442 151.693 12.268 151.693 13.57ZM156.901 6.864V15.754C156.901 16.37 156.957 16.888 156.971 17H155.417C155.389 16.846 155.347 16.398 155.347 16.118C155.025 16.692 154.311 17.168 153.345 17.168C151.385 17.168 150.069 15.628 150.069 13.57C150.069 11.61 151.399 10 153.317 10C154.507 10 155.109 10.546 155.319 10.98V6.864H156.901Z" fill="white"/>
<defs>
<linearGradient id="paint0_linear_4305_1087" x1="12" y1="0" x2="12" y2="24" gradientUnits="userSpaceOnUse">
<stop stop-color="#C183FF"/>
<stop offset="1" stop-color="#4DC9FF"/>
</linearGradient>
</defs>
</svg>
