<?xml version="1.0" encoding="UTF-8"?>
<svg id="Layer_1" xmlns="http://www.w3.org/2000/svg" xmlns:xlink="http://www.w3.org/1999/xlink" version="1.1" viewBox="0 0 193 87">
  <!-- Generator: Adobe Illustrator 29.2.1, SVG Export Plug-In . SVG Version: 2.1.0 Build 116)  -->
  <defs>
    <style>
      .st0 {
        fill: none;
      }

      .st1 {
        clip-path: url(#clippath);
      }
    </style>
    <clipPath id="clippath">
      <rect class="st0" width="193" height="87"/>
    </clipPath>
  </defs>
  <g class="st1">
    <g id="document-writing-tools-logo">
      <g id="Glyph">
        <path id="Path_1" d="M50,27.6l-6.1-6.1v4.7c0,.7.6,1.3,1.3,1.3h4.7Z"/>
        <rect id="Rectangle_1" x="21.8" y="40.5" width="10" height="6" rx="1" ry="1"/>
        <path id="Path_2" d="M24.1,19.7c-.7,0-1.3.6-1.3,1.3v11.9h29.1v-2.6h-6.6c-2.2,0-4-1.8-4-4v-6.6h-17.2Z"/>
        <path id="Path_3" d="M54.5,35.6H20.1c-2.2,0-4,1.8-4,4h0v25.1h14.5v4c0,.7-.6,1.3-1.3,1.3h-4.2c-.7-2.1-3-3.1-5.1-2.4-2.1.7-3.1,3-2.4,5.1.7,2.1,3,3.1,5.1,2.4,1.1-.4,2-1.3,2.4-2.4h4.2c2.2,0,4-1.8,4-4h0v-4h2.6v8.2c-2.1.7-3.1,3-2.4,5.1.7,2.1,3,3.1,5.1,2.4,2.1-.7,3.1-3,2.4-5.1-.4-1.1-1.3-2-2.4-2.4v-8.2h2.6v4c0,2.2,1.8,4,4,4h4.2c.7,2.1,3,3.1,5.1,2.4,2.1-.7,3.1-3,2.4-5.1s-3-3.1-5.1-2.4c-1.1.4-2,1.3-2.4,2.4h-4.2c-.7,0-1.3-.6-1.3-1.3v-4h14.5v-25.1c0-2.2-1.8-4-4-4,0,0,0,0,0,0ZM34.6,44.8c0,2.2-1.8,4-4,4h-7.9c-2.2,0-4-1.8-4-4h0v-2.6c0-2.2,1.8-4,4-4h7.9c2.2,0,4,1.8,4,4h0v2.6Z"/>
        <path id="Path_4" d="M59.7,11.8h-22.9c-1.1,0-2.1-.4-2.8-1.2l-2.2-2.2c-1.2-1.2-2.9-1.9-4.7-1.9h-12.3c-3.6,0-6.6,3-6.6,6.6h0v44.9c0,3.1,2.2,5.8,5.3,6.5v-25c0-3.6,3-6.6,6.6-6.6v-11.9c0-2.2,1.8-4,4-4h18.5c.2,0,.4,0,.5.1.2,0,.3.2.4.3l10.6,10.6c.1.1.2.3.3.4,0,.2.1.3.1.5v4c3.6,0,6.6,3,6.6,6.6v25c3.1-.6,5.3-3.3,5.3-6.5V18.4c0-3.6-3-6.6-6.6-6.6h0Z"/>
      </g>
      <path id="Path_5" d="M90.3,23.9v-9h2.2c.7,0,1.3,0,1.9.3.5.2.9.5,1.3.9.3.4.6.9.7,1.5.1.6.2,1.3.2,1.9,0,.7,0,1.4-.3,2-.2.5-.4.9-.8,1.3-.3.3-.7.6-1.1.7-.4.1-.9.2-1.3.2h-2.8ZM87.2,12.2v14.3h6.2c1,0,2-.2,2.8-.6.8-.3,1.5-.9,2-1.5.6-.7,1-1.4,1.2-2.3.3-.9.4-1.9.4-2.9,0-1.1-.1-2.1-.5-3.1-.3-.8-.8-1.6-1.4-2.2-.6-.6-1.3-1-2.1-1.3-.8-.3-1.7-.4-2.6-.4h-6.2ZM104.2,21.3c0-.4,0-.8.1-1.2,0-.4.2-.7.4-1.1.2-.3.5-.6.8-.8.4-.2.8-.3,1.2-.3.4,0,.8,0,1.2.3.3.2.6.4.8.8.2.3.3.7.4,1.1,0,.4.1.8.1,1.2,0,.4,0,.8-.1,1.2,0,.4-.2.7-.4,1.1-.2.3-.5.6-.8.8-.4.2-.8.3-1.2.3-.4,0-.8,0-1.2-.3-.3-.2-.6-.4-.8-.8-.2-.3-.3-.7-.4-1.1,0-.4-.1-.8-.1-1.2ZM101.4,21.3c0,.8.1,1.5.4,2.2.2.6.6,1.2,1.1,1.7.5.5,1,.9,1.7,1.1.7.3,1.4.4,2.2.4.8,0,1.5-.1,2.2-.4.6-.2,1.2-.6,1.7-1.1.5-.5.8-1.1,1.1-1.7.3-.7.4-1.5.4-2.2,0-.8-.1-1.5-.4-2.2-.2-.6-.6-1.2-1.1-1.7-.5-.5-1.1-.9-1.7-1.1-.7-.3-1.5-.4-2.2-.4-.8,0-1.5.1-2.2.4-.6.2-1.2.6-1.7,1.1-.5.5-.8,1.1-1.1,1.7-.3.7-.4,1.5-.4,2.2ZM120.9,19.8h2.8c0-.6-.2-1.2-.5-1.7-.3-.5-.6-.9-1.1-1.2-.5-.3-1-.6-1.5-.7-.6-.2-1.2-.2-1.8-.2-.8,0-1.5.1-2.2.4-.6.3-1.2.7-1.7,1.2-.5.5-.8,1.1-1,1.8-.2.7-.4,1.5-.4,2.2,0,.7.1,1.5.4,2.1.2.6.6,1.2,1.1,1.7.5.5,1,.8,1.7,1.1.7.3,1.4.4,2.1.4,1.2,0,2.4-.3,3.4-1.1.9-.8,1.5-1.9,1.6-3.1h-2.7c0,.6-.3,1.1-.7,1.5-.4.4-1,.6-1.6.6-.4,0-.8,0-1.1-.3-.3-.2-.6-.5-.7-.8-.2-.3-.3-.7-.4-1,0-.4-.1-.8-.1-1.1,0-.4,0-.8.1-1.2,0-.4.2-.7.4-1.1.2-.3.4-.6.8-.8.3-.2.7-.3,1.1-.3,1-.1,2,.6,2.1,1.7,0,0,0,0,0,0ZM135.1,26.5v-10.3h-2.8v5.4c0,.8-.1,1.6-.5,2.3-.4.5-1,.7-1.7.7-.6,0-1.1-.2-1.4-.6-.3-.6-.4-1.2-.4-1.9v-5.8h-2.8v6.4c0,.6,0,1.2.2,1.8,0,.5.3.9.6,1.3.3.4.7.7,1.2.9.6.2,1.2.3,1.9.3.6,0,1.2-.1,1.8-.4.6-.3,1.1-.7,1.4-1.3h0v1.4h2.7ZM137.3,16.2v10.3h2.8v-6c0-.4,0-.8.2-1.2.1-.3.3-.5.5-.7.2-.2.4-.3.6-.3.2,0,.4,0,.5,0,.4,0,.7,0,1,.2.2.1.4.4.5.6.1.3.2.5.2.8,0,.3,0,.6,0,.9v5.8h2.8v-5.8c0-.3,0-.6,0-.9,0-.3.1-.6.3-.8.1-.2.3-.5.6-.6.3-.2.6-.2,1-.2.3,0,.7,0,1,.2.2.1.4.3.5.5.1.2.2.5.2.8,0,.3,0,.6,0,1v5.9h2.8v-6.9c0-.6,0-1.2-.3-1.7-.2-.4-.4-.8-.8-1.1-.3-.3-.8-.5-1.2-.6-.5-.1-1-.2-1.5-.2-.7,0-1.3.2-1.9.5-.5.3-.9.7-1.2,1.2-.2-.6-.7-1.1-1.2-1.3-.6-.3-1.2-.4-1.8-.4-.6,0-1.3.1-1.8.4-.5.3-1,.7-1.3,1.2h0v-1.4h-2.7ZM162.3,20.2h-4.6c0-.2,0-.5.1-.7,0-.3.2-.5.4-.7.2-.2.4-.4.7-.6.4-.2.7-.2,1.1-.2.6,0,1.1.2,1.6.6.4.5.6,1,.7,1.6ZM157.7,22h7.5c0-.8,0-1.5-.2-2.3-.2-.7-.5-1.4-.9-2-.4-.6-1-1-1.6-1.4-.7-.4-1.5-.5-2.3-.5-.7,0-1.5.1-2.2.4-.6.3-1.2.7-1.7,1.1-.5.5-.8,1.1-1.1,1.7-.3.7-.4,1.4-.4,2.2,0,.7.1,1.5.4,2.2.2.6.6,1.2,1.1,1.7.5.5,1,.9,1.7,1.1.7.3,1.4.4,2.2.4,1.1,0,2.1-.2,3-.8.9-.6,1.6-1.6,1.8-2.7h-2.5c-.1.4-.4.7-.8.9-.4.3-1,.4-1.5.4-.7,0-1.3-.2-1.8-.6-.5-.6-.7-1.3-.7-2ZM166.8,16.2v10.3h2.8v-5.4c0-.8.1-1.6.5-2.3.4-.5,1-.7,1.7-.7.6,0,1.1.2,1.4.6.3.6.4,1.2.4,1.9v5.8h2.8v-6.4c0-.6,0-1.2-.2-1.8,0-.5-.3-.9-.6-1.3-.3-.4-.7-.7-1.2-.9-.6-.2-1.2-.3-1.9-.3-.6,0-1.2.1-1.8.4-.6.3-1.1.7-1.4,1.3h0v-1.4h-2.7ZM182.3,16.2v-3.1h-2.8v3.1h-1.7v1.9h1.7v6.1c0,.4,0,.9.3,1.3.2.3.4.6.7.7.3.2.7.3,1,.3.4,0,.8,0,1.2,0,.3,0,.6,0,.9,0,.3,0,.5,0,.8,0v-2.2c-.1,0-.3,0-.4,0-.1,0-.3,0-.5,0-.3,0-.7,0-1-.2-.2-.3-.3-.6-.2-1v-5.1h2.1v-1.9h-2.1ZM100.8,51.5l3.8-14.3h-3.1l-2.3,9.8h0l-2.4-9.8h-2.9l-2.5,9.7h0l-2.3-9.7h-3.1l3.8,14.3h3.2l2.4-9.7h0l2.4,9.7h3.1ZM105.4,41.2v10.3h2.8v-4.7c0-.4,0-.9.1-1.3,0-.4.2-.7.5-1,.2-.3.5-.5.9-.7.4-.2.9-.3,1.3-.3.2,0,.4,0,.5,0,.2,0,.3,0,.5,0v-2.6c-.2,0-.4,0-.6-.1-.4,0-.7,0-1,.2-.3.1-.6.3-.9.4-.3.2-.6.4-.8.7-.2.3-.4.6-.5.9h0v-1.9h-2.7ZM116.1,39.6v-2.3h-2.8v2.3h2.8ZM113.2,41.2v10.3h2.8v-10.3h-2.8ZM121.9,41.2v-3.1h-2.8v3.1h-1.7v1.9h1.7v6.1c0,.4,0,.9.3,1.3.2.3.4.6.7.7.3.2.7.3,1,.4.4,0,.8,0,1.2,0,.3,0,.6,0,.9,0,.3,0,.5,0,.8,0v-2.2c-.1,0-.3,0-.4,0-.1,0-.3,0-.5,0-.3,0-.7,0-1-.2-.2-.3-.3-.6-.2-1v-5.1h2.1v-1.9h-2.1ZM128.3,39.6v-2.3h-2.8v2.3h2.8ZM125.4,41.2v10.3h2.8v-10.3h-2.8ZM130.5,41.2v10.3h2.8v-5.4c0-.8.1-1.6.5-2.3.4-.5,1-.7,1.7-.7.6,0,1.1.2,1.4.6.3.6.4,1.2.4,1.9v5.8h2.8v-6.4c0-.6,0-1.2-.2-1.8,0-.5-.3-.9-.6-1.3-.3-.4-.7-.7-1.2-.9-.6-.2-1.2-.3-1.9-.3-.6,0-1.2.1-1.8.4-.6.3-1.1.7-1.4,1.3h0v-1.4h-2.7ZM147.2,49.1c-.4,0-.8,0-1.1-.3-.3-.2-.5-.4-.7-.7-.2-.3-.3-.6-.4-1,0-.4-.1-.7-.1-1.1,0-.4,0-.7.1-1.1,0-.3.2-.7.4-.9.2-.3.4-.5.7-.6.3-.2.7-.2,1-.2.4,0,.8,0,1.2.3.3.2.6.4.7.7.2.3.3.7.4,1,0,.4.1.8.1,1.2,0,.4,0,.7-.2,1.1,0,.3-.2.6-.5.9-.2.3-.5.5-.8.6-.3.2-.7.2-1.1.2ZM152.3,50.8v-9.7h-2.7v1.4h0c-.3-.5-.7-1-1.3-1.3-.6-.3-1.2-.4-1.8-.4-.7,0-1.3.1-1.9.4-.5.3-1,.7-1.4,1.1-.4.5-.7,1-.8,1.6-.2.6-.3,1.3-.3,1.9,0,.7,0,1.4.2,2,.2.6.4,1.2.8,1.7.4.5.8.9,1.4,1.1.6.3,1.3.4,2,.4.6,0,1.2-.1,1.8-.4.6-.3,1-.7,1.3-1.2h0v1.4c0,.6-.1,1.3-.5,1.8-.4.5-1.1.8-1.8.7-.5,0-.9,0-1.3-.3-.4-.2-.7-.6-.8-1.1h-2.8c0,.5.2,1.1.5,1.5.3.4.7.8,1.1,1,.4.3.9.5,1.4.6.5.1,1,.2,1.5.2,1,0,1.9-.1,2.8-.5.6-.3,1.2-.7,1.6-1.2.4-.4.6-.9.7-1.5.1-.5.2-.9.2-1.4ZM90.3,64.9v11.6h3.1v-11.6h4.3v-2.6h-11.7v2.6h4.3ZM99.4,71.3c0-.4,0-.8.1-1.2,0-.4.2-.7.4-1.1.4-.7,1.2-1.1,2-1,.4,0,.8,0,1.2.3.3.2.6.4.8.8.2.3.3.7.4,1.1,0,.4.1.8.1,1.2,0,.4,0,.8-.1,1.2,0,.4-.2.7-.4,1.1-.2.3-.5.6-.8.8-.4.2-.8.3-1.2.3-.4,0-.8,0-1.2-.3-.3-.2-.6-.4-.8-.8-.2-.3-.3-.7-.4-1.1,0-.4-.1-.8-.1-1.2ZM96.5,71.3c0,.8.1,1.5.4,2.2.2.6.6,1.2,1.1,1.7.5.5,1,.9,1.7,1.1.7.3,1.4.4,2.2.4.8,0,1.5-.1,2.2-.4.6-.2,1.2-.6,1.7-1.1.5-.5.8-1.1,1.1-1.7.3-.7.4-1.5.4-2.2,0-.8-.1-1.5-.4-2.2-.5-1.3-1.5-2.3-2.8-2.8-.7-.3-1.5-.4-2.2-.4-.8,0-1.5.1-2.2.4-1.3.5-2.3,1.5-2.8,2.8-.3.7-.4,1.5-.4,2.2ZM111.6,71.3c0-.4,0-.8.1-1.2,0-.4.2-.7.4-1.1.4-.7,1.2-1.1,2-1,.4,0,.8,0,1.2.3.3.2.6.4.8.8.2.3.3.7.4,1.1,0,.4.1.8.1,1.2,0,.4,0,.8-.1,1.2,0,.4-.2.7-.4,1.1-.2.3-.5.6-.8.8-.4.2-.8.3-1.2.3-.4,0-.8,0-1.2-.3-.3-.2-.6-.4-.8-.8-.2-.3-.3-.7-.4-1.1,0-.4-.1-.8-.1-1.2ZM108.8,71.3c0,.8.1,1.5.4,2.2.2.6.6,1.2,1.1,1.7.5.5,1,.9,1.7,1.1.7.3,1.4.4,2.2.4.8,0,1.5-.1,2.2-.4.6-.2,1.2-.6,1.7-1.1.5-.5.8-1.1,1.1-1.7.3-.7.4-1.5.4-2.2,0-.8-.1-1.5-.4-2.2-.5-1.3-1.5-2.3-2.8-2.8-.7-.3-1.5-.4-2.2-.4-.8,0-1.5.1-2.2.4-1.3.5-2.3,1.5-2.8,2.8-.3.7-.4,1.5-.4,2.2ZM121.4,62.2v14.3h2.8v-14.3h-2.8ZM128.7,73.1h-2.7c0,.6.2,1.2.5,1.7.3.4.7.8,1.1,1.1.5.3,1,.5,1.5.6.6.1,1.2.2,1.8.2.6,0,1.2,0,1.7-.2.5-.1,1-.3,1.5-.6,1-.6,1.5-1.7,1.5-2.8,0-.4,0-.8-.3-1.2-.2-.3-.4-.6-.7-.8-.3-.2-.7-.4-1-.5-.4-.1-.8-.2-1.2-.3-.4,0-.8-.2-1.2-.3-.3,0-.7-.2-1-.3-.3,0-.5-.2-.7-.4-.2-.2-.3-.4-.3-.6,0-.2,0-.4.2-.5.1-.1.2-.2.4-.3.2,0,.3-.1.5-.1.2,0,.3,0,.5,0,.5,0,.9,0,1.3.3.4.2.6.7.6,1.1h2.7c0-.6-.2-1.1-.5-1.6-.3-.4-.6-.8-1-1-.4-.3-.9-.4-1.4-.5-.5-.1-1.1-.2-1.6-.2-.6,0-1.1,0-1.6.2-.5,0-1,.3-1.4.5-.4.2-.8.6-1,1-.3.5-.4,1.1-.4,1.6,0,.4,0,.8.3,1.2.2.3.4.6.7.8.3.2.7.4,1,.5.4.1.8.2,1.2.3.8.2,1.6.4,2.4.6.6.2.9.5.8,1,0,.2,0,.4-.2.6-.1.2-.3.3-.5.4-.2.1-.4.2-.6.2-.2,0-.4,0-.6,0-.3,0-.5,0-.8,0-.2,0-.5-.2-.7-.3-.2-.1-.4-.3-.5-.5-.1-.2-.2-.5-.2-.8Z"/>
    </g>
  </g>
</svg>