<?xml version="1.0" encoding="UTF-8"?>
<svg id="Layer_1" xmlns="http://www.w3.org/2000/svg" xmlns:xlink="http://www.w3.org/1999/xlink" version="1.1" viewBox="0 0 278 184">
  <!-- Generator: Adobe Illustrator 29.7.0, SVG Export Plug-In . SVG Version: 2.1.1 Build 138)  -->
  <defs>
    <linearGradient id="linear-gradient" x1="95.3" y1="1466.4" x2="219.7" y2="1322.3" gradientTransform="translate(0 -1308)" gradientUnits="userSpaceOnUse">
      <stop offset=".5" stop-color="#203257"/>
      <stop offset=".9" stop-color="#1544ff"/>
    </linearGradient>
    <linearGradient id="linear-gradient1" x1="139" y1="1324" x2="139" y2="1476" gradientTransform="translate(0 -1308)" gradientUnits="userSpaceOnUse">
      <stop offset="0" stop-color="#6382ff"/>
      <stop offset=".3" stop-color="#c8d3ff"/>
      <stop offset=".5" stop-color="#6382ff"/>
      <stop offset="1" stop-color="#c8d3ff"/>
    </linearGradient>
    <linearGradient id="linear-gradient2" x1="-3714.4" y1="-1369.8" x2="-3712.7" y2="-1262.8" gradientTransform="translate(-3573 -1221.7) rotate(-180)" gradientUnits="userSpaceOnUse">
      <stop offset=".3" stop-color="#6382ff" stop-opacity="0"/>
      <stop offset=".4" stop-color="#c8d3ff"/>
      <stop offset=".8" stop-color="#6382ff"/>
      <stop offset="1" stop-color="#c8d3ff" stop-opacity="0"/>
    </linearGradient>
    <linearGradient id="linear-gradient3" x1="158.8" y1="1353.5" x2="158.8" y2="1338" gradientTransform="translate(0 -1308)" gradientUnits="userSpaceOnUse">
      <stop offset="0" stop-color="#6382ff"/>
      <stop offset="1" stop-color="#c8d3ff"/>
    </linearGradient>
    <linearGradient id="linear-gradient4" x1="121.8" y1="1353.5" x2="121.8" y2="1338" gradientTransform="translate(0 -1308)" gradientUnits="userSpaceOnUse">
      <stop offset="0" stop-color="#6382ff"/>
      <stop offset="1" stop-color="#c8d3ff"/>
    </linearGradient>
    <linearGradient id="linear-gradient5" x1="140.1" y1="1350.5" x2="140.1" y2="1335" gradientTransform="translate(0 -1308)" gradientUnits="userSpaceOnUse">
      <stop offset="0" stop-color="#6382ff"/>
      <stop offset="1" stop-color="#c8d3ff"/>
    </linearGradient>
  </defs>
  <g>
    <path d="M211.3,117c2.7-7.8,4.2-16.2,4.2-25,0-42-34-76-76-76S63.5,50,63.5,92s0,9.5.7,13c.5,2.3,2.3,8.5,3.5,12h-8.2c-2.2,0-4,1.8-4,4v20c0,2.2,1.8,4,4,4h25.5c13.8,14.2,33.1,23,54.5,23s40.7-8.8,54.5-23h24.5c2.2,0,4-1.8,4-4v-20c0-2.2-1.8-4-4-4h-7.2Z" fill="url(#linear-gradient)" fill-rule="evenodd"/>
    <path d="M211.3,117l-.9-.3-.5,1.3h1.4v-1ZM67.7,116.9v1.1h1.4l-.4-1.4s-1,.3-1,.3ZM85,145l.7-.7-.3-.3h-.4s0,1,0,1ZM194,145v-1h-.4l-.3.3.7.7ZM214.5,92c0,8.6-1.5,16.9-4.2,24.7l1.9.7c2.8-7.9,4.3-16.5,4.3-25.3h-2s0,0,0,0ZM139.5,17c41.4,0,75,33.6,75,75h2c0-42.5-34.5-77-77-77v2ZM64.5,92c0-41.4,33.6-75,75-75v-2c-42.5,0-77,34.5-77,77h2ZM68.7,116.6c-2.7-7.7-4.2-15.9-4.2-24.6h-2c0,8.9,1.5,17.4,4.3,25.3l1.9-.7h0s0,0,0,0ZM59.5,118h8.2v-2h-8.2v2ZM56.5,121c0-1.7,1.3-3,3-3v-2c-2.8,0-5,2.2-5,5h2ZM56.5,141v-20h-2v20h2ZM59.5,144c-1.7,0-3-1.3-3-3h-2c0,2.8,2.2,5,5,5v-2ZM85,144h-25.5v2h25.5v-2ZM139.5,167c-21.1,0-40.1-8.7-53.8-22.7l-1.4,1.4c14,14.4,33.5,23.3,55.2,23.3v-2ZM193.3,144.3c-13.6,14-32.7,22.7-53.8,22.7v2c21.6,0,41.2-8.9,55.2-23.3l-1.4-1.4ZM218.5,144h-24.5v2h24.5v-2ZM221.5,141c0,1.7-1.3,3-3,3v2c2.8,0,5-2.2,5-5h-2ZM221.5,121v20h2v-20h-2ZM218.5,118c1.7,0,3,1.3,3,3h2c0-2.8-2.2-5-5-5v2ZM211.3,118h7.2v-2h-7.2v2Z" fill="url(#linear-gradient1)"/>
  </g>
  <circle cx="140.5" cy="91.2" r="57" fill="none" stroke="url(#linear-gradient2)" stroke-width="2"/>
  <path d="M127.7,148.7c1.3,0,2.1.9,2.1,2.1s-.8,2.1-2.1,2.1-2.1-.9-2.1-2.1.8-2.1,2.1-2.1ZM127.7,152.4c1,0,1.5-.7,1.5-1.6s-.5-1.6-1.5-1.6-1.5.7-1.5,1.6.5,1.6,1.5,1.6Z" fill="#fff"/>
  <path d="M130.6,148.8h.6v1c.3-.7.9-1.1,1.7-1.1s1.9.8,1.9,2.1-.7,2.1-1.9,2.1-1.5-.4-1.7-1.1v2.5h-.6v-5.4h0ZM132.8,152.4c.8,0,1.5-.5,1.5-1.6s-.7-1.6-1.5-1.6-1.5.5-1.5,1.6.7,1.6,1.5,1.6Z" fill="#fff"/>
  <path d="M137.4,148.7c1.1,0,1.9.7,1.9,1.9v.2h-3.2c0,.8.4,1.5,1.3,1.5s1.1-.4,1.3-1h.6c-.2.7-.6,1.5-1.9,1.5s-1.9-1-1.9-2.1.7-2,1.9-2h0ZM138.7,150.4c0-.8-.6-1.2-1.3-1.2s-1.2.4-1.3,1.2h2.6Z" fill="#fff"/>
  <path d="M140.2,148.8h.6v1.1c.2-.7.8-1.2,1.6-1.2s1.4.6,1.4,1.6v2.4h-.6v-2.4c0-.8-.3-1.2-1-1.2s-1.4.8-1.4,1.8v1.7h-.6v-4,.2h0Z" fill="#fff"/>
  <path d="M146.1,152.5c-.4-.3-.8-.6-1-1s-.4-.9-.4-1.5,0-1.1.4-1.5c.2-.4.6-.8,1-1,.4-.3.9-.4,1.5-.4s1,0,1.4.3c.4.2.7.4,1,.8.2.3.4.7.4,1.2h-1.3c0-.4-.2-.6-.5-.8s-.6-.3-1-.3-.9.2-1.2.5c-.3.3-.4.7-.4,1.3s0,1,.4,1.3.7.5,1.2.5.7,0,1-.3c.3-.2.4-.5.5-.8h1.3c0,.7-.4,1.3-.9,1.7s-1.1.6-1.9.6-1.1-.1-1.5-.4h0v-.2h0Z" fill="#fff"/>
  <path d="M151.2,149.6c.2-.3.5-.6.8-.7.3-.2.7-.2,1.2-.2s.8,0,1.1.2c.3.2.6.4.8.7.2.3.3.7.3,1.1s0,.8-.3,1.1-.5.6-.8.7c-.3.2-.7.2-1.1.2s-.8,0-1.2-.2c-.3-.2-.6-.4-.8-.7-.2-.3-.3-.7-.3-1.1s0-.8.3-1.1ZM152.4,151.5c.2.2.4.3.8.3s.6,0,.8-.3c.2-.2.3-.4.3-.8s0-.6-.3-.8-.4-.3-.8-.3-.6,0-.8.3c-.2.2-.3.4-.3.8s0,.6.3.8Z" fill="#fff"/>
  <path d="M156.8,152.6c-.3-.2-.5-.4-.6-.8s-.2-.7-.2-1.1,0-.7.2-1.1c0-.3.3-.6.6-.7.3-.2.6-.3,1-.3s.7,0,1,.3c.3.2.4.4.6.6v-2.7h1.2v5.9h-1.2v-.8c-.3.6-.8.9-1.6.9s-.8,0-1-.3h0ZM157.4,151.5c.2.2.5.3.8.3s.6,0,.8-.3c.2-.2.3-.4.3-.8s0-.6-.3-.8c-.2-.2-.5-.3-.8-.3s-.6,0-.8.3c-.2.2-.3.4-.3.8s0,.6.3.8Z" fill="#fff"/>
  <path d="M161.5,149.6c.2-.3.4-.6.7-.7s.7-.2,1.1-.2c.7,0,1.2.2,1.6.5.4.4.6.9.6,1.5v.3h-3c0,.3,0,.5.3.7.2.2.4.2.7.2s.4,0,.6-.2c.2-.1.3-.2.3-.4h1.2c0,.4-.3.8-.6,1.1-.4.3-.8.4-1.4.4s-.8,0-1.1-.3c-.3-.2-.6-.4-.7-.7-.2-.3-.3-.7-.3-1.1s0-.8.3-1.1c0,0-.3,0-.3,0ZM164.3,150.4c0-.3,0-.5-.3-.6-.2-.1-.4-.2-.6-.2s-.5,0-.6.2c-.2.1-.3.3-.3.6h1.8Z" fill="#fff"/>
  <path d="M117.3,149.3h-2l-.6,1.1c0,.3-.4.4-.7.4h7.1l.6-1.1c0-.3.4-.4.7-.4h-5.2.1Z" fill="#fff"/>
  <path d="M119.1,148.4l.5.9h1.8l-.8-1.6c-.4-.9-1.3-1.4-2.3-1.4h-1.4c-1,0-1.8.5-2.3,1.4l-1.1,2c-.2.4,0,.9.3,1.1h.4c.3,0,.6-.2.7-.4l1.1-2c.2-.3.5-.6.9-.6h1.4c.4,0,.7.2.9.6h-.1Z" fill="#fff"/>
  <path d="M122.9,149.4c-.4-.2-.9,0-1.1.3l-1.1,2c-.2.3-.5.6-.9.6h-1.4c-.4,0-.7-.2-.9-.6l-.5-.9h-1.8l.8,1.6c.4.9,1.3,1.4,2.3,1.4h1.4c1,0,1.8-.5,2.3-1.4l1.1-2c.2-.4,0-.9-.3-1.1h0q0,.1,0,0Z" fill="#fff"/>
  <path d="M159.1,43.4c-.3-.1-.6-.1-.8,0l-3,1.4c-.7.3-1.5-.3-1.4-1l.4-3.3c0-.3,0-.6-.3-.8l-2.2-2.4c-.5-.6-.2-1.5.5-1.7l3.3-.6c.3,0,.5-.2.7-.5l1.6-2.9c.4-.7,1.4-.7,1.7,0l1.6,2.9c0,.3.4.4.7.5l3.3.6c.8.2,1.1,1.1.5,1.7l-2.2,2.4c-.2.2-.3.5-.3.8l.4,3.3c0,.8-.7,1.4-1.4,1l-3-1.4s0,0,0,0Z" fill="url(#linear-gradient3)"/>
  <path d="M122.1,43.4c-.3-.1-.6-.1-.8,0l-3,1.4c-.7.3-1.5-.3-1.4-1l.4-3.3c0-.3,0-.6-.3-.8l-2.2-2.4c-.5-.6-.2-1.5.5-1.7l3.3-.6c.3,0,.5-.2.7-.5l1.6-2.9c.4-.7,1.4-.7,1.7,0l1.6,2.9c0,.3.4.4.7.5l3.3.6c.8.2,1.1,1.1.5,1.7l-2.2,2.4c-.2.2-.3.5-.3.8l.4,3.3c0,.8-.7,1.4-1.4,1l-3-1.4s0,0,0,0Z" fill="url(#linear-gradient4)"/>
  <path d="M140.4,40.4c-.3-.1-.6-.1-.8,0l-3,1.4c-.7.3-1.5-.3-1.4-1l.4-3.3c0-.3,0-.6-.3-.8l-2.2-2.4c-.5-.6-.2-1.5.5-1.7l3.3-.6c.3,0,.5-.2.7-.5l1.6-2.9c.4-.7,1.4-.7,1.7,0l1.6,2.9c0,.3.4.4.7.5l3.3.6c.8.2,1.1,1.1.5,1.7l-2.2,2.4c-.2.2-.3.5-.3.8l.4,3.3c0,.8-.7,1.4-1.4,1l-3-1.4s0,0,0,0Z" fill="url(#linear-gradient5)"/>
  <g>
    <path d="M65.7,137.2v-2.1h1.7v-8.4h-1.7v-2.1h6.5c.8,0,1.4,0,2,.4s1,.6,1.3,1.1.5,1,.5,1.7v.2c0,.6-.1,1-.3,1.4-.2.4-.5.6-.8.8-.3.2-.6.3-.8.4v.3c.3,0,.6.2.9.4s.6.5.8.9.3.9.3,1.5v.2c0,.7-.2,1.3-.5,1.8s-.8.9-1.3,1.1c-.6.3-1.2.4-2,.4,0,0-6.6,0-6.6,0ZM69.7,129.8h2.2c.5,0,.9,0,1.2-.4s.5-.6.5-1v-.2c0-.5-.2-.8-.5-1.1-.3-.2-.7-.4-1.2-.4h-2.2v3h0ZM69.7,135h2.2c.5,0,.9,0,1.3-.4s.5-.6.5-1.1v-.2c0-.5-.2-.8-.5-1.1s-.7-.4-1.3-.4h-2.2v3.1h0Z" fill="#fff"/>
    <path d="M80.8,137.5c-.6,0-1.2,0-1.7-.3-.5-.2-.9-.5-1.2-1s-.4-.9-.4-1.6.1-1.1.4-1.5.7-.7,1.2-.9,1.1-.3,1.8-.3h2.4v-.5c0-.4-.1-.8-.4-1-.3-.3-.7-.4-1.3-.4s-1,0-1.3.4-.5.6-.5,1l-2.1-.7c.1-.5.4-.9.7-1.3s.7-.7,1.3-.9c.5-.2,1.2-.4,2-.4,1.2,0,2.1.3,2.8.9s1,1.4,1,2.6v3.3c0,.4.2.5.5.5h.7v1.9h-1.5c-.4,0-.8,0-1.1-.3s-.4-.5-.4-.9h-.3s-.2.3-.3.6c-.2.2-.4.4-.8.6s-.9.3-1.5.3h0s0,0,0,0ZM81.2,135.6c.6,0,1.2-.2,1.6-.5.4-.4.6-.8.6-1.4v-.2h-2.3c-.4,0-.8,0-1,.3-.2.2-.4.4-.4.8s.1.6.4.8.6.3,1.1.3h0q0,0,0-.1Z" fill="#fff"/>
    <path d="M91.9,137.5c-.7,0-1.4-.2-2-.5-.6-.4-1.1-.9-1.5-1.6s-.6-1.5-.6-2.5v-.3c0-1,.2-1.8.6-2.5.4-.7.9-1.2,1.5-1.6s1.3-.5,2-.5,1,0,1.4.2c.4,0,.7.3.9.5s.4.4.5.6h.3v-4.7h2.3v12.6h-2.2v-1.1h-.3c-.2.3-.5.6-.9.9s-1,.4-1.9.4h0ZM92.6,135.5c.7,0,1.3-.2,1.7-.7.5-.4.7-1.1.7-2v-.2c0-.9-.2-1.5-.7-2-.5-.4-1-.7-1.8-.7s-1.3.2-1.7.7c-.5.5-.7,1.1-.7,2v.2c0,.9.2,1.5.7,2s1.1.7,1.7.7h0Z" fill="#fff"/>
    <path d="M99.3,132.8v-.3c0-.9.2-1.7.6-2.4.4-.7.9-1.2,1.5-1.5.6-.4,1.3-.5,2-.5s1.4,0,1.9.4c.4.3.7.6.9.9h.3v-1.1h2.2v10.5c0,.6-.2,1.1-.5,1.5s-.8.5-1.4.5h-6v-2h5.2c.3,0,.5-.2.5-.5v-2.3h-.3c0,.2-.3.4-.5.6s-.5.4-.9.5-.8.2-1.4.2-1.4-.2-2-.5c-.6-.4-1.1-.9-1.5-1.5-.4-.7-.6-1.5-.6-2.4h0s0,0,0,0ZM104,135.3c.7,0,1.3-.2,1.7-.7.5-.4.7-1.1.7-1.9v-.2c0-.8-.2-1.4-.7-1.9-.5-.4-1-.7-1.8-.7s-1.3.2-1.7.7c-.5.4-.7,1.1-.7,1.9v.2c0,.8.2,1.4.7,1.9.5.4,1.1.7,1.7.7h0Z" fill="#fff"/>
    <path d="M115.3,137.5c-.9,0-1.7-.2-2.3-.6-.7-.4-1.2-.9-1.6-1.6-.4-.7-.6-1.5-.6-2.4v-.2c0-.9.2-1.7.6-2.4.4-.7.9-1.2,1.6-1.6.7-.4,1.5-.6,2.3-.6s1.6.2,2.3.6,1.2.9,1.5,1.6c.4.7.5,1.5.5,2.4v.8h-6.5c0,.6.3,1.1.7,1.5s1,.6,1.6.6,1.1,0,1.4-.4c.3-.3.5-.6.7-.9l1.9,1c-.2.3-.4.7-.7,1-.3.4-.7.7-1.3.9-.5.3-1.2.4-2,.4h-.1ZM113.1,131.7h4.2c0-.5-.3-.9-.6-1.2-.4-.3-.8-.5-1.4-.5s-1.1.2-1.5.5-.6.7-.7,1.2Z" fill="#fff"/>
    <path d="M126.1,137.2v-12.6h5.2c.8,0,1.5.2,2.1.5s1.1.8,1.4,1.3c.3.6.5,1.3.5,2.1v.3c0,.8-.2,1.5-.5,2s-.8,1-1.4,1.3-1.3.5-2.1.5h-2.8v4.6s-2.4,0-2.4,0ZM128.5,130.4h2.6c.6,0,1-.2,1.4-.5.3-.3.5-.7.5-1.3v-.2c0-.5-.2-1-.5-1.3s-.8-.5-1.4-.5h-2.6v3.7h0Z" fill="#fff"/>
    <path d="M137.1,137.2v-8.9h2.2v1h.3c0-.4.4-.6.7-.8.3-.2.7-.3,1.1-.3h1.1v2h-1.1c-.6,0-1,.2-1.4.5s-.6.8-.6,1.4v5.1s-2.3,0-2.3,0Z" fill="#fff"/>
    <path d="M148.1,137.5c-.9,0-1.7-.2-2.4-.5s-1.3-.9-1.7-1.6c-.4-.7-.6-1.5-.6-2.5v-.3c0-1,.2-1.8.6-2.5s1-1.2,1.7-1.6,1.5-.5,2.4-.5,1.7.2,2.4.5c.7.4,1.3.9,1.7,1.6.4.7.6,1.5.6,2.5v.3c0,1-.2,1.8-.6,2.5s-1,1.2-1.7,1.6-1.5.5-2.4.5ZM148.1,135.4c.7,0,1.3-.2,1.7-.7.5-.4.7-1.1.7-1.9v-.2c0-.8-.2-1.5-.7-1.9s-1-.7-1.7-.7-1.3.2-1.7.7-.7,1.1-.7,1.9v.2c0,.8.2,1.5.7,1.9.5.5,1,.7,1.7.7Z" fill="#fff"/>
    <path d="M154.5,132.8v-.3c0-.9.2-1.7.6-2.4s.9-1.2,1.5-1.5c.6-.4,1.3-.5,2-.5s1.4,0,1.9.4.7.6.9.9h.3v-1.1h2.2v10.5c0,.6-.2,1.1-.5,1.5-.4.4-.8.5-1.4.5h-6v-2h5.2c.3,0,.5-.2.5-.5v-2.3h-.3c0,.2-.3.4-.5.6s-.5.4-.9.5-.8.2-1.4.2-1.4-.2-2-.5c-.6-.4-1.1-.9-1.5-1.5s-.6-1.5-.6-2.4h0s0,0,0,0ZM159.2,135.3c.7,0,1.3-.2,1.7-.7.5-.4.7-1.1.7-1.9v-.2c0-.8-.2-1.4-.7-1.9-.5-.4-1-.7-1.8-.7s-1.3.2-1.7.7c-.5.4-.7,1.1-.7,1.9v.2c0,.8.2,1.4.7,1.9.5.4,1,.7,1.7.7h.1Z" fill="#fff"/>
    <path d="M166.4,137.2v-8.9h2.2v1h.3c0-.4.4-.6.7-.8.3-.2.7-.3,1.1-.3h1.1v2h-1.1c-.6,0-1,.2-1.4.5s-.6.8-.6,1.4v5.1s-2.3,0-2.3,0Z" fill="#fff"/>
    <path d="M176.1,137.5c-.6,0-1.2,0-1.7-.3s-.9-.5-1.2-1-.4-.9-.4-1.6,0-1.1.4-1.5.7-.7,1.2-.9c.5-.2,1.1-.3,1.8-.3h2.4v-.5c0-.4,0-.8-.4-1-.3-.3-.7-.4-1.3-.4s-1,0-1.3.4-.5.6-.5,1l-2.1-.7c0-.5.4-.9.7-1.3.3-.4.7-.7,1.3-.9s1.2-.4,2-.4c1.2,0,2.1.3,2.8.9.7.6,1,1.4,1,2.6v3.3c0,.4.2.5.5.5h.7v1.9h-1.5c-.4,0-.8,0-1.1-.3-.3-.2-.4-.5-.4-.9h-.3s-.2.3-.3.6c-.2.2-.4.4-.8.6s-.9.3-1.5.3h0s0,0,0,0ZM176.4,135.6c.6,0,1.2-.2,1.6-.5.4-.4.6-.8.6-1.4v-.2h-2.3c-.4,0-.8,0-1,.3-.2.2-.4.4-.4.8s0,.6.4.8.6.3,1.1.3h0q0,0,0-.1Z" fill="#fff"/>
    <path d="M183.7,137.2v-8.9h2.2v1h.3c.2-.3.4-.6.8-.8s.8-.3,1.4-.3,1.1,0,1.5.4.7.6.9,1h.3c.2-.4.5-.7.9-1s.9-.4,1.6-.4,1.1,0,1.5.4c.5.2.8.6,1.1,1.1s.4,1.1.4,1.8v5.9h-2.3v-5.7c0-.5-.1-.9-.4-1.1-.3-.2-.6-.4-1.1-.4s-.9.2-1.2.5-.4.8-.4,1.4v5.3h-2.3v-5.7c0-.5-.1-.9-.4-1.1-.3-.2-.6-.4-1.1-.4s-.9.2-1.2.5-.4.8-.4,1.4v5.3h-2.3l.2-.2h0Z" fill="#fff"/>
    <path d="M199.1,137.2v-8.9h2.2v1h.3c.2-.3.4-.6.8-.8s.8-.3,1.4-.3,1.1,0,1.5.4.7.6.9,1h.3c.2-.4.5-.7.9-1s.9-.4,1.6-.4,1.1,0,1.5.4c.5.2.8.6,1.1,1.1s.4,1.1.4,1.8v5.9h-2.3v-5.7c0-.5-.1-.9-.4-1.1-.3-.2-.6-.4-1.1-.4s-.9.2-1.2.5-.4.8-.4,1.4v5.3h-2.3v-5.7c0-.5-.1-.9-.4-1.1-.3-.2-.6-.4-1.1-.4s-.9.2-1.2.5-.4.8-.4,1.4v5.3h-2.3l.2-.2h0Z" fill="#fff"/>
  </g>
  <path d="M168.3,85.6c0,16.2-13.1,29.3-29.3,29.3s-29.3-13.1-29.3-29.3,13.1-29.3,29.3-29.3,1.4.6,1.4,1.4h0v22.5c3,.8,4.8,3.8,4,6.8-.8,3-3.8,4.8-6.8,4-3-.8-4.8-3.8-4-6.8.5-2,2-3.5,4-4v-9.9c-8.4.8-14.6,8.2-13.9,16.7s8.2,14.6,16.7,13.9,14.6-8.2,13.9-16.7c-.5-5.8-4.3-10.8-9.7-12.9v-2.9c9.5,3.1,14.6,13.4,11.4,22.8-3.1,9.5-13.3,14.6-22.8,11.4-9.5-3.1-14.6-13.3-11.4-22.8,2.3-6.9,8.6-11.8,15.8-12.3v-8.4c-14.6.8-25.7,13.3-24.8,27.9.8,14.6,13.3,25.7,27.9,24.8,14.6-.8,25.7-13.3,24.8-27.9-.7-11.9-9.2-21.8-20.9-24.3v-2c0-.3,0-.5,0-.8.1,0,.2,0,.4,0,13.6,2.8,23.4,14.8,23.4,28.7h0Z" fill="#e9edff"/>
</svg>